<?xml version="1.0" encoding="UTF-8" standalone="no"?>
<!DOCTYPE svg PUBLIC "-//W3C//DTD SVG 1.1//EN" "http://www.w3.org/Graphics/SVG/1.1/DTD/svg11.dtd">
<svg version="1.1" xmlns="http://www.w3.org/2000/svg" xmlns:xlink="http://www.w3.org/1999/xlink" preserveAspectRatio="xMidYMid meet" viewBox="-1 -1 525.9950617283951 63.18024691358022" width="522" height="59.18"><defs><path d="M0 2.65L10.35 2.65L26.05 38.83L41.84 2.65L52.19 2.65L26.05 59.18L26.05 59.18L0 2.65ZM495.17 20.31L487.15 37.95L483.5 46.34L478.68 56.85L468.4 56.85L495.25 0L522 56.85L511.64 56.85L506.82 46.34L503.17 37.95L503.17 37.95L495.17 20.31ZM426.98 56.85L417.26 56.85L417.26 2.65L426.98 2.65L426.98 2.65L426.98 56.85ZM291.3 56.85L250.25 56.85L250.25 48.12L291.3 48.12L291.3 48.12L291.3 56.85ZM360.28 2.72L360.63 2.76L360.98 2.8L361.33 2.84L361.67 2.9L362.01 2.96L362.35 3.02L362.68 3.09L363.01 3.17L363.34 3.25L363.67 3.34L363.99 3.44L364.31 3.54L364.63 3.65L364.94 3.76L365.26 3.88L365.57 4.01L365.87 4.14L366.18 4.28L366.48 4.43L366.78 4.58L367.07 4.74L367.36 4.91L367.65 5.08L367.94 5.25L368.23 5.44L368.51 5.63L368.79 5.83L369.06 6.03L369.34 6.24L369.61 6.45L369.88 6.67L370.14 6.9L370.41 7.14L370.67 7.38L370.92 7.62L371.18 7.87L371.43 8.12L371.67 8.37L371.9 8.63L372.13 8.88L372.35 9.14L372.57 9.41L372.78 9.68L372.98 9.95L373.18 10.22L373.37 10.49L373.55 10.77L373.73 11.05L373.9 11.34L374.06 11.63L374.22 11.92L374.37 12.21L374.51 12.51L374.65 12.81L374.78 13.11L374.91 13.42L375.02 13.73L375.14 14.04L375.24 14.36L375.34 14.68L375.43 15L375.52 15.32L375.6 15.65L375.67 15.98L375.74 16.32L375.8 16.65L375.86 16.99L375.9 17.34L375.94 17.68L375.98 18.03L376.01 18.39L376.03 18.74L376.05 19.1L376.06 19.47L376.06 19.83L376.06 19.84L376.06 19.85L376.06 19.85L376.06 19.87L376.06 19.88L376.06 19.89L376.05 19.9L376.05 19.91L376.05 19.94L376.04 19.96L376.04 19.97L376.04 19.98L376.04 19.99L376.04 20L376.04 20L376.04 20.01L376.04 20.02L376.04 20.04L376.04 20.05L376.04 20.05L376.04 20.06L376.04 20.07L376.04 20.09L376.04 20.09L376.04 20.1L376.05 20.11L376.05 20.12L376.05 20.15L376.05 20.17L376.06 20.18L376.06 20.2L376.06 20.2L376.06 20.21L376.06 20.22L376.06 20.23L376.06 20.59L376.05 20.96L376.03 21.31L376.01 21.67L375.98 22.02L375.94 22.37L375.9 22.72L375.86 23.06L375.8 23.4L375.74 23.74L375.67 24.07L375.6 24.4L375.52 24.73L375.43 25.06L375.34 25.38L375.24 25.7L375.14 26.01L375.02 26.32L374.91 26.63L374.78 26.94L374.65 27.24L374.51 27.54L374.37 27.84L374.22 28.13L374.06 28.42L373.9 28.71L373.73 29L373.55 29.28L373.37 29.56L373.18 29.83L372.98 30.11L372.78 30.38L372.57 30.64L372.35 30.91L372.13 31.17L371.9 31.43L371.67 31.68L371.43 31.94L371.18 32.19L370.92 32.43L370.69 32.66L370.45 32.88L370.21 33.1L369.96 33.31L369.71 33.51L369.46 33.71L369.21 33.9L368.95 34.09L368.69 34.28L368.43 34.45L368.17 34.63L367.9 34.79L367.63 34.96L367.35 35.11L367.08 35.27L366.8 35.41L366.52 35.55L366.24 35.69L365.95 35.82L365.66 35.95L365.37 36.07L365.08 36.18L364.79 36.29L364.49 36.4L364.19 36.5L363.89 36.59L363.59 36.68L363.28 36.77L362.98 36.85L362.67 36.92L362.36 36.99L362.04 37.05L361.73 37.11L361.42 37.16L361.1 37.21L360.78 37.25L360.46 37.29L360.14 37.32L359.81 37.35L359.49 37.37L368.93 56.85L358.58 56.85L353.76 46.36L350.1 37.97L349.85 37.41L345.86 28.62L358.24 28.62L358.41 28.62L358.59 28.62L358.76 28.61L358.93 28.6L359.1 28.58L359.26 28.56L359.43 28.54L359.59 28.52L359.76 28.49L359.92 28.46L360.08 28.43L360.24 28.39L360.4 28.35L360.55 28.31L360.71 28.26L360.86 28.21L361.02 28.16L361.17 28.11L361.32 28.05L361.46 27.99L361.61 27.93L361.76 27.86L361.9 27.79L362.04 27.72L362.18 27.65L362.32 27.57L362.45 27.49L362.59 27.41L362.72 27.33L362.85 27.24L362.98 27.15L363.11 27.06L363.23 26.96L363.35 26.87L363.47 26.77L363.59 26.66L363.71 26.56L363.83 26.45L363.94 26.34L364.05 26.23L364.14 26.14L364.18 26.1L364.19 26.09L364.2 26.08L364.21 26.07L364.22 26.06L364.24 26.04L364.26 26.02L364.27 26.01L364.29 25.98L364.3 25.97L364.31 25.96L364.33 25.94L364.34 25.93L364.35 25.92L364.36 25.91L364.37 25.89L364.38 25.88L364.39 25.87L364.41 25.85L364.42 25.84L364.43 25.82L364.44 25.81L364.45 25.8L364.46 25.79L364.47 25.78L364.48 25.77L364.49 25.75L364.51 25.73L364.52 25.72L364.54 25.69L364.55 25.68L364.55 25.67L364.56 25.66L364.57 25.65L364.58 25.64L364.58 25.64L364.59 25.63L364.6 25.62L364.6 25.61L364.61 25.61L364.62 25.59L364.63 25.59L364.64 25.58L364.65 25.56L364.66 25.55L364.67 25.53L364.68 25.52L364.69 25.5L364.71 25.48L364.74 25.44L364.76 25.41L364.77 25.41L364.78 25.39L364.79 25.38L364.8 25.36L364.81 25.35L364.82 25.33L364.84 25.31L364.85 25.29L364.88 25.24L364.9 25.22L364.91 25.2L364.92 25.19L364.93 25.18L364.94 25.16L364.94 25.15L364.95 25.14L364.96 25.13L364.96 25.12L364.97 25.1L364.98 25.1L364.99 25.08L364.99 25.07L365 25.06L365.01 25.04L365.01 25.04L365.02 25.03L365.03 25.01L365.03 25L365.04 24.99L365.05 24.97L365.06 24.96L365.07 24.95L365.08 24.93L365.09 24.91L365.1 24.89L365.11 24.88L365.13 24.85L365.14 24.84L365.15 24.81L365.17 24.79L365.17 24.77L365.19 24.75L365.2 24.73L365.21 24.71L365.22 24.69L365.24 24.67L365.24 24.65L365.26 24.63L365.28 24.59L365.3 24.55L365.33 24.49L365.34 24.49L365.34 24.48L365.35 24.46L365.36 24.45L365.37 24.43L365.39 24.4L365.4 24.38L365.41 24.37L365.42 24.35L365.43 24.34L365.48 24.24L365.53 24.15L365.57 24.05L365.62 23.96L365.66 23.86L365.7 23.76L365.75 23.66L365.79 23.56L365.82 23.46L365.86 23.36L365.9 23.26L365.93 23.16L365.97 23.06L366 22.95L366.03 22.85L366.06 22.74L366.09 22.64L366.12 22.53L366.15 22.42L366.17 22.32L366.2 22.21L366.22 22.1L366.24 21.99L366.26 21.88L366.28 21.77L366.3 21.66L366.32 21.54L366.34 21.43L366.35 21.32L366.37 21.2L366.38 21.09L366.39 20.97L366.4 20.86L366.41 20.74L366.42 20.62L366.42 20.51L366.43 20.39L366.43 20.27L366.44 20.15L366.44 20.03L366.44 19.91L366.43 19.79L366.43 19.67L366.42 19.55L366.42 19.44L366.41 19.32L366.4 19.2L366.39 19.09L366.38 18.97L366.36 18.86L366.35 18.74L366.33 18.63L366.32 18.52L366.3 18.4L366.28 18.29L366.26 18.18L366.24 18.07L366.21 17.96L366.19 17.85L366.17 17.74L366.14 17.64L366.11 17.53L366.08 17.42L366.05 17.32L366.02 17.21L365.99 17.11L365.96 17L365.92 16.9L365.89 16.8L365.85 16.7L365.82 16.6L365.78 16.5L365.74 16.4L365.7 16.3L365.66 16.2L365.61 16.1L365.57 16.01L365.52 15.91L365.48 15.82L365.43 15.72L365.43 15.72L365.42 15.71L365.42 15.7L365.41 15.69L365.38 15.66L365.37 15.64L365.37 15.63L365.36 15.63L365.36 15.62L365.35 15.61L365.35 15.6L365.35 15.6L365.35 15.59L365.34 15.59L365.34 15.58L365.34 15.57L365.33 15.57L365.33 15.57L365.3 15.51L365.27 15.46L365.26 15.43L365.25 15.42L365.24 15.39L365.23 15.38L365.21 15.35L365.21 15.34L365.19 15.31L365.17 15.29L365.17 15.27L365.15 15.25L365.14 15.22L365.13 15.21L365.11 15.18L365.1 15.17L365.09 15.15L365.08 15.13L365.07 15.11L365.06 15.1L365.05 15.09L365.04 15.07L365.03 15.06L365.03 15.05L365.02 15.03L365.01 15.02L365.01 15.01L365 15L364.99 14.99L364.99 14.98L364.98 14.96L364.97 14.95L364.96 14.94L364.96 14.93L364.95 14.92L364.94 14.91L364.94 14.9L364.93 14.89L364.92 14.87L364.92 14.86L364.9 14.85L364.89 14.82L364.85 14.77L364.84 14.76L364.82 14.73L364.81 14.71L364.8 14.7L364.79 14.69L364.79 14.68L364.77 14.66L364.76 14.64L364.75 14.64L364.75 14.63L364.73 14.61L364.73 14.6L364.72 14.59L364.71 14.59L364.71 14.58L364.69 14.55L364.69 14.55L364.67 14.52L364.65 14.49L364.63 14.47L364.62 14.46L364.62 14.45L364.61 14.45L364.6 14.43L364.59 14.42L364.59 14.41L364.57 14.4L364.56 14.38L364.55 14.37L364.54 14.36L364.53 14.35L364.52 14.34L364.51 14.33L364.5 14.32L364.49 14.31L364.48 14.3L364.47 14.28L364.46 14.27L364.45 14.26L364.44 14.25L364.43 14.24L364.42 14.23L364.41 14.22L364.4 14.21L364.39 14.2L364.38 14.19L364.38 14.17L364.36 14.15L364.35 14.14L364.34 14.13L364.33 14.12L364.32 14.11L364.31 14.1L364.3 14.09L364.29 14.07L364.28 14.06L364.27 14.05L364.26 14.04L364.25 14.03L364.24 14.02L364.23 14.01L364.22 14L364.21 13.99L364.2 13.98L364.19 13.97L364.18 13.96L364.17 13.95L364.16 13.94L364.16 13.94L364.15 13.93L364.14 13.93L364.14 13.92L364.13 13.92L364.13 13.92L364.12 13.91L364.11 13.9L364.11 13.89L364.1 13.88L364.09 13.87L364.08 13.86L364.07 13.85L364.07 13.85L364.06 13.84L364.06 13.83L364.05 13.83L363.94 13.72L363.83 13.61L363.71 13.5L363.59 13.4L363.47 13.29L363.35 13.19L363.23 13.1L363.11 13L362.98 12.91L362.85 12.82L362.72 12.73L362.59 12.65L362.45 12.57L362.32 12.49L362.18 12.41L362.04 12.34L361.9 12.27L361.76 12.2L361.61 12.13L361.46 12.07L361.32 12.01L361.17 11.95L361.02 11.9L360.86 11.85L360.71 11.8L360.55 11.75L360.4 11.71L360.24 11.67L360.08 11.63L359.92 11.6L359.76 11.57L359.59 11.54L359.43 11.52L359.26 11.5L359.1 11.48L358.93 11.46L358.76 11.45L358.59 11.44L358.41 11.44L358.24 11.44L332.72 11.44L332.72 2.65L358.48 2.65L358.84 2.65L359.21 2.66L359.57 2.67L359.93 2.7L359.93 2.7L360.28 2.72ZM173.45 2.65L182.87 2.65L182.87 48.06L208.83 48.06L208.83 56.85L173.45 56.85L173.45 56.85L173.45 2.65ZM110.26 20.31L102.24 37.95L98.59 46.34L93.77 56.85L83.5 56.85L110.34 0L137.09 56.85L126.74 56.85L121.92 46.34L118.26 37.95L118.26 37.95L110.26 20.31ZM291.3 34.11L250.25 34.11L250.25 25.38L291.3 25.38L291.3 25.38L291.3 34.11ZM291.3 11.18L250.25 11.18L250.25 2.65L291.3 2.65L291.3 2.65L291.3 11.18Z" id="c2aLvspHfe"></path></defs><g><g><use xlink:href="#c2aLvspHfe" opacity="1" fill="#000000" fill-opacity="1"></use><g><use xlink:href="#c2aLvspHfe" opacity="1" fill-opacity="0" stroke="#000000" stroke-width="1" stroke-opacity="0"></use></g></g></g></svg>