<?xml version="1.0" encoding="utf-8"?>
<!-- Generator: Adobe Illustrator 23.0.3, SVG Export Plug-In . SVG Version: 6.00 Build 0)  -->
<svg version="1.1" id="Calque_1" xmlns="http://www.w3.org/2000/svg" xmlns:xlink="http://www.w3.org/1999/xlink" x="0px" y="0px"
	 viewBox="0 0 324 252" style="enable-background:new 0 0 324 252;" xml:space="preserve">
<g>
	<g>
		<g>
			<path d="M107.26,110.13C107.26,110.13,107.27,110.13,107.26,110.13c0.49,0,0.87-0.4,0.86-0.87l-0.01-1.36
				c0-0.48-0.39-0.86-0.86-0.86s-0.86,0.39-0.86,0.86l0.01,1.38C106.4,109.75,106.79,110.13,107.26,110.13z"/>
			<path d="M230.21,107.07c0,0.65-0.01,1.27-0.03,1.88c-0.02,0.48,0.36,0.88,0.83,0.9c0.01,0,0.02,0,0.03,0
				c0.46,0,0.85-0.37,0.86-0.83c0.02-0.63,0.03-1.28,0.03-1.94c0-0.48-0.39-0.86-0.86-0.86
				C230.59,106.21,230.21,106.6,230.21,107.07z"/>
			<path d="M75.46,87.26c0.48-0.03,0.84-0.44,0.81-0.91c-0.07-1.26-0.11-2.55-0.11-3.89c0-0.48-0.39-0.86-0.86-0.86
				c-0.48,0-0.86,0.39-0.86,0.86c0,1.37,0.04,2.7,0.11,3.99c0.03,0.46,0.41,0.81,0.86,0.81C75.43,87.26,75.44,87.26,75.46,87.26z"/>
			<path d="M76.04,92.28c0.47-0.07,0.8-0.51,0.73-0.98c-0.06-0.39-0.11-0.79-0.16-1.19c-0.06-0.47-0.48-0.82-0.96-0.75
				c-0.48,0.06-0.81,0.49-0.75,0.96c0.05,0.41,0.11,0.83,0.17,1.23c0.06,0.43,0.43,0.74,0.86,0.74C75.96,92.29,76,92.28,76.04,92.28
				z"/>
			<path d="M77.6,95.59c-0.11-0.46-0.56-0.75-1.04-0.64c-0.47,0.11-0.75,0.58-0.64,1.04c2.13,8.94,6.52,16.26,13.43,22.38
				c0.17,0.15,0.37,0.22,0.57,0.22c0.24,0,0.48-0.1,0.65-0.29c0.32-0.36,0.28-0.9-0.07-1.22C83.85,111.2,79.64,104.17,77.6,95.59z"
				/>
			<path d="M218.33,121.18l-0.53,0.2c-0.45,0.17-0.67,0.67-0.5,1.12c0.13,0.34,0.46,0.55,0.81,0.55c0.1,0,0.21-0.02,0.31-0.06
				l0.53-0.2c0.45-0.17,0.67-0.67,0.5-1.12C219.27,121.23,218.77,121.01,218.33,121.18z"/>
			<path d="M242.45,110.42c-3.15,2.27-7.11,4.15-11.47,5.93c0.24-1.08,0.46-2.21,0.62-3.43c0.06-0.47-0.27-0.91-0.75-0.97
				c-0.45-0.06-0.91,0.27-0.97,0.75c-0.21,1.61-0.52,3.07-0.88,4.44c-1.96,0.77-3.98,1.53-6.04,2.29l-0.96,0.36
				c-0.45,0.17-0.68,0.67-0.51,1.11c0.13,0.35,0.46,0.56,0.81,0.56c0.1,0,0.2-0.02,0.3-0.05l0.96-0.36c1.62-0.6,3.22-1.2,4.78-1.81
				c-3.38,9.55-10.89,12.71-20,16.51c-8.67,3.61-18.27,7.63-26.78,17.81l4.16-7.19c6.78-11.72,18.66-17.74,29.39-22.08
				c0.44-0.18,0.66-0.68,0.48-1.12c-0.18-0.44-0.68-0.66-1.12-0.48c-8.75,3.54-18.25,8.19-25.32,16.07l1.99-3.44
				c5.69-9.84,11.91-14.23,17.39-18.11c3.97-2.81,7.72-5.46,10.63-9.74c0.27-0.39,0.17-0.93-0.23-1.2c-0.39-0.27-0.93-0.17-1.2,0.23
				c-2.73,4.02-6.19,6.47-10.2,9.3c-3.85,2.72-8.05,5.74-12.21,10.6l3.15-5.45c7.87-13.61,16.13-20.34,23.51-24.93
				c-0.63,2.8-1.45,5.27-2.47,7.38c-0.21,0.43-0.03,0.95,0.4,1.15c0.12,0.06,0.25,0.09,0.38,0.09c0.32,0,0.63-0.18,0.78-0.49
				c1.28-2.63,2.25-5.74,2.94-9.36c1.53-0.9,3.02-1.73,4.45-2.52c6.14-3.4,11.44-6.34,14.61-12.32c0.22-0.42,0.06-0.95-0.36-1.17
				c-0.42-0.22-0.95-0.07-1.17,0.36c-2.93,5.54-7.78,8.22-13.92,11.62c-1.05,0.58-2.13,1.18-3.23,1.81c0.4-2.64,0.67-5.54,0.8-8.71
				c0.02-0.48-0.35-0.88-0.83-0.9c-0.52-0.05-0.88,0.35-0.9,0.83c-0.16,3.69-0.5,6.97-1.02,9.91c-7.06,4.21-15,10.16-22.72,21.95
				c2.71-8.3-0.2-13.46-3.73-19.66c-2.59-4.56-5.53-9.72-6.82-17.29c-0.08-0.47-0.51-0.8-1-0.71c-0.47,0.08-0.79,0.53-0.71,1
				c1.34,7.87,4.35,13.18,7.02,17.86c4.29,7.54,7.39,12.99,0.62,24.75l-11.27,19.51c5.15-13.61,1.35-20.03-2.93-27.22
				c-1.05-1.76-2.13-3.57-3.09-5.54c-0.21-0.43-0.73-0.61-1.16-0.4c-0.43,0.21-0.61,0.73-0.4,1.16c0.99,2.04,2.09,3.88,3.16,5.67
				c5.07,8.5,9.45,15.85-2.67,37.04l-14.72,25.36l-14.72-25.44c-10.99-19.01-4.14-28.03,3.79-38.47
				c5.01-6.59,10.19-13.4,11.49-23.34c0.06-0.48-0.27-0.91-0.74-0.97c-0.51-0.06-0.91,0.27-0.97,0.74
				c-1.24,9.49-6.28,16.12-11.15,22.52c-6.67,8.77-12.98,17.16-8.07,31.41l-7.6-13.15c-11.09-19.18-7.47-27.31-2.88-37.61l0.35-0.78
				c0.19-0.44,0-0.95-0.44-1.14c-0.43-0.19-0.95,0-1.14,0.44l-0.35,0.78c-3.7,8.31-6.98,15.71-2.11,28.68
				c-8.85-14.73-17.29-22.57-24.15-28.92c-2.68-2.48-5-4.63-7.01-6.88c-0.32-0.35-0.87-0.38-1.22-0.07
				c-0.36,0.32-0.39,0.86-0.07,1.22c2.07,2.31,4.53,4.59,7.13,7c7.14,6.61,16.03,14.85,25.27,30.95l5.98,10.35
				c-6.13-6.93-13.67-11.17-20.53-14.98c-1.49-0.83-2.93-1.64-4.33-2.46c-0.14-1.38-0.25-2.81-0.32-4.31
				c-0.02-0.48-0.32-0.81-0.9-0.82c-0.48,0.02-0.84,0.43-0.82,0.9c0.05,1.1,0.15,2.12,0.23,3.16c-6.04-3.7-10.73-7.71-11.99-14.23
				c-0.09-0.47-0.53-0.76-1.01-0.69c-0.47,0.09-0.78,0.55-0.69,1.01c1.48,7.6,6.96,11.94,13.88,16.03
				c0.43,3.93,1.16,7.38,2.17,10.47c-5.46-2.58-10.84-5.44-15.64-9.1c-0.38-0.29-0.92-0.22-1.21,0.16
				c-0.29,0.38-0.22,0.92,0.16,1.21c5.39,4.11,11.43,7.21,17.52,10.03c1.7,4.22,4.01,7.69,7.09,10.57c0.17,0.15,0.38,0.23,0.59,0.23
				c0.23,0,0.46-0.09,0.63-0.27c0.33-0.35,0.31-0.9-0.04-1.22c-2.46-2.3-4.41-5.02-5.93-8.24c1.17,0.53,2.33,1.05,3.49,1.57
				c10.67,4.76,20.74,9.25,25.4,17.07l7.65,13.47c-6.71-8.44-14.03-12.9-20.65-16.93c-2.32-1.41-4.51-2.74-6.51-4.16
				c-0.39-0.27-0.93-0.18-1.21,0.21c-0.28,0.39-0.18,0.93,0.21,1.21c2.05,1.45,4.27,2.8,6.61,4.22c8.19,4.98,17.47,10.62,25.2,23.86
				l9.57,16.54l14.86-25.69c9.52-16.59,21.54-21.6,32.14-26.01c9.61-4,18.07-7.53,21.44-18.93c4.92-1.96,9.43-4.02,13-6.59
				c0.39-0.28,0.48-0.82,0.2-1.21C243.38,110.23,242.83,110.15,242.45,110.42z M116.46,131.97c-1.72-0.77-3.46-1.55-5.2-2.35
				c-1.14-3.01-1.94-6.46-2.45-10.38c1.05,0.6,2.12,1.19,3.22,1.8c8.71,4.84,18.58,10.33,24.94,21.31l1.05,1.82
				C132.52,139.13,124.66,135.63,116.46,131.97z"/>
			<path d="M250.75,99.49c-0.5-0.1-0.93,0.2-1.03,0.67c-0.66,3.1-2.2,5.76-4.71,8.15c-0.35,0.33-0.36,0.88-0.03,1.22
				c0.17,0.18,0.4,0.27,0.63,0.27c0.21,0,0.43-0.08,0.6-0.24c2.77-2.64,4.48-5.6,5.21-9.04C251.52,100.05,251.22,99.59,250.75,99.49
				z"/>
			<path d="M250.96,95.66c-0.48,0-0.86,0.39-0.86,0.86l-0.01,0.58c-0.02,0.48,0.35,0.88,0.83,0.9c0.01,0,0.02,0,0.03,0
				c0.46,0,0.85-0.37,0.86-0.83c0.01-0.21,0.01-0.42,0.01-0.64C251.82,96.04,251.43,95.66,250.96,95.66z"/>
			<path d="M92.66,97.97l0,0.48c0.01,0.47,0.39,0.85,0.86,0.85c0,0,0.01,0,0.01,0c0.48-0.01,0.86-0.4,0.85-0.88l0-0.46
				c0-0.48-0.39-0.86-0.86-0.86C93.05,97.11,92.66,97.5,92.66,97.97z"/>
			<path d="M224.43,80.41C224.43,80.41,224.44,80.41,224.43,80.41c0.48,0,0.87-0.38,0.87-0.86l0-0.96c0-0.48-0.39-0.86-0.86-0.86
				c-0.48,0-0.86,0.39-0.86,0.86l0,0.95C223.57,80.02,223.95,80.41,224.43,80.41z"/>
			<path d="M88.01,66.06C88.01,66.06,88.01,66.06,88.01,66.06c0.49,0,0.87-0.4,0.86-0.87l0-0.69c0-0.48-0.39-0.86-0.86-0.86
				c-0.48,0-0.86,0.39-0.86,0.86l0,0.71C87.15,65.68,87.53,66.06,88.01,66.06z"/>
			<path d="M88.09,67.63c-0.48,0.04-0.83,0.46-0.78,0.94c0.04,0.47,0.09,0.93,0.14,1.38c0.06,0.44,0.43,0.76,0.86,0.76
				c0.04,0,0.07,0,0.11,0c0.47-0.06,0.81-0.49,0.75-0.97c-0.06-0.43-0.1-0.87-0.14-1.31C88.99,67.94,88.63,67.58,88.09,67.63z"/>
			<path d="M88.41,74.71c0.85,2.99,2.18,5.72,4.06,8.34c0.17,0.23,0.43,0.36,0.7,0.36c0.17,0,0.35-0.05,0.5-0.16
				c0.39-0.28,0.48-0.82,0.2-1.21c-1.78-2.49-2.99-4.97-3.8-7.81c-0.13-0.46-0.6-0.72-1.07-0.6C88.55,73.77,88.28,74.25,88.41,74.71
				z"/>
			<path d="M244.23,74.6c-0.46-0.14-0.94,0.13-1.08,0.58L243,75.69c-0.15,0.45,0.1,0.94,0.56,1.09c0.09,0.03,0.18,0.04,0.26,0.04
				c0.37,0,0.71-0.23,0.82-0.6l0.17-0.55C244.95,75.22,244.69,74.74,244.23,74.6z"/>
			<path d="M244.65,72.77c0.04,0.01,0.08,0.01,0.13,0.01c0.42,0,0.81-0.36,0.88-0.78l0.07-0.46c0.07-0.47-0.26-0.91-0.73-0.98
				c-0.49-0.05-0.91,0.26-0.98,0.73l-0.09,0.56C243.85,72.31,244.18,72.69,244.65,72.77z"/>
			<path d="M245.22,68.7c0.02,0,0.04,0,0.06,0c0.45,0,0.83-0.35,0.86-0.8c0.1-1.38,0.15-2.85,0.15-4.37c0-0.48-0.39-0.86-0.86-0.86
				s-0.86,0.39-0.86,0.86c0,1.48-0.05,2.9-0.14,4.24C244.39,68.26,244.75,68.67,245.22,68.7z"/>
			<path d="M136.42,69.92c0.01,0,0.01,0,0.02,0c0.47,0,0.85-0.37,0.86-0.84c0.01-0.4,0.01-0.8,0.01-1.21c0-0.48-0.39-0.86-0.86-0.86
				c-0.48,0-0.86,0.39-0.86,0.86c0,0.4,0,0.78-0.01,1.17C135.56,69.51,135.94,69.91,136.42,69.92z"/>
			<path d="M135.96,75.19c0.04,0,0.07,0,0.1,0c0.43,0,0.81-0.32,0.86-0.76l0.08-0.74c0.05-0.48-0.29-0.9-0.76-0.95
				c-0.45-0.07-0.9,0.29-0.95,0.76l-0.08,0.72C135.14,74.7,135.48,75.13,135.96,75.19z"/>
			<path d="M131.86,89.15c0.11,0.05,0.22,0.07,0.33,0.07c0.34,0,0.66-0.2,0.8-0.53c1.09-2.62,2.44-6.2,3.33-10.58
				c0.1-0.47-0.21-0.92-0.68-1.02c-0.48-0.1-0.92,0.21-1.02,0.68c-0.86,4.24-2.18,7.71-3.23,10.26
				C131.21,88.47,131.42,88.97,131.86,89.15z"/>
			<path d="M187.73,73.69c-0.48,0.03-0.83,0.45-0.8,0.93l0.06,0.7c0.04,0.45,0.42,0.78,0.86,0.78c0.03,0,0.06,0,0.08,0
				c0.48-0.05,0.82-0.47,0.78-0.95l-0.06-0.66C188.62,74.01,188.18,73.63,187.73,73.69z"/>
			<path d="M187.65,71.95C187.65,71.95,187.66,71.95,187.65,71.95c0.49,0,0.87-0.4,0.86-0.87l0-0.62c0-0.48-0.39-0.86-0.86-0.86
				c-0.48,0-0.86,0.39-0.86,0.86l0,0.64C186.79,71.57,187.18,71.95,187.65,71.95z"/>
			<path d="M161.99,87.11c0.01,0,0.01,0,0.02,0c0.47,0,0.85-0.37,0.86-0.84c0.01-0.32,0.01-0.65,0.01-0.98
				c0-0.48-0.39-0.86-0.86-0.86s-0.86,0.39-0.86,0.86l-0.01,0.94C161.13,86.71,161.51,87.1,161.99,87.11z"/>
			<path d="M174.45,104.75c0.1,0.31,0.21,0.61,0.32,0.9c0.13,0.35,0.46,0.57,0.81,0.57c0.1,0,0.2-0.02,0.3-0.05
				c0.45-0.16,0.68-0.66,0.51-1.11c-0.1-0.28-0.2-0.57-0.3-0.85c-0.15-0.46-0.65-0.7-1.09-0.55
				C174.55,103.81,174.3,104.3,174.45,104.75z"/>
			<path d="M174.12,100.74c0.05,0,0.1,0,0.15-0.01c0.47-0.08,0.79-0.53,0.7-1c-0.32-1.84-0.48-3.81-0.48-5.84
				c0-0.48-0.39-0.86-0.86-0.86c-0.48,0-0.86,0.39-0.86,0.86c0,2.13,0.17,4.2,0.51,6.13C173.34,100.45,173.7,100.74,174.12,100.74z"
				/>
		</g>
	</g>
</g>
</svg>
