<?xml version="1.0" encoding="utf-8"?>
<!-- Generator: Adobe Illustrator 23.0.3, SVG Export Plug-In . SVG Version: 6.00 Build 0)  -->
<svg version="1.1" id="Calque_1" xmlns="http://www.w3.org/2000/svg" xmlns:xlink="http://www.w3.org/1999/xlink" x="0px" y="0px"
	 viewBox="0 0 324 252" style="enable-background:new 0 0 324 252;" xml:space="preserve">
<style type="text/css">
	.st0{fill:#8F4100;}
	.st1{fill:url(#SVGID_1_);}
	.st2{fill:url(#SVGID_2_);}
	.st3{fill:url(#SVGID_3_);}
	.st4{fill:url(#SVGID_4_);}
	.st5{fill:url(#SVGID_5_);}
	.st6{fill:url(#SVGID_6_);}
	.st7{fill:url(#SVGID_7_);}
	.st8{fill:url(#SVGID_8_);}
	.st9{fill:url(#SVGID_9_);}
	.st10{fill:url(#SVGID_10_);}
	.st11{fill:url(#SVGID_11_);}
	.st12{fill:url(#SVGID_12_);}
	.st13{fill:url(#SVGID_13_);}
	.st14{fill:url(#SVGID_14_);}
	.st15{fill:url(#SVGID_15_);}
	.st16{fill:url(#SVGID_16_);}
	.st17{fill:url(#SVGID_17_);}
	.st18{fill:url(#SVGID_18_);}
	.st19{fill:url(#SVGID_19_);}
	.st20{fill:url(#SVGID_20_);}
	.st21{fill:url(#SVGID_21_);}
	.st22{fill:url(#SVGID_22_);}
	.st23{fill:url(#SVGID_23_);}
	.st24{fill:url(#SVGID_24_);}
	.st25{fill:url(#SVGID_25_);}
	.st26{fill:url(#SVGID_26_);}
	.st27{fill:url(#SVGID_27_);}
	.st28{fill:url(#SVGID_28_);}
	.st29{fill:url(#SVGID_29_);}
	.st30{fill:url(#SVGID_30_);}
	.st31{fill:url(#SVGID_31_);}
	.st32{fill:url(#SVGID_32_);}
	.st33{fill:url(#SVGID_33_);}
	.st34{fill:url(#SVGID_34_);}
	.st35{fill:url(#SVGID_35_);}
</style>
<g>
	<g>
		<g>
			<g>
				<path class="st0" d="M50.77,225.95v-9.72h5.06v1.01h-3.98v3.14h3.63v1.01h-3.63v4.57H50.77z"/>
			</g>
			<g>
				<path class="st0" d="M60.16,225.95v-9.72h3.31c0.81,0,1.49,0.28,2.06,0.84c0.57,0.55,0.85,1.24,0.85,2.07
					c0,1.28-0.74,2.33-1.85,2.76l2.34,4.06h-1.24l-2.18-3.85h-0.01h-2.18v3.85H60.16z M61.24,221.1h2.12c0.55,0,1.01-0.18,1.38-0.56
					c0.38-0.38,0.56-0.84,0.56-1.41c0-1.07-0.79-1.9-1.86-1.9h-2.18V221.1z"/>
			</g>
			<g>
				<path class="st0" d="M70.03,221.1c0-1.44,0.49-2.64,1.46-3.6c0.99-0.96,2.19-1.45,3.59-1.45c1.4,0,2.6,0.49,3.58,1.45
					c0.99,0.96,1.47,2.16,1.47,3.6c0,1.44-0.49,2.65-1.47,3.61c-0.97,0.96-2.17,1.44-3.58,1.44c-1.4,0-2.6-0.48-3.59-1.44
					C70.52,223.75,70.03,222.53,70.03,221.1z M71.11,221.1c0,1.16,0.38,2.14,1.13,2.9c0.76,0.77,1.71,1.14,2.85,1.14
					c1.14,0,2.09-0.38,2.84-1.14c0.75-0.77,1.13-1.74,1.13-2.9s-0.38-2.12-1.13-2.89c-0.75-0.77-1.7-1.16-2.84-1.16
					c-1.14,0-2.09,0.39-2.85,1.16C71.48,218.97,71.11,219.94,71.11,221.1z"/>
			</g>
			<g>
				<path class="st0" d="M83.72,225.95v-10.01l4.69,6.68l4.7-6.68v10.01h-1.08v-6.82l-3.62,5.19l-3.6-5.19v6.82H83.72z"/>
			</g>
			<g>
				<path class="st0" d="M105.54,225.95v-9.72h3.12c1.54,0,2.77,0.45,3.66,1.34c0.9,0.89,1.35,2.07,1.35,3.53s-0.45,2.64-1.34,3.53
					c-0.89,0.88-2.11,1.32-3.66,1.32H105.54z M106.63,224.95h1.96c2.62,0,3.99-1.51,3.99-3.85c0-2.36-1.38-3.86-4.01-3.86h-1.95
					V224.95z"/>
			</g>
			<g>
				<path class="st0" d="M116.51,225.95l4.38-10.07l4.4,10.07h-1.18l-1.04-2.4h-4.37l-1.04,2.4H116.51z M119.12,222.55h3.51
					l-1.75-4.13L119.12,222.55z"/>
			</g>
			<g>
				<path class="st0" d="M129.72,225.95v-8.72h-2.64v-1.01h6.37v1.01h-2.64v8.72H129.72z"/>
			</g>
			<g>
				<path class="st0" d="M135.25,225.95l4.38-10.07l4.4,10.07h-1.18l-1.04-2.4h-4.37l-1.04,2.4H135.25z M137.86,222.55h3.51
					l-1.75-4.13L137.86,222.55z"/>
			</g>
			<g>
				<path class="st0" d="M155.5,225.95v-8.72h-2.64v-1.01h6.37v1.01h-2.64v8.72H155.5z"/>
			</g>
			<g>
				<path class="st0" d="M161.89,221.1c0-1.44,0.49-2.64,1.46-3.6c0.99-0.96,2.19-1.45,3.59-1.45s2.6,0.49,3.58,1.45
					c0.99,0.96,1.47,2.16,1.47,3.6c0,1.44-0.49,2.65-1.47,3.61c-0.97,0.96-2.17,1.44-3.58,1.44s-2.6-0.48-3.59-1.44
					C162.38,223.75,161.89,222.53,161.89,221.1z M162.96,221.1c0,1.16,0.38,2.14,1.13,2.9c0.76,0.77,1.71,1.14,2.85,1.14
					s2.09-0.38,2.84-1.14c0.75-0.77,1.13-1.74,1.13-2.9s-0.38-2.12-1.13-2.89c-0.75-0.77-1.7-1.16-2.84-1.16s-2.09,0.39-2.85,1.16
					C163.34,218.97,162.96,219.94,162.96,221.1z"/>
			</g>
			<g>
				<path class="st0" d="M183.38,225.95v-9.72h1.09v5.16l4.66-5.16h1.33l-3.87,4.24l3.98,5.48h-1.31l-3.39-4.69l-1.4,1.53v3.15
					H183.38z"/>
			</g>
			<g>
				<path class="st0" d="M194.89,225.95v-10.07l6.8,7.7v-7.35h1.09v10.07l-6.8-7.7v7.35H194.89z"/>
			</g>
			<g>
				<path class="st0" d="M206.78,221.1c0-1.44,0.49-2.64,1.46-3.6c0.99-0.96,2.19-1.45,3.59-1.45c1.4,0,2.6,0.49,3.58,1.45
					c0.99,0.96,1.47,2.16,1.47,3.6c0,1.44-0.49,2.65-1.47,3.61c-0.97,0.96-2.17,1.44-3.58,1.44c-1.4,0-2.6-0.48-3.59-1.44
					C207.27,223.75,206.78,222.53,206.78,221.1z M207.85,221.1c0,1.16,0.38,2.14,1.13,2.9c0.76,0.77,1.71,1.14,2.85,1.14
					c1.14,0,2.09-0.38,2.84-1.14c0.75-0.77,1.13-1.74,1.13-2.9s-0.38-2.12-1.13-2.89c-0.75-0.77-1.7-1.16-2.84-1.16
					c-1.14,0-2.09,0.39-2.85,1.16C208.23,218.97,207.85,219.94,207.85,221.1z"/>
			</g>
			<g>
				<path class="st0" d="M222.73,226.3l-3.17-10.07h1.14l2.17,6.86l2.93-7.2l2.81,7.17l2.21-6.83h1.14l-3.24,10.1l-2.95-7.49
					L222.73,226.3z"/>
			</g>
			<g>
				<path class="st0" d="M236.05,225.95v-9.72h1.09v8.72h3.99v1H236.05z"/>
			</g>
			<g>
				<path class="st0" d="M245.37,225.95v-9.72h5.48v1.01h-4.4v3.08h4.13v1.01h-4.13v3.63h4.49v1H245.37z"/>
			</g>
			<g>
				<path class="st0" d="M255.43,225.95v-9.72h3.12c1.54,0,2.77,0.45,3.66,1.34c0.9,0.89,1.35,2.07,1.35,3.53s-0.45,2.64-1.34,3.53
					c-0.89,0.88-2.11,1.32-3.66,1.32H255.43z M256.52,224.95h1.96c2.62,0,3.99-1.51,3.99-3.85c0-2.36-1.38-3.86-4.01-3.86h-1.95
					V224.95z"/>
			</g>
			<g>
				<path class="st0" d="M275.37,217.32l-0.68,0.76c-0.74-0.69-1.63-1.02-2.67-1.02c-1.14,0-2.09,0.39-2.84,1.16
					c-0.75,0.77-1.13,1.73-1.13,2.89s0.37,2.14,1.13,2.9c0.75,0.77,1.7,1.14,2.84,1.14c1.03,0,1.92-0.32,2.66-0.98v-2.51h-2.96v-1
					h4.05v3.89c-0.99,1.07-2.24,1.6-3.74,1.6c-1.4,0-2.6-0.48-3.59-1.44c-0.97-0.96-1.46-2.17-1.46-3.61c0-1.44,0.49-2.64,1.46-3.6
					c0.99-0.96,2.19-1.45,3.59-1.45C273.35,216.05,274.46,216.47,275.37,217.32z"/>
			</g>
			<g>
				<path class="st0" d="M279.96,225.95v-9.72h5.48v1.01h-4.4v3.08h4.13v1.01h-4.13v3.63h4.49v1H279.96z"/>
			</g>
		</g>
	</g>
	<g>
		<g>
			<radialGradient id="SVGID_1_" cx="167.1451" cy="136.4518" r="294.9989" gradientUnits="userSpaceOnUse">
				<stop  offset="0" style="stop-color:#FFE500"/>
				<stop  offset="0.0245" style="stop-color:#F0CC00"/>
				<stop  offset="0.0933" style="stop-color:#BB8F00"/>
				<stop  offset="0.1617" style="stop-color:#8E6000"/>
				<stop  offset="0.2281" style="stop-color:#683D00"/>
				<stop  offset="0.2921" style="stop-color:#4B2500"/>
				<stop  offset="0.3531" style="stop-color:#341300"/>
				<stop  offset="0.4097" style="stop-color:#140500"/>
				<stop  offset="0.4577" style="stop-color:#000000"/>
			</radialGradient>
			<path class="st1" d="M217.65,172.92c-1.73-1.69-3.82-2.52-6.3-2.52h-13.04v4.45h6.1h6.82c1.17,0,2.2,0.45,2.94,1.21
				c0.02,0.02,0.03,0.04,0.06,0.06c0.07,0.07,0.13,0.15,0.2,0.22c0.04,0.05,0.07,0.1,0.12,0.16c0.04,0.06,0.08,0.11,0.11,0.17
				c0.06,0.09,0.11,0.18,0.16,0.27c0.01,0.03,0.03,0.05,0.05,0.08c0.32,0.63,0.5,1.37,0.51,2.18c-0.01,0.81-0.18,1.55-0.51,2.18
				c-0.02,0.03-0.03,0.05-0.05,0.08c-0.05,0.09-0.1,0.18-0.16,0.27c-0.03,0.06-0.07,0.11-0.11,0.17c-0.04,0.05-0.07,0.1-0.12,0.15
				c-0.06,0.08-0.13,0.16-0.2,0.23c-0.02,0.02-0.04,0.04-0.06,0.06c-0.74,0.76-1.77,1.21-2.94,1.21h-1.32h-4.95l2.02,4.45l0.13,0.28
				l1.85,4.25l2.44,5.31h5.24l-4.78-9.86c2.2-0.13,4.21-0.96,5.79-2.5c1.74-1.66,2.6-3.7,2.6-6.18c0-0.03-0.01-0.06-0.01-0.1
				c0-0.03,0.01-0.06,0.01-0.1C220.25,176.62,219.39,174.57,217.65,172.92z"/>
			<radialGradient id="SVGID_2_" cx="166.2855" cy="136.4518" r="294.9989" gradientUnits="userSpaceOnUse">
				<stop  offset="0" style="stop-color:#FFE500"/>
				<stop  offset="0.0245" style="stop-color:#F0CC00"/>
				<stop  offset="0.0933" style="stop-color:#BB8F00"/>
				<stop  offset="0.1617" style="stop-color:#8E6000"/>
				<stop  offset="0.2281" style="stop-color:#683D00"/>
				<stop  offset="0.2921" style="stop-color:#4B2500"/>
				<stop  offset="0.3531" style="stop-color:#341300"/>
				<stop  offset="0.4097" style="stop-color:#140500"/>
				<stop  offset="0.4577" style="stop-color:#000000"/>
			</radialGradient>
			<polygon class="st2" points="43.06,188.72 35.11,170.4 29.87,170.4 43.06,199.02 56.29,170.4 51.05,170.4 			"/>
			<radialGradient id="SVGID_3_" cx="166.2855" cy="136.4518" r="294.9989" gradientUnits="userSpaceOnUse">
				<stop  offset="0" style="stop-color:#FFE500"/>
				<stop  offset="0.0245" style="stop-color:#F0CC00"/>
				<stop  offset="0.0933" style="stop-color:#BB8F00"/>
				<stop  offset="0.1617" style="stop-color:#8E6000"/>
				<stop  offset="0.2281" style="stop-color:#683D00"/>
				<stop  offset="0.2921" style="stop-color:#4B2500"/>
				<stop  offset="0.3531" style="stop-color:#341300"/>
				<stop  offset="0.4097" style="stop-color:#140500"/>
				<stop  offset="0.4577" style="stop-color:#000000"/>
			</radialGradient>
			<polygon class="st3" points="72.14,197.84 77.34,197.84 79.78,192.52 81.63,188.27 85.69,179.34 89.74,188.27 91.59,192.52 
				94.03,197.84 99.27,197.84 85.73,169.06 			"/>
			<radialGradient id="SVGID_4_" cx="167.1451" cy="136.4518" r="294.9989" gradientUnits="userSpaceOnUse">
				<stop  offset="0" style="stop-color:#FFE500"/>
				<stop  offset="0.0245" style="stop-color:#F0CC00"/>
				<stop  offset="0.0933" style="stop-color:#BB8F00"/>
				<stop  offset="0.1617" style="stop-color:#8E6000"/>
				<stop  offset="0.2281" style="stop-color:#683D00"/>
				<stop  offset="0.2921" style="stop-color:#4B2500"/>
				<stop  offset="0.3531" style="stop-color:#341300"/>
				<stop  offset="0.4097" style="stop-color:#140500"/>
				<stop  offset="0.4577" style="stop-color:#000000"/>
			</radialGradient>
			<polygon class="st4" points="280.59,169.06 267,197.84 272.2,197.84 274.64,192.52 276.49,188.27 280.55,179.34 284.6,188.27 
				286.45,192.52 288.89,197.84 294.13,197.84 			"/>
			<radialGradient id="SVGID_5_" cx="166.2855" cy="136.4518" r="294.9989" gradientUnits="userSpaceOnUse">
				<stop  offset="0" style="stop-color:#FFE500"/>
				<stop  offset="0.0245" style="stop-color:#F0CC00"/>
				<stop  offset="0.0933" style="stop-color:#BB8F00"/>
				<stop  offset="0.1617" style="stop-color:#8E6000"/>
				<stop  offset="0.2281" style="stop-color:#683D00"/>
				<stop  offset="0.2921" style="stop-color:#4B2500"/>
				<stop  offset="0.3531" style="stop-color:#341300"/>
				<stop  offset="0.4097" style="stop-color:#140500"/>
				<stop  offset="0.4577" style="stop-color:#000000"/>
			</radialGradient>
			<polygon class="st5" points="122.45,170.4 117.68,170.4 117.68,197.84 135.59,197.84 135.59,193.39 122.45,193.39 			"/>
			<radialGradient id="SVGID_6_" cx="167.1451" cy="136.4518" r="294.9989" gradientUnits="userSpaceOnUse">
				<stop  offset="0" style="stop-color:#FFE500"/>
				<stop  offset="0.0245" style="stop-color:#F0CC00"/>
				<stop  offset="0.0933" style="stop-color:#BB8F00"/>
				<stop  offset="0.1617" style="stop-color:#8E6000"/>
				<stop  offset="0.2281" style="stop-color:#683D00"/>
				<stop  offset="0.2921" style="stop-color:#4B2500"/>
				<stop  offset="0.3531" style="stop-color:#341300"/>
				<stop  offset="0.4097" style="stop-color:#140500"/>
				<stop  offset="0.4577" style="stop-color:#000000"/>
			</radialGradient>
			<rect x="241.11" y="170.4" class="st6" width="4.92" height="27.44"/>
			<g>
				<g>
					<radialGradient id="SVGID_7_" cx="166.7052" cy="136.4518" r="295.8594" gradientUnits="userSpaceOnUse">
						<stop  offset="0" style="stop-color:#FFE500"/>
						<stop  offset="0.0245" style="stop-color:#F0CC00"/>
						<stop  offset="0.0933" style="stop-color:#BB8F00"/>
						<stop  offset="0.1617" style="stop-color:#8E6000"/>
						<stop  offset="0.2281" style="stop-color:#683D00"/>
						<stop  offset="0.2921" style="stop-color:#4B2500"/>
						<stop  offset="0.3531" style="stop-color:#341300"/>
						<stop  offset="0.4097" style="stop-color:#140500"/>
						<stop  offset="0.4577" style="stop-color:#000000"/>
					</radialGradient>
					<rect x="156.56" y="170.4" class="st7" width="20.78" height="4.32"/>
					<radialGradient id="SVGID_8_" cx="166.7052" cy="136.4518" r="295.3478" gradientUnits="userSpaceOnUse">
						<stop  offset="0" style="stop-color:#FFE500"/>
						<stop  offset="0.0245" style="stop-color:#F0CC00"/>
						<stop  offset="0.0933" style="stop-color:#BB8F00"/>
						<stop  offset="0.1617" style="stop-color:#8E6000"/>
						<stop  offset="0.2281" style="stop-color:#683D00"/>
						<stop  offset="0.2921" style="stop-color:#4B2500"/>
						<stop  offset="0.3531" style="stop-color:#341300"/>
						<stop  offset="0.4097" style="stop-color:#140500"/>
						<stop  offset="0.4577" style="stop-color:#000000"/>
					</radialGradient>
					<rect x="156.56" y="193.42" class="st8" width="20.78" height="4.42"/>
					<radialGradient id="SVGID_9_" cx="167.022" cy="136.4518" r="285.0546" gradientUnits="userSpaceOnUse">
						<stop  offset="0" style="stop-color:#FFE500"/>
						<stop  offset="0.0245" style="stop-color:#F0CC00"/>
						<stop  offset="0.0933" style="stop-color:#BB8F00"/>
						<stop  offset="0.1617" style="stop-color:#8E6000"/>
						<stop  offset="0.2281" style="stop-color:#683D00"/>
						<stop  offset="0.2921" style="stop-color:#4B2500"/>
						<stop  offset="0.3531" style="stop-color:#341300"/>
						<stop  offset="0.4097" style="stop-color:#140500"/>
						<stop  offset="0.4577" style="stop-color:#000000"/>
					</radialGradient>
					<line class="st9" x1="167.02" y1="174.72" x2="167.02" y2="170.4"/>
				</g>
				<radialGradient id="SVGID_10_" cx="166.7052" cy="136.4518" r="295.52" gradientUnits="userSpaceOnUse">
					<stop  offset="0" style="stop-color:#FFE500"/>
					<stop  offset="0.0245" style="stop-color:#F0CC00"/>
					<stop  offset="0.0933" style="stop-color:#BB8F00"/>
					<stop  offset="0.1617" style="stop-color:#8E6000"/>
					<stop  offset="0.2281" style="stop-color:#683D00"/>
					<stop  offset="0.2921" style="stop-color:#4B2500"/>
					<stop  offset="0.3531" style="stop-color:#341300"/>
					<stop  offset="0.4097" style="stop-color:#140500"/>
					<stop  offset="0.4577" style="stop-color:#000000"/>
				</radialGradient>
				<rect x="156.56" y="181.91" class="st10" width="20.78" height="4.42"/>
			</g>
		</g>
		<g>
			<radialGradient id="SVGID_11_" cx="167.228" cy="151.4975" r="103.919" gradientUnits="userSpaceOnUse">
				<stop  offset="0" style="stop-color:#FFE500"/>
				<stop  offset="0.0245" style="stop-color:#F0CC00"/>
				<stop  offset="0.0933" style="stop-color:#BB8F00"/>
				<stop  offset="0.1617" style="stop-color:#8E6000"/>
				<stop  offset="0.2281" style="stop-color:#683D00"/>
				<stop  offset="0.2921" style="stop-color:#4B2500"/>
				<stop  offset="0.3531" style="stop-color:#341300"/>
				<stop  offset="0.4097" style="stop-color:#140500"/>
				<stop  offset="0.4577" style="stop-color:#000000"/>
			</radialGradient>
			<path class="st11" d="M112.26,73.13C112.26,73.13,112.27,73.13,112.26,73.13c0.49,0,0.87-0.4,0.86-0.87l-0.01-1.36
				c0-0.48-0.39-0.86-0.86-0.86c-0.48,0-0.86,0.39-0.86,0.86l0.01,1.38C111.4,72.75,111.79,73.13,112.26,73.13z"/>
			<radialGradient id="SVGID_12_" cx="167.228" cy="151.4975" r="103.919" gradientUnits="userSpaceOnUse">
				<stop  offset="0" style="stop-color:#FFE500"/>
				<stop  offset="0.0245" style="stop-color:#F0CC00"/>
				<stop  offset="0.0933" style="stop-color:#BB8F00"/>
				<stop  offset="0.1617" style="stop-color:#8E6000"/>
				<stop  offset="0.2281" style="stop-color:#683D00"/>
				<stop  offset="0.2921" style="stop-color:#4B2500"/>
				<stop  offset="0.3531" style="stop-color:#341300"/>
				<stop  offset="0.4097" style="stop-color:#140500"/>
				<stop  offset="0.4577" style="stop-color:#000000"/>
			</radialGradient>
			<path class="st12" d="M235.21,70.07c0,0.65-0.01,1.27-0.03,1.88c-0.02,0.48,0.36,0.88,0.83,0.9c0.01,0,0.02,0,0.03,0
				c0.46,0,0.85-0.37,0.86-0.83c0.02-0.63,0.03-1.28,0.03-1.94c0-0.48-0.39-0.86-0.86-0.86S235.21,69.6,235.21,70.07z"/>
			<radialGradient id="SVGID_13_" cx="167.228" cy="151.4975" r="103.919" gradientUnits="userSpaceOnUse">
				<stop  offset="0" style="stop-color:#FFE500"/>
				<stop  offset="0.0245" style="stop-color:#F0CC00"/>
				<stop  offset="0.0933" style="stop-color:#BB8F00"/>
				<stop  offset="0.1617" style="stop-color:#8E6000"/>
				<stop  offset="0.2281" style="stop-color:#683D00"/>
				<stop  offset="0.2921" style="stop-color:#4B2500"/>
				<stop  offset="0.3531" style="stop-color:#341300"/>
				<stop  offset="0.4097" style="stop-color:#140500"/>
				<stop  offset="0.4577" style="stop-color:#000000"/>
			</radialGradient>
			<path class="st13" d="M80.46,50.26c0.48-0.03,0.84-0.44,0.81-0.91c-0.07-1.26-0.11-2.55-0.11-3.89c0-0.48-0.39-0.86-0.86-0.86
				c-0.48,0-0.86,0.39-0.86,0.86c0,1.37,0.04,2.7,0.11,3.99c0.03,0.46,0.41,0.81,0.86,0.81C80.43,50.26,80.44,50.26,80.46,50.26z"/>
			<radialGradient id="SVGID_14_" cx="167.228" cy="151.4975" r="103.919" gradientUnits="userSpaceOnUse">
				<stop  offset="0" style="stop-color:#FFE500"/>
				<stop  offset="0.0245" style="stop-color:#F0CC00"/>
				<stop  offset="0.0933" style="stop-color:#BB8F00"/>
				<stop  offset="0.1617" style="stop-color:#8E6000"/>
				<stop  offset="0.2281" style="stop-color:#683D00"/>
				<stop  offset="0.2921" style="stop-color:#4B2500"/>
				<stop  offset="0.3531" style="stop-color:#341300"/>
				<stop  offset="0.4097" style="stop-color:#140500"/>
				<stop  offset="0.4577" style="stop-color:#000000"/>
			</radialGradient>
			<path class="st14" d="M81.04,55.28c0.47-0.07,0.8-0.51,0.73-0.98c-0.06-0.39-0.11-0.79-0.16-1.19c-0.06-0.47-0.48-0.82-0.96-0.75
				c-0.48,0.06-0.81,0.49-0.75,0.96c0.05,0.41,0.11,0.83,0.17,1.23c0.06,0.43,0.43,0.74,0.86,0.74C80.96,55.28,81,55.28,81.04,55.28
				z"/>
			<radialGradient id="SVGID_15_" cx="167.228" cy="151.4975" r="103.919" gradientUnits="userSpaceOnUse">
				<stop  offset="0" style="stop-color:#FFE500"/>
				<stop  offset="0.0245" style="stop-color:#F0CC00"/>
				<stop  offset="0.0933" style="stop-color:#BB8F00"/>
				<stop  offset="0.1617" style="stop-color:#8E6000"/>
				<stop  offset="0.2281" style="stop-color:#683D00"/>
				<stop  offset="0.2921" style="stop-color:#4B2500"/>
				<stop  offset="0.3531" style="stop-color:#341300"/>
				<stop  offset="0.4097" style="stop-color:#140500"/>
				<stop  offset="0.4577" style="stop-color:#000000"/>
			</radialGradient>
			<path class="st15" d="M82.6,58.59c-0.11-0.46-0.56-0.75-1.04-0.64c-0.47,0.11-0.75,0.58-0.64,1.04
				c2.13,8.94,6.52,16.26,13.43,22.38c0.17,0.15,0.37,0.22,0.57,0.22c0.24,0,0.48-0.1,0.65-0.29c0.32-0.36,0.28-0.9-0.07-1.22
				C88.85,74.2,84.64,67.17,82.6,58.59z"/>
			<radialGradient id="SVGID_16_" cx="167.228" cy="151.4975" r="103.919" gradientUnits="userSpaceOnUse">
				<stop  offset="0" style="stop-color:#FFE500"/>
				<stop  offset="0.0245" style="stop-color:#F0CC00"/>
				<stop  offset="0.0933" style="stop-color:#BB8F00"/>
				<stop  offset="0.1617" style="stop-color:#8E6000"/>
				<stop  offset="0.2281" style="stop-color:#683D00"/>
				<stop  offset="0.2921" style="stop-color:#4B2500"/>
				<stop  offset="0.3531" style="stop-color:#341300"/>
				<stop  offset="0.4097" style="stop-color:#140500"/>
				<stop  offset="0.4577" style="stop-color:#000000"/>
			</radialGradient>
			<path class="st16" d="M223.33,84.18l-0.53,0.2c-0.45,0.17-0.67,0.67-0.5,1.12c0.13,0.34,0.46,0.55,0.81,0.55
				c0.1,0,0.21-0.02,0.31-0.06l0.53-0.2c0.45-0.17,0.67-0.67,0.5-1.12C224.27,84.23,223.77,84.01,223.33,84.18z"/>
			<radialGradient id="SVGID_17_" cx="167.228" cy="151.4975" r="103.919" gradientUnits="userSpaceOnUse">
				<stop  offset="0" style="stop-color:#FFE500"/>
				<stop  offset="0.0245" style="stop-color:#F0CC00"/>
				<stop  offset="0.0933" style="stop-color:#BB8F00"/>
				<stop  offset="0.1617" style="stop-color:#8E6000"/>
				<stop  offset="0.2281" style="stop-color:#683D00"/>
				<stop  offset="0.2921" style="stop-color:#4B2500"/>
				<stop  offset="0.3531" style="stop-color:#341300"/>
				<stop  offset="0.4097" style="stop-color:#140500"/>
				<stop  offset="0.4577" style="stop-color:#000000"/>
			</radialGradient>
			<path class="st17" d="M247.45,73.42c-3.15,2.27-7.11,4.15-11.47,5.93c0.24-1.08,0.46-2.21,0.62-3.43
				c0.06-0.47-0.27-0.91-0.75-0.97c-0.45-0.06-0.91,0.27-0.97,0.75c-0.21,1.61-0.52,3.07-0.88,4.44c-1.96,0.77-3.98,1.53-6.04,2.29
				l-0.96,0.36c-0.45,0.17-0.68,0.67-0.51,1.11c0.13,0.35,0.46,0.56,0.81,0.56c0.1,0,0.2-0.02,0.3-0.05l0.96-0.36
				c1.62-0.6,3.22-1.2,4.78-1.81c-3.38,9.55-10.89,12.71-20,16.51c-8.67,3.61-18.27,7.63-26.78,17.81l4.16-7.19
				c6.78-11.72,18.66-17.74,29.39-22.08c0.44-0.18,0.66-0.68,0.48-1.12c-0.18-0.44-0.68-0.66-1.12-0.48
				c-8.75,3.54-18.25,8.19-25.32,16.07l1.99-3.44c5.69-9.84,11.91-14.23,17.39-18.11c3.97-2.81,7.72-5.46,10.63-9.74
				c0.27-0.39,0.17-0.93-0.23-1.2c-0.39-0.27-0.93-0.17-1.2,0.23c-2.73,4.02-6.19,6.47-10.2,9.3c-3.85,2.72-8.05,5.74-12.21,10.6
				l3.15-5.45c7.87-13.61,16.13-20.34,23.51-24.93c-0.63,2.8-1.45,5.27-2.47,7.38c-0.21,0.43-0.03,0.95,0.4,1.15
				c0.12,0.06,0.25,0.09,0.38,0.09c0.32,0,0.63-0.18,0.78-0.49c1.28-2.63,2.25-5.74,2.94-9.36c1.53-0.9,3.02-1.73,4.45-2.52
				c6.14-3.4,11.44-6.34,14.61-12.32c0.22-0.42,0.06-0.95-0.36-1.17c-0.42-0.22-0.95-0.07-1.17,0.36
				c-2.93,5.54-7.78,8.22-13.92,11.62c-1.05,0.58-2.13,1.18-3.23,1.81c0.4-2.64,0.67-5.54,0.8-8.71c0.02-0.48-0.35-0.88-0.83-0.9
				c-0.52-0.05-0.88,0.35-0.9,0.83c-0.16,3.69-0.5,6.97-1.02,9.91c-7.06,4.21-15,10.16-22.72,21.95c2.71-8.3-0.2-13.46-3.73-19.66
				c-2.59-4.56-5.53-9.72-6.82-17.29c-0.08-0.47-0.51-0.8-1-0.71c-0.47,0.08-0.79,0.53-0.71,1c1.34,7.87,4.35,13.18,7.02,17.86
				c4.29,7.54,7.39,12.99,0.62,24.75l-11.27,19.51c5.15-13.61,1.35-20.03-2.93-27.22c-1.05-1.76-2.13-3.57-3.09-5.54
				c-0.21-0.43-0.73-0.61-1.16-0.4c-0.43,0.21-0.61,0.73-0.4,1.16c0.99,2.04,2.09,3.88,3.16,5.67c5.07,8.5,9.45,15.85-2.67,37.04
				l-14.72,25.36l-14.72-25.44c-10.99-19.01-4.14-28.03,3.79-38.47c5.01-6.59,10.19-13.4,11.49-23.34c0.06-0.48-0.27-0.91-0.74-0.97
				c-0.51-0.06-0.91,0.27-0.97,0.74c-1.24,9.49-6.28,16.12-11.15,22.52c-6.67,8.77-12.98,17.16-8.07,31.41l-7.6-13.15
				c-11.09-19.18-7.47-27.31-2.88-37.61l0.35-0.78c0.19-0.44,0-0.95-0.44-1.14c-0.43-0.19-0.95,0-1.14,0.44l-0.35,0.78
				c-3.7,8.31-6.98,15.71-2.11,28.68c-8.85-14.73-17.29-22.57-24.15-28.92c-2.68-2.48-5-4.63-7.01-6.88
				c-0.32-0.35-0.87-0.38-1.22-0.07c-0.36,0.32-0.39,0.86-0.07,1.22c2.07,2.31,4.53,4.59,7.13,7c7.14,6.61,16.03,14.85,25.27,30.95
				l5.98,10.35c-6.13-6.93-13.67-11.17-20.53-14.98c-1.49-0.83-2.93-1.64-4.33-2.46c-0.14-1.38-0.25-2.81-0.32-4.31
				c-0.02-0.48-0.32-0.81-0.9-0.82c-0.48,0.02-0.84,0.43-0.82,0.9c0.05,1.1,0.15,2.12,0.23,3.16c-6.04-3.7-10.73-7.71-11.99-14.23
				c-0.09-0.47-0.53-0.76-1.01-0.69c-0.47,0.09-0.78,0.55-0.69,1.01c1.48,7.6,6.96,11.94,13.88,16.03
				c0.43,3.93,1.16,7.38,2.17,10.47c-5.46-2.58-10.84-5.44-15.64-9.1c-0.38-0.29-0.92-0.22-1.21,0.16
				c-0.29,0.38-0.22,0.92,0.16,1.21c5.39,4.11,11.43,7.21,17.52,10.03c1.7,4.22,4.01,7.69,7.09,10.57c0.17,0.15,0.38,0.23,0.59,0.23
				c0.23,0,0.46-0.09,0.63-0.27c0.33-0.35,0.31-0.9-0.04-1.22c-2.46-2.3-4.41-5.02-5.93-8.24c1.17,0.53,2.33,1.05,3.49,1.57
				c10.67,4.76,20.74,9.25,25.4,17.07l7.65,13.47c-6.71-8.44-14.03-12.9-20.65-16.93c-2.32-1.41-4.51-2.74-6.51-4.16
				c-0.39-0.27-0.93-0.18-1.21,0.21c-0.28,0.39-0.18,0.93,0.21,1.21c2.05,1.45,4.27,2.8,6.61,4.22c8.19,4.98,17.47,10.62,25.2,23.86
				l9.57,16.54l14.86-25.69c9.52-16.59,21.54-21.6,32.14-26.01c9.61-4,18.07-7.53,21.44-18.93c4.92-1.96,9.43-4.02,13-6.59
				c0.39-0.28,0.48-0.82,0.2-1.21C248.38,73.23,247.83,73.15,247.45,73.42z M121.46,94.97c-1.72-0.77-3.46-1.55-5.2-2.35
				c-1.14-3.01-1.94-6.46-2.45-10.38c1.05,0.6,2.12,1.19,3.22,1.8c8.71,4.84,18.58,10.33,24.94,21.31l1.05,1.82
				C137.52,102.13,129.66,98.63,121.46,94.97z"/>
			<radialGradient id="SVGID_18_" cx="167.228" cy="151.4975" r="103.919" gradientUnits="userSpaceOnUse">
				<stop  offset="0" style="stop-color:#FFE500"/>
				<stop  offset="0.0245" style="stop-color:#F0CC00"/>
				<stop  offset="0.0933" style="stop-color:#BB8F00"/>
				<stop  offset="0.1617" style="stop-color:#8E6000"/>
				<stop  offset="0.2281" style="stop-color:#683D00"/>
				<stop  offset="0.2921" style="stop-color:#4B2500"/>
				<stop  offset="0.3531" style="stop-color:#341300"/>
				<stop  offset="0.4097" style="stop-color:#140500"/>
				<stop  offset="0.4577" style="stop-color:#000000"/>
			</radialGradient>
			<path class="st18" d="M255.75,62.49c-0.5-0.1-0.93,0.2-1.03,0.67c-0.66,3.1-2.2,5.76-4.71,8.15c-0.35,0.33-0.36,0.88-0.03,1.22
				c0.17,0.18,0.4,0.27,0.63,0.27c0.21,0,0.43-0.08,0.6-0.24c2.77-2.64,4.48-5.6,5.21-9.04C256.52,63.05,256.22,62.59,255.75,62.49z
				"/>
			<radialGradient id="SVGID_19_" cx="167.228" cy="151.4975" r="103.919" gradientUnits="userSpaceOnUse">
				<stop  offset="0" style="stop-color:#FFE500"/>
				<stop  offset="0.0245" style="stop-color:#F0CC00"/>
				<stop  offset="0.0933" style="stop-color:#BB8F00"/>
				<stop  offset="0.1617" style="stop-color:#8E6000"/>
				<stop  offset="0.2281" style="stop-color:#683D00"/>
				<stop  offset="0.2921" style="stop-color:#4B2500"/>
				<stop  offset="0.3531" style="stop-color:#341300"/>
				<stop  offset="0.4097" style="stop-color:#140500"/>
				<stop  offset="0.4577" style="stop-color:#000000"/>
			</radialGradient>
			<path class="st19" d="M255.96,58.66c-0.48,0-0.86,0.39-0.86,0.86l-0.01,0.58c-0.02,0.48,0.35,0.88,0.83,0.9c0.01,0,0.02,0,0.03,0
				c0.46,0,0.85-0.37,0.86-0.83c0.01-0.21,0.01-0.42,0.01-0.64C256.82,59.04,256.43,58.66,255.96,58.66z"/>
			<radialGradient id="SVGID_20_" cx="167.228" cy="151.4975" r="103.919" gradientUnits="userSpaceOnUse">
				<stop  offset="0" style="stop-color:#FFE500"/>
				<stop  offset="0.0245" style="stop-color:#F0CC00"/>
				<stop  offset="0.0933" style="stop-color:#BB8F00"/>
				<stop  offset="0.1617" style="stop-color:#8E6000"/>
				<stop  offset="0.2281" style="stop-color:#683D00"/>
				<stop  offset="0.2921" style="stop-color:#4B2500"/>
				<stop  offset="0.3531" style="stop-color:#341300"/>
				<stop  offset="0.4097" style="stop-color:#140500"/>
				<stop  offset="0.4577" style="stop-color:#000000"/>
			</radialGradient>
			<path class="st20" d="M97.66,60.97l0,0.48c0.01,0.47,0.39,0.85,0.86,0.85c0,0,0.01,0,0.01,0c0.48-0.01,0.86-0.4,0.85-0.88l0-0.46
				c0-0.48-0.39-0.86-0.86-0.86C98.05,60.11,97.66,60.5,97.66,60.97z"/>
			<radialGradient id="SVGID_21_" cx="167.228" cy="151.4975" r="103.919" gradientUnits="userSpaceOnUse">
				<stop  offset="0" style="stop-color:#FFE500"/>
				<stop  offset="0.0245" style="stop-color:#F0CC00"/>
				<stop  offset="0.0933" style="stop-color:#BB8F00"/>
				<stop  offset="0.1617" style="stop-color:#8E6000"/>
				<stop  offset="0.2281" style="stop-color:#683D00"/>
				<stop  offset="0.2921" style="stop-color:#4B2500"/>
				<stop  offset="0.3531" style="stop-color:#341300"/>
				<stop  offset="0.4097" style="stop-color:#140500"/>
				<stop  offset="0.4577" style="stop-color:#000000"/>
			</radialGradient>
			<path class="st21" d="M229.43,43.41C229.43,43.41,229.44,43.41,229.43,43.41c0.48,0,0.87-0.38,0.87-0.86l0-0.96
				c0-0.48-0.39-0.86-0.86-0.86s-0.86,0.39-0.86,0.86l0,0.95C228.57,43.02,228.95,43.41,229.43,43.41z"/>
			<radialGradient id="SVGID_22_" cx="167.228" cy="151.4975" r="103.919" gradientUnits="userSpaceOnUse">
				<stop  offset="0" style="stop-color:#FFE500"/>
				<stop  offset="0.0245" style="stop-color:#F0CC00"/>
				<stop  offset="0.0933" style="stop-color:#BB8F00"/>
				<stop  offset="0.1617" style="stop-color:#8E6000"/>
				<stop  offset="0.2281" style="stop-color:#683D00"/>
				<stop  offset="0.2921" style="stop-color:#4B2500"/>
				<stop  offset="0.3531" style="stop-color:#341300"/>
				<stop  offset="0.4097" style="stop-color:#140500"/>
				<stop  offset="0.4577" style="stop-color:#000000"/>
			</radialGradient>
			<path class="st22" d="M93.01,29.06C93.01,29.06,93.01,29.06,93.01,29.06c0.49,0,0.87-0.4,0.86-0.87l0-0.69
				c0-0.48-0.39-0.86-0.86-0.86s-0.86,0.39-0.86,0.86l0,0.71C92.15,28.68,92.54,29.06,93.01,29.06z"/>
			<radialGradient id="SVGID_23_" cx="167.228" cy="151.4975" r="103.919" gradientUnits="userSpaceOnUse">
				<stop  offset="0" style="stop-color:#FFE500"/>
				<stop  offset="0.0245" style="stop-color:#F0CC00"/>
				<stop  offset="0.0933" style="stop-color:#BB8F00"/>
				<stop  offset="0.1617" style="stop-color:#8E6000"/>
				<stop  offset="0.2281" style="stop-color:#683D00"/>
				<stop  offset="0.2921" style="stop-color:#4B2500"/>
				<stop  offset="0.3531" style="stop-color:#341300"/>
				<stop  offset="0.4097" style="stop-color:#140500"/>
				<stop  offset="0.4577" style="stop-color:#000000"/>
			</radialGradient>
			<path class="st23" d="M93.09,30.62c-0.48,0.04-0.83,0.46-0.78,0.94c0.04,0.47,0.09,0.93,0.14,1.38c0.06,0.44,0.43,0.76,0.86,0.76
				c0.04,0,0.07,0,0.11,0c0.47-0.06,0.81-0.49,0.75-0.97c-0.06-0.43-0.1-0.87-0.14-1.31C93.99,30.94,93.63,30.58,93.09,30.62z"/>
			<radialGradient id="SVGID_24_" cx="167.228" cy="151.4975" r="103.919" gradientUnits="userSpaceOnUse">
				<stop  offset="0" style="stop-color:#FFE500"/>
				<stop  offset="0.0245" style="stop-color:#F0CC00"/>
				<stop  offset="0.0933" style="stop-color:#BB8F00"/>
				<stop  offset="0.1617" style="stop-color:#8E6000"/>
				<stop  offset="0.2281" style="stop-color:#683D00"/>
				<stop  offset="0.2921" style="stop-color:#4B2500"/>
				<stop  offset="0.3531" style="stop-color:#341300"/>
				<stop  offset="0.4097" style="stop-color:#140500"/>
				<stop  offset="0.4577" style="stop-color:#000000"/>
			</radialGradient>
			<path class="st24" d="M93.41,37.71c0.85,2.99,2.18,5.72,4.06,8.34c0.17,0.23,0.43,0.36,0.7,0.36c0.17,0,0.35-0.05,0.5-0.16
				c0.39-0.28,0.48-0.82,0.2-1.21c-1.78-2.49-2.99-4.97-3.8-7.81c-0.13-0.46-0.6-0.72-1.07-0.6C93.55,36.77,93.28,37.25,93.41,37.71
				z"/>
			<radialGradient id="SVGID_25_" cx="167.228" cy="151.4975" r="103.919" gradientUnits="userSpaceOnUse">
				<stop  offset="0" style="stop-color:#FFE500"/>
				<stop  offset="0.0245" style="stop-color:#F0CC00"/>
				<stop  offset="0.0933" style="stop-color:#BB8F00"/>
				<stop  offset="0.1617" style="stop-color:#8E6000"/>
				<stop  offset="0.2281" style="stop-color:#683D00"/>
				<stop  offset="0.2921" style="stop-color:#4B2500"/>
				<stop  offset="0.3531" style="stop-color:#341300"/>
				<stop  offset="0.4097" style="stop-color:#140500"/>
				<stop  offset="0.4577" style="stop-color:#000000"/>
			</radialGradient>
			<path class="st25" d="M249.23,37.6c-0.46-0.14-0.94,0.13-1.08,0.58L248,38.69c-0.15,0.45,0.1,0.94,0.56,1.09
				c0.09,0.03,0.18,0.04,0.26,0.04c0.37,0,0.71-0.23,0.82-0.6l0.17-0.55C249.95,38.22,249.69,37.74,249.23,37.6z"/>
			<radialGradient id="SVGID_26_" cx="167.228" cy="151.4975" r="103.919" gradientUnits="userSpaceOnUse">
				<stop  offset="0" style="stop-color:#FFE500"/>
				<stop  offset="0.0245" style="stop-color:#F0CC00"/>
				<stop  offset="0.0933" style="stop-color:#BB8F00"/>
				<stop  offset="0.1617" style="stop-color:#8E6000"/>
				<stop  offset="0.2281" style="stop-color:#683D00"/>
				<stop  offset="0.2921" style="stop-color:#4B2500"/>
				<stop  offset="0.3531" style="stop-color:#341300"/>
				<stop  offset="0.4097" style="stop-color:#140500"/>
				<stop  offset="0.4577" style="stop-color:#000000"/>
			</radialGradient>
			<path class="st26" d="M249.65,35.77c0.04,0.01,0.08,0.01,0.13,0.01c0.42,0,0.81-0.36,0.88-0.78l0.07-0.46
				c0.07-0.47-0.26-0.91-0.73-0.98c-0.49-0.05-0.91,0.26-0.98,0.73l-0.09,0.56C248.85,35.31,249.18,35.69,249.65,35.77z"/>
			<radialGradient id="SVGID_27_" cx="167.228" cy="151.4975" r="103.919" gradientUnits="userSpaceOnUse">
				<stop  offset="0" style="stop-color:#FFE500"/>
				<stop  offset="0.0245" style="stop-color:#F0CC00"/>
				<stop  offset="0.0933" style="stop-color:#BB8F00"/>
				<stop  offset="0.1617" style="stop-color:#8E6000"/>
				<stop  offset="0.2281" style="stop-color:#683D00"/>
				<stop  offset="0.2921" style="stop-color:#4B2500"/>
				<stop  offset="0.3531" style="stop-color:#341300"/>
				<stop  offset="0.4097" style="stop-color:#140500"/>
				<stop  offset="0.4577" style="stop-color:#000000"/>
			</radialGradient>
			<path class="st27" d="M250.22,31.7c0.02,0,0.04,0,0.06,0c0.45,0,0.83-0.35,0.86-0.8c0.1-1.38,0.15-2.85,0.15-4.37
				c0-0.48-0.39-0.86-0.86-0.86c-0.48,0-0.86,0.39-0.86,0.86c0,1.48-0.05,2.9-0.14,4.24C249.39,31.26,249.75,31.67,250.22,31.7z"/>
			<radialGradient id="SVGID_28_" cx="167.228" cy="151.4975" r="103.919" gradientUnits="userSpaceOnUse">
				<stop  offset="0" style="stop-color:#FFE500"/>
				<stop  offset="0.0245" style="stop-color:#F0CC00"/>
				<stop  offset="0.0933" style="stop-color:#BB8F00"/>
				<stop  offset="0.1617" style="stop-color:#8E6000"/>
				<stop  offset="0.2281" style="stop-color:#683D00"/>
				<stop  offset="0.2921" style="stop-color:#4B2500"/>
				<stop  offset="0.3531" style="stop-color:#341300"/>
				<stop  offset="0.4097" style="stop-color:#140500"/>
				<stop  offset="0.4577" style="stop-color:#000000"/>
			</radialGradient>
			<path class="st28" d="M141.42,32.92c0.01,0,0.01,0,0.02,0c0.47,0,0.85-0.37,0.86-0.84c0.01-0.4,0.01-0.8,0.01-1.21
				c0-0.48-0.39-0.86-0.86-0.86c-0.48,0-0.86,0.39-0.86,0.86c0,0.4,0,0.78-0.01,1.17C140.56,32.51,140.94,32.91,141.42,32.92z"/>
			<radialGradient id="SVGID_29_" cx="167.228" cy="151.4975" r="103.919" gradientUnits="userSpaceOnUse">
				<stop  offset="0" style="stop-color:#FFE500"/>
				<stop  offset="0.0245" style="stop-color:#F0CC00"/>
				<stop  offset="0.0933" style="stop-color:#BB8F00"/>
				<stop  offset="0.1617" style="stop-color:#8E6000"/>
				<stop  offset="0.2281" style="stop-color:#683D00"/>
				<stop  offset="0.2921" style="stop-color:#4B2500"/>
				<stop  offset="0.3531" style="stop-color:#341300"/>
				<stop  offset="0.4097" style="stop-color:#140500"/>
				<stop  offset="0.4577" style="stop-color:#000000"/>
			</radialGradient>
			<path class="st29" d="M140.96,38.19c0.04,0,0.07,0,0.1,0c0.43,0,0.81-0.32,0.86-0.76l0.08-0.74c0.05-0.48-0.29-0.9-0.76-0.95
				c-0.45-0.07-0.9,0.29-0.95,0.76l-0.08,0.72C140.14,37.7,140.48,38.13,140.96,38.19z"/>
			<radialGradient id="SVGID_30_" cx="167.228" cy="151.4975" r="103.919" gradientUnits="userSpaceOnUse">
				<stop  offset="0" style="stop-color:#FFE500"/>
				<stop  offset="0.0245" style="stop-color:#F0CC00"/>
				<stop  offset="0.0933" style="stop-color:#BB8F00"/>
				<stop  offset="0.1617" style="stop-color:#8E6000"/>
				<stop  offset="0.2281" style="stop-color:#683D00"/>
				<stop  offset="0.2921" style="stop-color:#4B2500"/>
				<stop  offset="0.3531" style="stop-color:#341300"/>
				<stop  offset="0.4097" style="stop-color:#140500"/>
				<stop  offset="0.4577" style="stop-color:#000000"/>
			</radialGradient>
			<path class="st30" d="M136.86,52.15c0.11,0.05,0.22,0.07,0.33,0.07c0.34,0,0.66-0.2,0.8-0.53c1.09-2.62,2.44-6.2,3.33-10.58
				c0.1-0.47-0.21-0.92-0.68-1.02c-0.48-0.1-0.92,0.21-1.02,0.68c-0.86,4.24-2.18,7.71-3.23,10.26
				C136.21,51.47,136.42,51.97,136.86,52.15z"/>
			<radialGradient id="SVGID_31_" cx="167.228" cy="151.4975" r="103.919" gradientUnits="userSpaceOnUse">
				<stop  offset="0" style="stop-color:#FFE500"/>
				<stop  offset="0.0245" style="stop-color:#F0CC00"/>
				<stop  offset="0.0933" style="stop-color:#BB8F00"/>
				<stop  offset="0.1617" style="stop-color:#8E6000"/>
				<stop  offset="0.2281" style="stop-color:#683D00"/>
				<stop  offset="0.2921" style="stop-color:#4B2500"/>
				<stop  offset="0.3531" style="stop-color:#341300"/>
				<stop  offset="0.4097" style="stop-color:#140500"/>
				<stop  offset="0.4577" style="stop-color:#000000"/>
			</radialGradient>
			<path class="st31" d="M192.73,36.69c-0.48,0.03-0.83,0.45-0.8,0.93l0.06,0.7c0.04,0.45,0.42,0.78,0.86,0.78c0.03,0,0.06,0,0.08,0
				c0.48-0.05,0.82-0.47,0.78-0.95l-0.06-0.66C193.62,37.01,193.18,36.63,192.73,36.69z"/>
			<radialGradient id="SVGID_32_" cx="167.228" cy="151.496" r="103.9177" gradientUnits="userSpaceOnUse">
				<stop  offset="0" style="stop-color:#FFE500"/>
				<stop  offset="0.0245" style="stop-color:#F0CC00"/>
				<stop  offset="0.0933" style="stop-color:#BB8F00"/>
				<stop  offset="0.1617" style="stop-color:#8E6000"/>
				<stop  offset="0.2281" style="stop-color:#683D00"/>
				<stop  offset="0.2921" style="stop-color:#4B2500"/>
				<stop  offset="0.3531" style="stop-color:#341300"/>
				<stop  offset="0.4097" style="stop-color:#140500"/>
				<stop  offset="0.4577" style="stop-color:#000000"/>
			</radialGradient>
			<path class="st32" d="M192.65,34.95C192.65,34.95,192.66,34.95,192.65,34.95c0.49,0,0.87-0.4,0.86-0.87l0-0.62
				c0-0.48-0.39-0.86-0.86-0.86c-0.48,0-0.86,0.39-0.86,0.86l0,0.64C191.79,34.57,192.18,34.95,192.65,34.95z"/>
			<radialGradient id="SVGID_33_" cx="167.228" cy="151.4975" r="103.919" gradientUnits="userSpaceOnUse">
				<stop  offset="0" style="stop-color:#FFE500"/>
				<stop  offset="0.0245" style="stop-color:#F0CC00"/>
				<stop  offset="0.0933" style="stop-color:#BB8F00"/>
				<stop  offset="0.1617" style="stop-color:#8E6000"/>
				<stop  offset="0.2281" style="stop-color:#683D00"/>
				<stop  offset="0.2921" style="stop-color:#4B2500"/>
				<stop  offset="0.3531" style="stop-color:#341300"/>
				<stop  offset="0.4097" style="stop-color:#140500"/>
				<stop  offset="0.4577" style="stop-color:#000000"/>
			</radialGradient>
			<path class="st33" d="M166.99,50.11c0.01,0,0.01,0,0.02,0c0.47,0,0.85-0.37,0.86-0.84c0.01-0.32,0.01-0.65,0.01-0.98
				c0-0.48-0.39-0.86-0.86-0.86c-0.48,0-0.86,0.39-0.86,0.86l-0.01,0.94C166.13,49.7,166.51,50.1,166.99,50.11z"/>
			<radialGradient id="SVGID_34_" cx="167.228" cy="151.4975" r="103.919" gradientUnits="userSpaceOnUse">
				<stop  offset="0" style="stop-color:#FFE500"/>
				<stop  offset="0.0245" style="stop-color:#F0CC00"/>
				<stop  offset="0.0933" style="stop-color:#BB8F00"/>
				<stop  offset="0.1617" style="stop-color:#8E6000"/>
				<stop  offset="0.2281" style="stop-color:#683D00"/>
				<stop  offset="0.2921" style="stop-color:#4B2500"/>
				<stop  offset="0.3531" style="stop-color:#341300"/>
				<stop  offset="0.4097" style="stop-color:#140500"/>
				<stop  offset="0.4577" style="stop-color:#000000"/>
			</radialGradient>
			<path class="st34" d="M179.45,67.75c0.1,0.31,0.21,0.61,0.32,0.9c0.13,0.35,0.46,0.57,0.81,0.57c0.1,0,0.2-0.02,0.3-0.05
				c0.45-0.16,0.68-0.66,0.51-1.11c-0.1-0.28-0.2-0.57-0.3-0.85c-0.15-0.46-0.65-0.7-1.09-0.55
				C179.55,66.81,179.3,67.3,179.45,67.75z"/>
			<radialGradient id="SVGID_35_" cx="167.228" cy="151.4975" r="103.919" gradientUnits="userSpaceOnUse">
				<stop  offset="0" style="stop-color:#FFE500"/>
				<stop  offset="0.0245" style="stop-color:#F0CC00"/>
				<stop  offset="0.0933" style="stop-color:#BB8F00"/>
				<stop  offset="0.1617" style="stop-color:#8E6000"/>
				<stop  offset="0.2281" style="stop-color:#683D00"/>
				<stop  offset="0.2921" style="stop-color:#4B2500"/>
				<stop  offset="0.3531" style="stop-color:#341300"/>
				<stop  offset="0.4097" style="stop-color:#140500"/>
				<stop  offset="0.4577" style="stop-color:#000000"/>
			</radialGradient>
			<path class="st35" d="M179.12,63.74c0.05,0,0.1,0,0.15-0.01c0.47-0.08,0.79-0.53,0.7-1c-0.32-1.84-0.48-3.81-0.48-5.84
				c0-0.48-0.39-0.86-0.86-0.86s-0.86,0.39-0.86,0.86c0,2.13,0.17,4.2,0.51,6.13C178.34,63.45,178.7,63.74,179.12,63.74z"/>
		</g>
	</g>
</g>
</svg>
