<?xml version="1.0" encoding="UTF-8" standalone="no"?>
<svg
   xmlns:dc="http://purl.org/dc/elements/1.1/"
   xmlns:cc="http://creativecommons.org/ns#"
   xmlns:rdf="http://www.w3.org/1999/02/22-rdf-syntax-ns#"
   xmlns:svg="http://www.w3.org/2000/svg"
   xmlns="http://www.w3.org/2000/svg"
   xmlns:sodipodi="http://sodipodi.sourceforge.net/DTD/sodipodi-0.dtd"
   xmlns:inkscape="http://www.inkscape.org/namespaces/inkscape"
   aria-hidden="true"
   focusable="false"
   data-prefix="fas"
   data-icon="chart-line"
   role="img"
   viewBox="0 0 512 384"
   version="1.1"
   id="svg4"
   sodipodi:docname="chart-line-down.svg"
   width="512"
   height="384"
   inkscape:version="0.92.5 (2060ec1f9f, 2020-04-08)">
  <metadata
     id="metadata10">
    <rdf:RDF>
      <cc:Work
         rdf:about="">
        <dc:format>image/svg+xml</dc:format>
        <dc:type
           rdf:resource="http://purl.org/dc/dcmitype/StillImage" />
      </cc:Work>
    </rdf:RDF>
  </metadata>
  <style
     id="style-chart-line-down-logo">
.chart-line-down-logo-fill {
      fill: #000000;
}
  </style>
  <defs
     id="defs8">
    <clipPath
       clipPathUnits="userSpaceOnUse"
       id="clipPath876">
      <path
         inkscape:connector-curvature="0"
         style="fill:currentColor"
         d="m -222.10169,214.77966 h -432 V -89.220339 c 0,-8.84 -7.16,-16.000001 -16,-16.000001 h -32 c -8.84,0 -16,7.160001 -16,16.000001 V 246.77966 c 0,17.67 14.33,32 32,32 h 464 c 8.84,0 16,-7.16 16,-16 v -32 c 0,-8.84 -7.16,-16 -16,-16 z m -32,-287.999999 h -118.06 c -21.38,0 -32.09,25.85 -16.97,40.97 l 32.4,32.40000002 -73.37,73.37999998 -73.37,-73.36999998 c -12.5,-12.50000002 -32.76,-12.50000002 -45.25,0 l -68.69,68.68999998 c -6.25,6.25 -6.25,16.38 0,22.63 l 22.62,22.619999 c 6.25,6.25 16.38,6.25 22.63,0 l 46.06,-46.069999 73.37,73.369999 c 12.5,12.5 32.76,12.5 45.25,0 l 96,-95.999999 32.4,32.4 c 15.12,15.12 40.97,4.41 40.97,-16.97 v -118.05 c 0.01,-8.84 -7.15,-16 -15.99,-16 z"
         id="path878" />
    </clipPath>
    <clipPath
       clipPathUnits="userSpaceOnUse"
       id="clipPath909">
      <g
         id="g915">
        <rect
           y="347.11865"
           x="-170.13832"
           height="384"
           width="725.52814"
           id="rect911"
           style="opacity:1;fill:#000000;fill-opacity:1;stroke:#000000;stroke-width:13.88527584;stroke-miterlimit:4;stroke-dasharray:none" />
        <rect
           y="-266.84744"
           x="-232.13559"
           height="824.4068"
           width="314.57626"
           id="rect913"
           style="opacity:1;fill:#000000;fill-opacity:1;stroke:#000000;stroke-width:11.33858299;stroke-miterlimit:4;stroke-dasharray:none" />
      </g>
    </clipPath>
  </defs>
  <sodipodi:namedview
     pagecolor="#ffffff"
     bordercolor="#666666"
     borderopacity="1"
     objecttolerance="10"
     gridtolerance="10"
     guidetolerance="10"
     inkscape:pageopacity="0"
     inkscape:pageshadow="2"
     inkscape:window-width="1920"
     inkscape:window-height="1163"
     id="namedview6"
     showgrid="false"
     inkscape:zoom="0.4609375"
     inkscape:cx="256"
     inkscape:cy="192"
     inkscape:window-x="1920"
     inkscape:window-y="0"
     inkscape:window-maximized="1"
     inkscape:current-layer="svg4" />
  <path
     d="M 496,384 H 64 V 80 C 64,71.16 56.84,64 48,64 H 16 C 7.16,64 0,71.16 0,80 v 336 c 0,17.67 14.33,32 32,32 h 464 c 8.84,0 16,-7.16 16,-16 v -32 c 0,-8.84 -7.16,-16 -16,-16 z M 464,96 H 345.94 c -21.38,0 -32.09,25.85 -16.97,40.97 l 32.4,32.4 -73.37,73.38 -73.37,-73.37 c -12.5,-12.5 -32.76,-12.5 -45.25,0 l -68.69,68.69 c -6.25,6.25 -6.25,16.38 0,22.63 l 22.62,22.62 c 6.25,6.25 16.38,6.25 22.63,0 l 46.06,-46.07 73.37,73.37 c 12.5,12.5 32.76,12.5 45.25,0 l 96,-96 32.4,32.4 c 15.12,15.12 40.97,4.41 40.97,-16.97 V 112 C 480,103.16 472.84,96 464,96 Z"
     id="path2"
     clip-path="url(#clipPath909)"
     inkscape:connector-curvature="0"
     class="chart-line-down-logo-fill"
     transform="translate(0,-64)" />
  <rect
     style="opacity:1;fill-opacity:1;stroke:#000000;stroke-width:11.33858299;stroke-miterlimit:4;stroke-dasharray:none"
     class="chart-line-down-logo-fill"
     id="rect834"
     width="410.03391"
     height="334.10168"
     x="-631.32202"
     y="-156.20337"
     inkscape:transform-center-x="377.49154"
     inkscape:transform-center-y="-470.77966"
     clip-path="url(#clipPath876)"
     transform="matrix(1,0,0,-1,718.10169,196.01966)" />
</svg>
