<?xml version="1.0" encoding="utf-8"?>
<!-- Generator: Adobe Illustrator 23.0.2, SVG Export Plug-In . SVG Version: 6.00 Build 0)  -->
<svg version="1.1" id="Layer_1" xmlns="http://www.w3.org/2000/svg" xmlns:xlink="http://www.w3.org/1999/xlink" x="0px" y="0px"
	 viewBox="0 0 170.43 70.21" style="enable-background:new 0 0 170.43 70.21;" xml:space="preserve">
<style type="text/css">
	.st0{fill:#FFFFFF;}
</style>
<g>
	<path class="st0" d="M74.85,9.01h1.71v8.51c0,2.2-1.57,4.42-5.1,4.42c-3.19,0-5.1-1.62-5.1-4.34V9.01h1.92v8.35
		c0,2.19,1.06,3.2,3.33,3.2c2.23,0,3.23-1.61,3.23-3.2V9.01z"/>
	<polygon class="st0" points="82.03,9.01 80.38,9.01 80.38,21.7 82.03,21.7 82.03,12 89.62,21.7 91.36,21.7 91.36,9.01 89.71,9.01 
		89.71,18.83 	"/>
	<rect x="95.44" y="9.01" class="st0" width="1.91" height="12.69"/>
	<polygon class="st0" points="100.04,9.01 101.98,9.01 105.11,18.53 108.56,9.01 110.19,9.01 105.35,21.7 104.38,21.7 	"/>
	<polygon class="st0" points="120.33,9.01 120.33,10.35 114.69,10.35 114.69,14.48 119.2,14.48 119.2,15.81 114.69,15.81 
		114.69,20.35 120.33,20.35 120.33,21.7 112.77,21.7 112.77,9.01 	"/>
	<path class="st0" d="M128.74,15.74l0.21-0.06c0.97-0.29,2.39-1.79,2.39-3.48c0-1.54-1.41-3.19-4.51-3.19h-3.47v12.69h1.92V10.2
		h1.38c2.05,0,2.78,1.18,2.78,2.19c0,1.07-0.87,2.57-2.8,2.57h-0.48l4.26,6.73h2.27L128.74,15.74z"/>
	<path class="st0" d="M140.48,18.71c0-1.19-1.13-1.87-2.43-2.66l-0.44-0.27c-1.45-0.88-3-1.98-3-3.78c0-1.85,1.64-3.25,3.81-3.25
		c1.86,0,2.9,0.43,3.37,0.64c-0.04,0.09-0.48,1.14-0.52,1.26c-0.42-0.19-1.31-0.57-2.51-0.57c-1.38,0-2.24,0.6-2.24,1.56
		c0,1.17,0.97,1.77,2.2,2.52l0.56,0.34c0,0,0.08,0.05,0.08,0.05c1.27,0.8,3.18,2.01,3.18,3.76c0,2.16-2.31,3.62-4.48,3.62
		c-2.08,0-3.27-0.58-3.76-0.83c0.04-0.1,0.49-1.1,0.54-1.21c0,0,0.01,0.01,0.01,0.01c0.56,0.25,1.6,0.7,3.25,0.7
		C139.41,20.6,140.48,19.75,140.48,18.71"/>
	<rect x="145.75" y="9.01" class="st0" width="1.9" height="12.69"/>
	<polygon class="st0" points="160.38,9.01 160.38,10.35 156.23,10.35 156.23,21.7 154.31,21.7 154.31,10.35 150.14,10.35 
		150.14,9.01 	"/>
	<polygon class="st0" points="162.87,9.01 162.87,21.7 170.43,21.7 170.43,20.35 164.79,20.35 164.79,15.82 169.3,15.82 
		169.3,14.48 164.79,14.48 164.79,10.35 170.43,10.35 170.43,9.01 	"/>
	<polygon class="st0" points="168.54,4.79 169.29,5.9 166.03,7.68 165.58,6.99 	"/>
	<path class="st0" d="M122.77,26.73v0.13c2.71,1.05,1.22,4.48,0.04,7.45l-5.95,15.04l-8.69-22.62h-5.81v0.13
		c1.7,1.3,2.59,3.86,3.41,5.99l8.28,21.43h4.18l11.05-27.55H122.77z"/>
	<path class="st0" d="M170.43,50.17c-1.6,0.74-3.37,1.08-5.33,1.08h-5.95V26.73h-6.43v0.13c2.02,0.69,1.97,3.84,1.97,5.78l0,21.5
		c-2.14-1.07-3.25-3.55-4.26-5.93l-9.1-21.48h-6.91v0.13c2.07,0.62,1.29,2.39,0.65,3.89l-7.31,17.46c-1,2.38-2.03,4.85-4.25,5.95
		v0.13h5.47l2.81-7.28h13.42l2.9,7.28h22.33V50.17z M132.97,43.91l5.46-13.62l5.55,13.62H132.97z"/>
	<path class="st0" d="M104.8,48.21l-9.1-21.48h-6.91v0.13c2.07,0.62,1.28,2.39,0.65,3.89l0,0l0,0l-7.31,17.46
		c-0.36,0.87-0.73,1.74-1.16,2.56c-1.06,0.31-2.18,0.48-3.37,0.48h-5.95V26.73h-6.43v0.13c2.02,0.69,1.97,3.84,1.97,5.78l0,21.64
		h16.17L86.16,47h13.42h0l2.89,7.28h6.61v-0.13C106.8,52.99,105.81,50.6,104.8,48.21 M87.35,43.91l5.46-13.62l5.55,13.62H87.35z"/>
	<path class="st0" d="M8.99,12.17c-0.16,0.06-0.51,0.09-0.68,0.07c-0.05,0-0.09-0.01-0.12-0.02L8.16,12.2l-0.35-1.7
		c-0.07-0.31-0.32-0.29-0.29,0.06l0.18,1.76c-0.05,0.09-0.31,0.52-0.56,0.52c-0.25,0-0.51-0.43-0.56-0.52l0.18-1.76
		c0.03-0.35-0.23-0.37-0.29-0.06l-0.35,1.7L6.1,12.22c-0.03,0.01-0.08,0.02-0.12,0.02c-0.17,0.02-0.52-0.01-0.68-0.07
		c0.22-0.88,0.73-2.8,0.87-3.42C6.19,8.66,6.13,8.5,5.94,8.49c-0.02,0-0.06,0-0.11,0.02C5.62,8.6,4.99,8.83,4.79,8.9l0.13-1.4
		c0.03-0.35-0.25-0.37-0.31-0.06c-0.28,1.24-0.43,2.92-1.33,3.47c0.07-0.59,0.65-4.99,0.74-5.58c0.02-0.14,0.02-0.24,0.18-0.3
		C4.32,5,4.42,5.05,4.52,5.15c0,0.01,1.47,1.35,1.47,1.35C6.05,6.57,6.15,6.6,6.24,6.58c0.08-0.03,0.15-0.1,0.16-0.19l0.2-1.67
		c0.01-0.06-0.01-0.13-0.06-0.17c-0.04-0.05-0.1-0.08-0.17-0.08H6.15l0.06-0.52c0.17-0.08,0.62-0.28,0.83-0.32c0,0,0.01,0,0.01,0
		c0.01,0,0.09-0.01,0.09-0.01c0.13,0,0.25,0.04,0.33,0.11c0.09,0.07,0.14,0.17,0.15,0.29l0.26,2.37C7.9,6.47,7.96,6.55,8.05,6.58
		C8.14,6.6,8.23,6.57,8.29,6.5c0,0,1.47-1.34,1.47-1.35c0.1-0.1,0.2-0.15,0.31-0.11c0.16,0.05,0.16,0.15,0.18,0.3
		c0.08,0.59,0.67,4.99,0.74,5.58c-0.9-0.55-1.05-2.23-1.33-3.47C9.61,7.13,9.33,7.16,9.36,7.5l0.13,1.4
		C9.29,8.83,8.66,8.6,8.44,8.51C8.4,8.49,8.36,8.49,8.34,8.49C8.15,8.5,8.1,8.66,8.12,8.75C8.26,9.37,8.77,11.29,8.99,12.17"/>
	<path class="st0" d="M18.83,12.17c-0.16,0.06-0.51,0.09-0.68,0.07c-0.05,0-0.09-0.01-0.12-0.02L18,12.2l-0.35-1.7
		c-0.06-0.31-0.32-0.29-0.29,0.06l0.18,1.76c-0.05,0.09-0.31,0.52-0.56,0.52c-0.25,0-0.51-0.43-0.56-0.52l0.18-1.76
		c0.03-0.35-0.23-0.37-0.29-0.06l-0.35,1.7l-0.02,0.02c-0.03,0.01-0.08,0.02-0.12,0.02c-0.17,0.02-0.52-0.01-0.68-0.07
		c0.22-0.88,0.73-2.8,0.87-3.42c0.02-0.09-0.03-0.26-0.22-0.26c-0.02,0-0.06,0-0.11,0.02c-0.22,0.08-0.85,0.32-1.05,0.39l0.13-1.4
		c0.03-0.35-0.25-0.37-0.31-0.06c-0.28,1.24-0.43,2.92-1.33,3.47c0.07-0.59,0.66-4.99,0.74-5.58c0.02-0.14,0.02-0.24,0.18-0.3
		c0.11-0.04,0.21,0.01,0.31,0.11c0.01,0.01,1.47,1.35,1.47,1.35c0.06,0.07,0.15,0.11,0.24,0.08c0.08-0.03,0.15-0.1,0.16-0.19
		l0.2-1.67c0.01-0.06-0.01-0.13-0.05-0.17c-0.04-0.05-0.1-0.08-0.17-0.08h-0.23l0.06-0.52c0.16-0.08,0.61-0.28,0.83-0.32
		c0,0,0.02,0,0.02,0c0.01,0,0.09-0.01,0.09-0.01c0.13,0,0.24,0.04,0.33,0.11c0.09,0.07,0.14,0.17,0.15,0.29l0.26,2.37
		c0.01,0.09,0.08,0.17,0.16,0.19c0.09,0.03,0.19-0.01,0.24-0.08c0,0,1.47-1.34,1.47-1.35c0.1-0.1,0.2-0.15,0.31-0.11
		c0.16,0.05,0.16,0.15,0.18,0.3c0.08,0.59,0.67,4.99,0.74,5.58c-0.89-0.55-1.05-2.23-1.33-3.47c-0.06-0.31-0.34-0.29-0.31,0.06
		l0.13,1.4c-0.2-0.07-0.83-0.31-1.05-0.39c-0.05-0.02-0.09-0.02-0.1-0.02c-0.19,0.01-0.24,0.17-0.22,0.26
		C18.1,9.37,18.61,11.29,18.83,12.17"/>
	<path class="st0" d="M8.99,23.77c-0.16,0.06-0.51,0.09-0.68,0.07c-0.05,0-0.09-0.01-0.12-0.02L8.16,23.8l-0.35-1.7
		c-0.07-0.31-0.32-0.29-0.29,0.06l0.18,1.76C7.65,24,7.39,24.43,7.14,24.43c-0.25,0-0.51-0.43-0.56-0.52l0.18-1.76
		c0.03-0.35-0.23-0.37-0.29-0.06l-0.35,1.7L6.1,23.82c-0.03,0.01-0.08,0.02-0.12,0.02c-0.17,0.02-0.52-0.01-0.68-0.07
		c0.22-0.88,0.73-2.8,0.87-3.42c0.02-0.1-0.03-0.26-0.22-0.26c-0.02,0-0.06,0-0.11,0.02c-0.22,0.08-0.85,0.32-1.05,0.39l0.13-1.4
		c0.03-0.35-0.25-0.37-0.31-0.06c-0.28,1.24-0.43,2.92-1.33,3.47c0.07-0.59,0.65-4.99,0.74-5.58c0.02-0.14,0.02-0.24,0.18-0.3
		c0.11-0.04,0.21,0.01,0.31,0.11c0,0,1.47,1.35,1.47,1.35c0.06,0.07,0.15,0.11,0.24,0.08c0.08-0.03,0.15-0.1,0.16-0.19l0.2-1.67
		c0.01-0.06-0.01-0.13-0.06-0.17c-0.04-0.05-0.1-0.08-0.17-0.08H6.15l0.06-0.52c0.17-0.08,0.62-0.28,0.83-0.32c0,0,0.01,0,0.01,0
		c0.01,0,0.09-0.01,0.09-0.01c0.13,0,0.25,0.04,0.33,0.11c0.09,0.07,0.14,0.17,0.15,0.29l0.26,2.37c0.01,0.09,0.08,0.17,0.16,0.19
		c0.09,0.03,0.18-0.01,0.24-0.08c0,0,1.47-1.34,1.47-1.35c0.1-0.1,0.2-0.15,0.31-0.11c0.16,0.05,0.16,0.16,0.18,0.3
		c0.08,0.59,0.67,4.99,0.74,5.58c-0.9-0.55-1.05-2.23-1.33-3.47c-0.06-0.31-0.34-0.29-0.31,0.06l0.13,1.4
		c-0.2-0.07-0.83-0.31-1.05-0.39c-0.05-0.02-0.09-0.02-0.1-0.02c-0.19,0.01-0.24,0.17-0.22,0.26C8.26,20.97,8.77,22.89,8.99,23.77"
		/>
	<path class="st0" d="M18.83,23.77c-0.16,0.06-0.51,0.09-0.68,0.07c-0.05,0-0.09-0.01-0.12-0.02L18,23.8l-0.35-1.7
		c-0.06-0.31-0.32-0.29-0.29,0.06l0.18,1.76c-0.05,0.09-0.31,0.52-0.56,0.52c-0.25,0-0.51-0.43-0.56-0.52l0.18-1.76
		c0.03-0.35-0.23-0.37-0.29-0.06l-0.35,1.7l-0.02,0.02c-0.03,0.01-0.08,0.02-0.12,0.02c-0.17,0.02-0.52-0.01-0.68-0.07
		c0.22-0.88,0.73-2.8,0.87-3.42c0.02-0.1-0.03-0.26-0.22-0.26c-0.02,0-0.06,0-0.11,0.02c-0.22,0.08-0.85,0.32-1.05,0.39l0.13-1.4
		c0.03-0.35-0.25-0.37-0.31-0.06c-0.28,1.24-0.43,2.92-1.33,3.47c0.07-0.59,0.66-4.99,0.74-5.58c0.02-0.14,0.02-0.24,0.18-0.3
		c0.11-0.04,0.21,0.01,0.31,0.11c0.01,0,1.47,1.35,1.47,1.35c0.06,0.07,0.15,0.11,0.24,0.08c0.08-0.03,0.15-0.1,0.16-0.19l0.2-1.67
		c0.01-0.06-0.01-0.13-0.05-0.17c-0.04-0.05-0.1-0.08-0.17-0.08h-0.23l0.06-0.52c0.16-0.08,0.61-0.28,0.83-0.32c0,0,0.02,0,0.02,0
		c0.01,0,0.09-0.01,0.09-0.01c0.13,0,0.24,0.04,0.33,0.11c0.09,0.07,0.14,0.17,0.15,0.29l0.26,2.37c0.01,0.09,0.08,0.17,0.16,0.19
		c0.09,0.03,0.19-0.01,0.24-0.08c0,0,1.47-1.34,1.47-1.35c0.1-0.1,0.2-0.15,0.31-0.11c0.16,0.05,0.16,0.16,0.18,0.3
		c0.08,0.59,0.67,4.99,0.74,5.58c-0.89-0.55-1.05-2.23-1.33-3.47c-0.06-0.31-0.34-0.29-0.31,0.06l0.13,1.4
		c-0.2-0.07-0.83-0.31-1.05-0.39c-0.05-0.02-0.09-0.02-0.1-0.02c-0.19,0.01-0.24,0.17-0.22,0.26C18.1,20.97,18.61,22.89,18.83,23.77
		"/>
	<path class="st0" d="M40.3,12.17c-0.16,0.06-0.51,0.09-0.68,0.07c-0.05,0-0.09-0.01-0.12-0.02l-0.02-0.02l-0.35-1.7
		c-0.06-0.31-0.32-0.29-0.29,0.06l0.18,1.76c-0.05,0.09-0.31,0.52-0.56,0.52c-0.25,0-0.51-0.43-0.56-0.52l0.18-1.76
		c0.03-0.35-0.23-0.37-0.29-0.06l-0.35,1.7l-0.03,0.02c-0.03,0.01-0.08,0.02-0.12,0.02c-0.18,0.02-0.52-0.01-0.68-0.07
		c0.22-0.88,0.73-2.8,0.87-3.42c0.02-0.09-0.03-0.26-0.22-0.26c-0.02,0-0.06,0-0.11,0.02C36.93,8.6,36.3,8.83,36.1,8.9l0.13-1.4
		c0.03-0.35-0.25-0.37-0.31-0.06c-0.27,1.24-0.43,2.92-1.33,3.47c0.07-0.59,0.65-4.99,0.74-5.58c0.02-0.14,0.02-0.24,0.18-0.3
		c0.11-0.04,0.21,0.01,0.31,0.11C35.84,5.15,37.3,6.5,37.3,6.5c0.06,0.07,0.15,0.11,0.24,0.08c0.08-0.03,0.15-0.1,0.16-0.19
		l0.2-1.67c0.01-0.06-0.01-0.13-0.06-0.17c-0.04-0.05-0.1-0.08-0.17-0.08h-0.23l0.06-0.52c0.17-0.08,0.62-0.28,0.83-0.32
		c0,0,0.01,0,0.01,0c0.01,0,0.09-0.01,0.09-0.01c0.13,0,0.24,0.04,0.33,0.11c0.09,0.07,0.14,0.17,0.15,0.29l0.26,2.37
		c0.01,0.09,0.08,0.17,0.16,0.19c0.09,0.03,0.18-0.01,0.24-0.08c0,0,1.47-1.34,1.47-1.35c0.1-0.1,0.2-0.15,0.31-0.11
		c0.15,0.05,0.16,0.15,0.18,0.3c0.08,0.59,0.67,4.99,0.74,5.58c-0.9-0.55-1.05-2.23-1.33-3.47c-0.06-0.31-0.34-0.29-0.31,0.06
		l0.13,1.4c-0.2-0.07-0.83-0.31-1.05-0.39c-0.05-0.02-0.09-0.02-0.1-0.02c-0.19,0.01-0.24,0.17-0.22,0.26
		C39.57,9.37,40.08,11.29,40.3,12.17"/>
	<path class="st0" d="M50.14,12.17c-0.16,0.06-0.51,0.09-0.68,0.07c-0.05,0-0.09-0.01-0.12-0.02l-0.02-0.02l-0.35-1.7
		c-0.06-0.31-0.32-0.29-0.29,0.06l0.18,1.76c-0.05,0.09-0.31,0.52-0.56,0.52c-0.25,0-0.51-0.43-0.56-0.52l0.18-1.76
		c0.03-0.35-0.23-0.37-0.29-0.06l-0.35,1.7l-0.02,0.02c-0.03,0.01-0.08,0.02-0.12,0.02c-0.18,0.02-0.52-0.01-0.68-0.07
		c0.22-0.88,0.73-2.8,0.87-3.42c0.02-0.09-0.03-0.26-0.22-0.26c-0.02,0-0.06,0-0.1,0.02c-0.22,0.08-0.85,0.32-1.05,0.39l0.13-1.4
		c0.03-0.35-0.25-0.37-0.31-0.06c-0.27,1.24-0.43,2.92-1.33,3.47c0.07-0.59,0.66-4.99,0.74-5.58c0.02-0.14,0.02-0.24,0.18-0.3
		c0.11-0.04,0.21,0.01,0.31,0.11c0,0.01,1.47,1.35,1.47,1.35c0.06,0.07,0.15,0.11,0.24,0.08c0.08-0.03,0.15-0.1,0.16-0.19l0.2-1.67
		c0.01-0.06-0.01-0.13-0.06-0.17c-0.04-0.05-0.1-0.08-0.17-0.08H47.3l0.06-0.52c0.17-0.08,0.62-0.28,0.83-0.32c0,0,0.02,0,0.02,0
		c0.01,0,0.09-0.01,0.09-0.01c0.13,0,0.25,0.04,0.33,0.11c0.09,0.07,0.14,0.17,0.15,0.29l0.26,2.37c0.01,0.09,0.08,0.17,0.16,0.19
		c0.09,0.03,0.18-0.01,0.24-0.08c0,0,1.47-1.34,1.47-1.35c0.1-0.1,0.2-0.15,0.31-0.11c0.16,0.05,0.16,0.15,0.18,0.3
		c0.08,0.59,0.67,4.99,0.74,5.58c-0.9-0.55-1.05-2.23-1.33-3.47c-0.06-0.31-0.34-0.29-0.31,0.06l0.13,1.4
		c-0.2-0.07-0.83-0.31-1.05-0.39c-0.05-0.02-0.09-0.02-0.1-0.02c-0.19,0.01-0.24,0.17-0.22,0.26C49.41,9.37,49.92,11.29,50.14,12.17
		"/>
	<path class="st0" d="M40.3,23.77c-0.16,0.06-0.51,0.09-0.68,0.07c-0.05,0-0.09-0.01-0.12-0.02l-0.02-0.02l-0.35-1.7
		c-0.06-0.31-0.32-0.29-0.29,0.06l0.18,1.76c-0.05,0.09-0.31,0.52-0.56,0.52c-0.25,0-0.51-0.43-0.56-0.52l0.18-1.76
		c0.03-0.35-0.23-0.37-0.29-0.06l-0.35,1.7l-0.03,0.02c-0.03,0.01-0.08,0.02-0.12,0.02c-0.18,0.02-0.52-0.01-0.68-0.07
		c0.22-0.88,0.73-2.8,0.87-3.42c0.02-0.1-0.03-0.26-0.22-0.26c-0.02,0-0.06,0-0.11,0.02c-0.22,0.08-0.85,0.32-1.05,0.39l0.13-1.4
		c0.03-0.35-0.25-0.37-0.31-0.06c-0.27,1.24-0.43,2.92-1.33,3.47c0.07-0.59,0.65-4.99,0.74-5.58c0.02-0.14,0.02-0.24,0.18-0.3
		c0.11-0.04,0.21,0.01,0.31,0.11c0.01,0,1.47,1.35,1.47,1.35c0.06,0.07,0.15,0.11,0.24,0.08c0.08-0.03,0.15-0.1,0.16-0.19l0.2-1.67
		c0.01-0.06-0.01-0.13-0.06-0.17c-0.04-0.05-0.1-0.08-0.17-0.08h-0.23l0.06-0.52c0.17-0.08,0.62-0.28,0.83-0.32c0,0,0.01,0,0.01,0
		c0.01,0,0.09-0.01,0.09-0.01c0.13,0,0.24,0.04,0.33,0.11c0.09,0.07,0.14,0.17,0.15,0.29l0.26,2.37c0.01,0.09,0.08,0.17,0.16,0.19
		c0.09,0.03,0.18-0.01,0.24-0.08c0,0,1.47-1.34,1.47-1.35c0.1-0.1,0.2-0.15,0.31-0.11c0.15,0.05,0.16,0.16,0.18,0.3
		c0.08,0.59,0.67,4.99,0.74,5.58c-0.9-0.55-1.05-2.23-1.33-3.47c-0.06-0.31-0.34-0.29-0.31,0.06l0.13,1.4
		c-0.2-0.07-0.83-0.31-1.05-0.39c-0.05-0.02-0.09-0.02-0.1-0.02c-0.19,0.01-0.24,0.17-0.22,0.26C39.57,20.97,40.08,22.89,40.3,23.77
		"/>
	<path class="st0" d="M50.14,23.77c-0.16,0.06-0.51,0.09-0.68,0.07c-0.05,0-0.09-0.01-0.12-0.02l-0.02-0.02l-0.35-1.7
		c-0.06-0.31-0.32-0.29-0.29,0.06l0.18,1.76c-0.05,0.09-0.31,0.52-0.56,0.52c-0.25,0-0.51-0.43-0.56-0.52l0.18-1.76
		c0.03-0.35-0.23-0.37-0.29-0.06l-0.35,1.7l-0.02,0.02c-0.03,0.01-0.08,0.02-0.12,0.02c-0.18,0.02-0.52-0.01-0.68-0.07
		c0.22-0.88,0.73-2.8,0.87-3.42c0.02-0.1-0.03-0.26-0.22-0.26c-0.02,0-0.06,0-0.1,0.02c-0.22,0.08-0.85,0.32-1.05,0.39l0.13-1.4
		c0.03-0.35-0.25-0.37-0.31-0.06c-0.27,1.24-0.43,2.92-1.33,3.47c0.07-0.59,0.66-4.99,0.74-5.58c0.02-0.14,0.02-0.24,0.18-0.3
		c0.11-0.04,0.21,0.01,0.31,0.11c0,0,1.47,1.35,1.47,1.35c0.06,0.07,0.15,0.11,0.24,0.08c0.08-0.03,0.15-0.1,0.16-0.19l0.2-1.67
		c0.01-0.06-0.01-0.13-0.06-0.17c-0.04-0.05-0.1-0.08-0.17-0.08H47.3l0.06-0.52c0.17-0.08,0.62-0.28,0.83-0.32c0,0,0.02,0,0.02,0
		c0.01,0,0.09-0.01,0.09-0.01c0.13,0,0.25,0.04,0.33,0.11c0.09,0.07,0.14,0.17,0.15,0.29l0.26,2.37c0.01,0.09,0.08,0.17,0.16,0.19
		c0.09,0.03,0.18-0.01,0.24-0.08c0,0,1.47-1.34,1.47-1.35c0.1-0.1,0.2-0.15,0.31-0.11c0.16,0.05,0.16,0.16,0.18,0.3
		c0.08,0.59,0.67,4.99,0.74,5.58c-0.9-0.55-1.05-2.23-1.33-3.47c-0.06-0.31-0.34-0.29-0.31,0.06l0.13,1.4
		c-0.2-0.07-0.83-0.31-1.05-0.39c-0.05-0.02-0.09-0.02-0.1-0.02c-0.19,0.01-0.24,0.17-0.22,0.26
		C49.41,20.97,49.92,22.89,50.14,23.77"/>
	<path class="st0" d="M8.99,47.41c-0.16,0.06-0.51,0.09-0.68,0.07c-0.05,0-0.09-0.01-0.12-0.02l-0.02-0.02l-0.35-1.7
		c-0.07-0.31-0.32-0.29-0.29,0.06l0.18,1.76c-0.05,0.09-0.31,0.52-0.56,0.52c-0.25,0-0.51-0.43-0.56-0.52l0.18-1.76
		c0.03-0.35-0.23-0.37-0.29-0.06l-0.35,1.7L6.1,47.46c-0.03,0.01-0.08,0.02-0.12,0.02c-0.17,0.01-0.52-0.01-0.68-0.07
		c0.22-0.88,0.73-2.8,0.87-3.42c0.02-0.09-0.03-0.26-0.22-0.26c-0.02,0-0.06,0-0.11,0.02c-0.22,0.08-0.85,0.32-1.05,0.39l0.13-1.4
		c0.03-0.35-0.25-0.37-0.31-0.06c-0.28,1.24-0.43,2.92-1.33,3.47c0.07-0.59,0.65-4.99,0.74-5.58c0.02-0.14,0.02-0.24,0.18-0.3
		c0.11-0.04,0.21,0.01,0.31,0.11c0,0,1.47,1.35,1.47,1.35c0.06,0.07,0.15,0.11,0.24,0.08c0.08-0.03,0.15-0.1,0.16-0.19l0.2-1.67
		c0.01-0.06-0.01-0.13-0.06-0.17c-0.04-0.05-0.1-0.08-0.17-0.08H6.15l0.06-0.52c0.17-0.08,0.62-0.28,0.83-0.32c0,0,0.01,0,0.01,0
		c0.01,0,0.09-0.01,0.09-0.01c0.13,0,0.25,0.04,0.33,0.11c0.09,0.07,0.14,0.17,0.15,0.29l0.26,2.37c0.01,0.09,0.08,0.17,0.16,0.19
		c0.09,0.03,0.18-0.01,0.24-0.08c0,0,1.47-1.34,1.47-1.35c0.1-0.1,0.2-0.15,0.31-0.11c0.16,0.05,0.16,0.16,0.18,0.3
		c0.08,0.59,0.67,4.99,0.74,5.58c-0.9-0.55-1.05-2.23-1.33-3.47c-0.06-0.31-0.34-0.29-0.31,0.06l0.13,1.4
		c-0.2-0.07-0.83-0.31-1.05-0.39c-0.05-0.02-0.09-0.02-0.1-0.02c-0.19,0.01-0.24,0.17-0.22,0.26C8.26,44.61,8.77,46.53,8.99,47.41"
		/>
	<path class="st0" d="M18.83,47.41c-0.16,0.06-0.51,0.09-0.68,0.07c-0.05,0-0.09-0.01-0.12-0.02L18,47.44l-0.35-1.7
		c-0.06-0.31-0.32-0.29-0.29,0.06l0.18,1.76c-0.05,0.09-0.31,0.52-0.56,0.52c-0.25,0-0.51-0.43-0.56-0.52l0.18-1.76
		c0.03-0.35-0.23-0.37-0.29-0.06l-0.35,1.7l-0.02,0.02c-0.03,0.01-0.08,0.02-0.12,0.02c-0.17,0.01-0.52-0.01-0.68-0.07
		c0.22-0.88,0.73-2.8,0.87-3.42c0.02-0.09-0.03-0.26-0.22-0.26c-0.02,0-0.06,0-0.11,0.02c-0.22,0.08-0.85,0.32-1.05,0.39l0.13-1.4
		c0.03-0.35-0.25-0.37-0.31-0.06c-0.28,1.24-0.43,2.92-1.33,3.47c0.07-0.59,0.66-4.99,0.74-5.58c0.02-0.14,0.02-0.24,0.18-0.3
		c0.11-0.04,0.21,0.01,0.31,0.11c0.01,0,1.47,1.35,1.47,1.35c0.06,0.07,0.15,0.11,0.24,0.08c0.08-0.03,0.15-0.1,0.16-0.19l0.2-1.67
		c0.01-0.06-0.01-0.13-0.05-0.17c-0.04-0.05-0.1-0.08-0.17-0.08h-0.23l0.06-0.52c0.16-0.08,0.61-0.28,0.83-0.32c0,0,0.02,0,0.02,0
		c0.01,0,0.09-0.01,0.09-0.01c0.13,0,0.24,0.04,0.33,0.11c0.09,0.07,0.14,0.17,0.15,0.29l0.26,2.37c0.01,0.09,0.08,0.17,0.16,0.19
		c0.09,0.03,0.19-0.01,0.24-0.08c0,0,1.47-1.34,1.47-1.35c0.1-0.1,0.2-0.15,0.31-0.11c0.16,0.05,0.16,0.16,0.18,0.3
		c0.08,0.59,0.67,4.99,0.74,5.58c-0.89-0.55-1.05-2.23-1.33-3.47c-0.06-0.31-0.34-0.29-0.31,0.06l0.13,1.4
		c-0.2-0.07-0.83-0.31-1.05-0.39c-0.05-0.02-0.09-0.02-0.1-0.02c-0.19,0.01-0.24,0.17-0.22,0.26C18.1,44.61,18.61,46.53,18.83,47.41
		"/>
	<path class="st0" d="M8.99,59.01c-0.16,0.06-0.51,0.09-0.68,0.07c-0.05,0-0.09-0.01-0.12-0.02l-0.02-0.02l-0.35-1.7
		c-0.07-0.31-0.32-0.29-0.29,0.06l0.18,1.76c-0.05,0.09-0.31,0.52-0.56,0.52c-0.25,0-0.51-0.43-0.56-0.52l0.18-1.76
		c0.03-0.35-0.23-0.37-0.29-0.06l-0.35,1.7L6.1,59.06c-0.03,0.01-0.08,0.02-0.12,0.02c-0.17,0.01-0.52-0.01-0.68-0.07
		c0.22-0.88,0.73-2.8,0.87-3.42c0.02-0.1-0.03-0.26-0.22-0.26c-0.02,0-0.06,0-0.11,0.02c-0.22,0.08-0.85,0.32-1.05,0.39l0.13-1.4
		c0.03-0.35-0.25-0.37-0.31-0.06c-0.28,1.24-0.43,2.92-1.33,3.47c0.07-0.59,0.65-4.99,0.74-5.58c0.02-0.14,0.02-0.24,0.18-0.29
		c0.11-0.04,0.21,0.01,0.31,0.11c0,0,1.47,1.35,1.47,1.35c0.06,0.07,0.15,0.11,0.24,0.08c0.08-0.02,0.15-0.1,0.16-0.19l0.2-1.67
		c0.01-0.07-0.01-0.13-0.06-0.17c-0.04-0.05-0.1-0.08-0.17-0.08H6.15l0.06-0.52c0.17-0.08,0.62-0.28,0.83-0.32c0,0,0.01,0,0.01,0
		c0.01-0.01,0.09-0.01,0.09-0.01c0.13,0,0.25,0.04,0.33,0.11c0.09,0.07,0.14,0.17,0.15,0.3l0.26,2.37c0.01,0.09,0.08,0.17,0.16,0.19
		c0.09,0.03,0.18-0.01,0.24-0.08c0,0,1.47-1.34,1.47-1.35c0.1-0.1,0.2-0.15,0.31-0.11c0.16,0.05,0.16,0.15,0.18,0.29
		c0.08,0.59,0.67,4.99,0.74,5.58c-0.9-0.55-1.05-2.23-1.33-3.47c-0.06-0.31-0.34-0.29-0.31,0.06l0.13,1.4
		c-0.2-0.07-0.83-0.31-1.05-0.39c-0.05-0.02-0.09-0.02-0.1-0.02c-0.19,0.01-0.24,0.17-0.22,0.26C8.26,56.21,8.77,58.13,8.99,59.01"
		/>
	<path class="st0" d="M18.83,59.01c-0.16,0.06-0.51,0.09-0.68,0.07c-0.05,0-0.09-0.01-0.12-0.02L18,59.04l-0.35-1.7
		c-0.06-0.31-0.32-0.29-0.29,0.06l0.18,1.76c-0.05,0.09-0.31,0.52-0.56,0.52c-0.25,0-0.51-0.43-0.56-0.52l0.18-1.76
		c0.03-0.35-0.23-0.37-0.29-0.06l-0.35,1.7l-0.02,0.02c-0.03,0.01-0.08,0.02-0.12,0.02c-0.17,0.01-0.52-0.01-0.68-0.07
		c0.22-0.88,0.73-2.8,0.87-3.42c0.02-0.1-0.03-0.26-0.22-0.26c-0.02,0-0.06,0-0.11,0.02c-0.22,0.08-0.85,0.32-1.05,0.39l0.13-1.4
		c0.03-0.35-0.25-0.37-0.31-0.06c-0.28,1.24-0.43,2.92-1.33,3.47c0.07-0.59,0.66-4.99,0.74-5.58c0.02-0.14,0.02-0.24,0.18-0.29
		c0.11-0.04,0.21,0.01,0.31,0.11c0.01,0,1.47,1.35,1.47,1.35c0.06,0.07,0.15,0.11,0.24,0.08c0.08-0.02,0.15-0.1,0.16-0.19l0.2-1.67
		c0.01-0.07-0.01-0.13-0.05-0.17c-0.04-0.05-0.1-0.08-0.17-0.08h-0.23l0.06-0.52c0.16-0.08,0.61-0.28,0.83-0.32c0,0,0.02,0,0.02,0
		c0.01-0.01,0.09-0.01,0.09-0.01c0.13,0,0.24,0.04,0.33,0.11c0.09,0.07,0.14,0.17,0.15,0.3l0.26,2.37c0.01,0.09,0.08,0.17,0.16,0.19
		c0.09,0.03,0.19-0.01,0.24-0.08c0,0,1.47-1.34,1.47-1.35c0.1-0.1,0.2-0.15,0.31-0.11c0.16,0.05,0.16,0.15,0.18,0.29
		c0.08,0.59,0.67,4.99,0.74,5.58c-0.89-0.55-1.05-2.23-1.33-3.47c-0.06-0.31-0.34-0.29-0.31,0.06l0.13,1.4
		c-0.2-0.07-0.83-0.31-1.05-0.39c-0.05-0.02-0.09-0.02-0.1-0.02c-0.19,0.01-0.24,0.17-0.22,0.26C18.1,56.21,18.61,58.13,18.83,59.01
		"/>
	<path class="st0" d="M40.3,47.41c-0.16,0.06-0.51,0.09-0.68,0.07c-0.05,0-0.09-0.01-0.12-0.02l-0.02-0.02l-0.35-1.7
		c-0.06-0.31-0.32-0.29-0.29,0.06l0.18,1.76c-0.05,0.09-0.31,0.52-0.56,0.52c-0.25,0-0.51-0.43-0.56-0.52l0.18-1.76
		c0.03-0.35-0.23-0.37-0.29-0.06l-0.35,1.7l-0.03,0.02c-0.03,0.01-0.08,0.02-0.12,0.02c-0.18,0.01-0.52-0.01-0.68-0.07
		c0.22-0.88,0.73-2.8,0.87-3.42c0.02-0.09-0.03-0.26-0.22-0.26c-0.02,0-0.06,0-0.11,0.02c-0.22,0.08-0.85,0.32-1.05,0.39l0.13-1.4
		c0.03-0.35-0.25-0.37-0.31-0.06c-0.27,1.24-0.43,2.92-1.33,3.47c0.07-0.59,0.65-4.99,0.74-5.58c0.02-0.14,0.02-0.24,0.18-0.3
		c0.11-0.04,0.21,0.01,0.31,0.11c0.01,0,1.47,1.35,1.47,1.35c0.06,0.07,0.15,0.11,0.24,0.08c0.08-0.03,0.15-0.1,0.16-0.19l0.2-1.67
		c0.01-0.06-0.01-0.13-0.06-0.17c-0.04-0.05-0.1-0.08-0.17-0.08h-0.23l0.06-0.52c0.17-0.08,0.62-0.28,0.83-0.32c0,0,0.01,0,0.01,0
		c0.01,0,0.09-0.01,0.09-0.01c0.13,0,0.24,0.04,0.33,0.11c0.09,0.07,0.14,0.17,0.15,0.29l0.26,2.37c0.01,0.09,0.08,0.17,0.16,0.19
		c0.09,0.03,0.18-0.01,0.24-0.08c0,0,1.47-1.34,1.47-1.35c0.1-0.1,0.2-0.15,0.31-0.11c0.15,0.05,0.16,0.16,0.18,0.3
		c0.08,0.59,0.67,4.99,0.74,5.58c-0.9-0.55-1.05-2.23-1.33-3.47c-0.06-0.31-0.34-0.29-0.31,0.06l0.13,1.4
		c-0.2-0.07-0.83-0.31-1.05-0.39c-0.05-0.02-0.09-0.02-0.1-0.02c-0.19,0.01-0.24,0.17-0.22,0.26C39.57,44.61,40.08,46.53,40.3,47.41
		"/>
	<path class="st0" d="M50.14,47.41c-0.16,0.06-0.51,0.09-0.68,0.07c-0.05,0-0.09-0.01-0.12-0.02l-0.02-0.02l-0.35-1.7
		c-0.06-0.31-0.32-0.29-0.29,0.06l0.18,1.76c-0.05,0.09-0.31,0.52-0.56,0.52c-0.25,0-0.51-0.43-0.56-0.52l0.18-1.76
		c0.03-0.35-0.23-0.37-0.29-0.06l-0.35,1.7l-0.02,0.02c-0.03,0.01-0.08,0.02-0.12,0.02c-0.18,0.01-0.52-0.01-0.68-0.07
		c0.22-0.88,0.73-2.8,0.87-3.42c0.02-0.09-0.03-0.26-0.22-0.26c-0.02,0-0.06,0-0.1,0.02c-0.22,0.08-0.85,0.32-1.05,0.39l0.13-1.4
		c0.03-0.35-0.25-0.37-0.31-0.06c-0.27,1.24-0.43,2.92-1.33,3.47c0.07-0.59,0.66-4.99,0.74-5.58c0.02-0.14,0.02-0.24,0.18-0.3
		c0.11-0.04,0.21,0.01,0.31,0.11c0,0,1.47,1.35,1.47,1.35c0.06,0.07,0.15,0.11,0.24,0.08c0.08-0.03,0.15-0.1,0.16-0.19l0.2-1.67
		c0.01-0.06-0.01-0.13-0.06-0.17c-0.04-0.05-0.1-0.08-0.17-0.08H47.3l0.06-0.52c0.17-0.08,0.62-0.28,0.83-0.32c0,0,0.02,0,0.02,0
		c0.01,0,0.09-0.01,0.09-0.01c0.13,0,0.25,0.04,0.33,0.11c0.09,0.07,0.14,0.17,0.15,0.29l0.26,2.37c0.01,0.09,0.08,0.17,0.16,0.19
		c0.09,0.03,0.18-0.01,0.24-0.08c0,0,1.47-1.34,1.47-1.35c0.1-0.1,0.2-0.15,0.31-0.11c0.16,0.05,0.16,0.16,0.18,0.3
		c0.08,0.59,0.67,4.99,0.74,5.58c-0.9-0.55-1.05-2.23-1.33-3.47c-0.06-0.31-0.34-0.29-0.31,0.06l0.13,1.4
		c-0.2-0.07-0.83-0.31-1.05-0.39c-0.05-0.02-0.09-0.02-0.1-0.02c-0.19,0.01-0.24,0.17-0.22,0.26
		C49.41,44.61,49.92,46.53,50.14,47.41"/>
	<path class="st0" d="M40.3,59.01c-0.16,0.06-0.51,0.09-0.68,0.07c-0.05,0-0.09-0.01-0.12-0.02l-0.02-0.02l-0.35-1.7
		c-0.06-0.31-0.32-0.29-0.29,0.06l0.18,1.76c-0.05,0.09-0.31,0.52-0.56,0.52c-0.25,0-0.51-0.43-0.56-0.52l0.18-1.76
		c0.03-0.35-0.23-0.37-0.29-0.06l-0.35,1.7l-0.03,0.02c-0.03,0.01-0.08,0.02-0.12,0.02c-0.18,0.01-0.52-0.01-0.68-0.07
		c0.22-0.88,0.73-2.8,0.87-3.42c0.02-0.1-0.03-0.26-0.22-0.26c-0.02,0-0.06,0-0.11,0.02c-0.22,0.08-0.85,0.32-1.05,0.39l0.13-1.4
		c0.03-0.35-0.25-0.37-0.31-0.06c-0.27,1.24-0.43,2.92-1.33,3.47c0.07-0.59,0.65-4.99,0.74-5.58c0.02-0.14,0.02-0.24,0.18-0.29
		c0.11-0.04,0.21,0.01,0.31,0.11c0.01,0,1.47,1.35,1.47,1.35c0.06,0.07,0.15,0.11,0.24,0.08c0.08-0.02,0.15-0.1,0.16-0.19l0.2-1.67
		c0.01-0.07-0.01-0.13-0.06-0.17c-0.04-0.05-0.1-0.08-0.17-0.08h-0.23l0.06-0.52c0.17-0.08,0.62-0.28,0.83-0.32c0,0,0.01,0,0.01,0
		c0.01-0.01,0.09-0.01,0.09-0.01c0.13,0,0.24,0.04,0.33,0.11c0.09,0.07,0.14,0.17,0.15,0.3l0.26,2.37c0.01,0.09,0.08,0.17,0.16,0.19
		c0.09,0.03,0.18-0.01,0.24-0.08c0,0,1.47-1.34,1.47-1.35c0.1-0.1,0.2-0.15,0.31-0.11c0.15,0.05,0.16,0.15,0.18,0.29
		c0.08,0.59,0.67,4.99,0.74,5.58c-0.9-0.55-1.05-2.23-1.33-3.47c-0.06-0.31-0.34-0.29-0.31,0.06l0.13,1.4
		c-0.2-0.07-0.83-0.31-1.05-0.39c-0.05-0.02-0.09-0.02-0.1-0.02c-0.19,0.01-0.24,0.17-0.22,0.26C39.57,56.21,40.08,58.13,40.3,59.01
		"/>
	<path class="st0" d="M50.14,59.01c-0.16,0.06-0.51,0.09-0.68,0.07c-0.05,0-0.09-0.01-0.12-0.02l-0.02-0.02l-0.35-1.7
		c-0.06-0.31-0.32-0.29-0.29,0.06l0.18,1.76c-0.05,0.09-0.31,0.52-0.56,0.52c-0.25,0-0.51-0.43-0.56-0.52l0.18-1.76
		c0.03-0.35-0.23-0.37-0.29-0.06l-0.35,1.7l-0.02,0.02c-0.03,0.01-0.08,0.02-0.12,0.02c-0.18,0.01-0.52-0.01-0.68-0.07
		c0.22-0.88,0.73-2.8,0.87-3.42c0.02-0.1-0.03-0.26-0.22-0.26c-0.02,0-0.06,0-0.1,0.02c-0.22,0.08-0.85,0.32-1.05,0.39l0.13-1.4
		c0.03-0.35-0.25-0.37-0.31-0.06c-0.27,1.24-0.43,2.92-1.33,3.47c0.07-0.59,0.66-4.99,0.74-5.58c0.02-0.14,0.02-0.24,0.18-0.29
		c0.11-0.04,0.21,0.01,0.31,0.11c0,0,1.47,1.35,1.47,1.35c0.06,0.07,0.15,0.11,0.24,0.08c0.08-0.02,0.15-0.1,0.16-0.19l0.2-1.67
		c0.01-0.07-0.01-0.13-0.06-0.17c-0.04-0.05-0.1-0.08-0.17-0.08H47.3l0.06-0.52c0.17-0.08,0.62-0.28,0.83-0.32c0,0,0.02,0,0.02,0
		c0.01-0.01,0.09-0.01,0.09-0.01c0.13,0,0.25,0.04,0.33,0.11c0.09,0.07,0.14,0.17,0.15,0.3l0.26,2.37c0.01,0.09,0.08,0.17,0.16,0.19
		c0.09,0.03,0.18-0.01,0.24-0.08c0,0,1.47-1.34,1.47-1.35c0.1-0.1,0.2-0.15,0.31-0.11c0.16,0.05,0.16,0.15,0.18,0.29
		c0.08,0.59,0.67,4.99,0.74,5.58c-0.9-0.55-1.05-2.23-1.33-3.47c-0.06-0.31-0.34-0.29-0.31,0.06l0.13,1.4
		c-0.2-0.07-0.83-0.31-1.05-0.39c-0.05-0.02-0.09-0.02-0.1-0.02c-0.19,0.01-0.24,0.17-0.22,0.26
		C49.41,56.21,49.92,58.13,50.14,59.01"/>
	<path class="st0" d="M0,0v54.87c0,4.72,3.64,8.42,8.28,8.42h13.04c1.74,0,4.01,1.18,5.15,4.48l0.63,1.83
		c0.16,0.38,0.38,0.62,0.63,0.62c0.25,0,0.47-0.24,0.62-0.62l0.63-1.83c1.14-3.3,3.4-4.48,5.14-4.48h13.04
		c4.64,0,8.28-3.7,8.28-8.42V0H0z M22.8,62.18c-0.51-0.14-1.01-0.21-1.48-0.21H8.28c-3.77,0-6.96-2.97-6.96-7.1V36.56H22.8V62.18z
		 M22.8,26.73H1.32V1.33H22.8V26.73z M54.11,54.87c0,4.13-3.18,7.1-6.95,7.1H34.12c-0.47,0-0.97,0.07-1.49,0.21V36.56h21.48V54.87z
		 M54.11,26.73H32.63V1.33h21.48V26.73z"/>
	<path d="M31.32,14.3c-0.29-0.34-1.32-1.59-1.34-1.61v-0.67c0-0.32-0.25-0.58-0.57-0.58h-0.59c-0.07-0.06-0.54-0.53-0.54-0.54
		c-0.15-0.15-0.35-0.23-0.56-0.23c-0.21,0-0.41,0.08-0.56,0.23c0,0.01-0.47,0.47-0.54,0.54h-0.59c-0.32,0-0.57,0.26-0.57,0.58v0.67
		c-0.02,0.02-1.05,1.26-1.34,1.61c-0.18,0.21-0.29,0.48-0.29,0.77c0,0.65,0.52,1.17,1.16,1.18c0.06,0.6,0.57,1.06,1.18,1.06
		c0.2,0,0.38-0.05,0.55-0.13c0.21,0.33,0.58,0.55,1,0.55c0.42,0,0.78-0.22,0.99-0.55c0.17,0.09,0.35,0.13,0.55,0.13
		c0.61,0,1.12-0.47,1.18-1.06c0.64-0.01,1.16-0.54,1.16-1.18C31.61,14.78,31.5,14.51,31.32,14.3 M30.25,15.79l-0.9-1.76
		c-0.04-0.07-0.12-0.1-0.2-0.07c-0.08,0.03-0.11,0.12-0.08,0.2l0.84,1.94c-0.03,0.39-0.36,0.7-0.75,0.7c-0.14,0-0.27-0.04-0.38-0.1
		l-0.36-1.96c-0.01-0.08-0.09-0.14-0.17-0.12c-0.08,0.01-0.14,0.08-0.13,0.16l0.22,2.04c-0.12,0.22-0.35,0.36-0.61,0.38
		c-0.26-0.02-0.49-0.16-0.61-0.38l0.22-2.04c0.01-0.08-0.05-0.15-0.13-0.16c-0.08-0.01-0.16,0.04-0.17,0.12l-0.36,1.96
		c-0.11,0.06-0.24,0.1-0.38,0.1c-0.4,0-0.72-0.31-0.75-0.7l0.84-1.94c0.03-0.08,0-0.17-0.08-0.2c-0.07-0.03-0.16,0-0.2,0.07
		l-0.9,1.76c-0.42,0-0.76-0.34-0.76-0.76c0-0.16,0.01-0.29,0.1-0.41l1.44-1.72v-0.78c0-0.09,0.06-0.16,0.15-0.16h0.72l0.62-0.62
		c0.07-0.07,0.16-0.11,0.26-0.11c0.09,0,0.19,0.04,0.25,0.11l0.63,0.62h0.72c0.09,0,0.15,0.07,0.15,0.16v0.78l1.43,1.72
		c0.08,0.11,0.1,0.25,0.1,0.41C31.01,15.45,30.67,15.79,30.25,15.79"/>
	<path d="M31.32,31.83c-0.29-0.35-1.32-1.59-1.34-1.61v-0.67c0-0.32-0.25-0.58-0.57-0.58h-0.59c-0.07-0.06-0.54-0.53-0.54-0.54
		c-0.15-0.15-0.35-0.23-0.56-0.23c-0.21,0-0.41,0.08-0.56,0.23c0,0.01-0.47,0.47-0.54,0.54h-0.59c-0.32,0-0.57,0.26-0.57,0.58v0.67
		c-0.02,0.02-1.05,1.26-1.34,1.61c-0.18,0.21-0.29,0.48-0.29,0.77c0,0.65,0.52,1.17,1.16,1.19c0.06,0.6,0.57,1.06,1.18,1.06
		c0.2,0,0.38-0.05,0.55-0.14c0.21,0.33,0.58,0.55,1,0.55c0.42,0,0.78-0.22,0.99-0.55c0.17,0.09,0.35,0.14,0.55,0.14
		c0.61,0,1.12-0.47,1.18-1.06c0.64-0.01,1.16-0.54,1.16-1.19C31.61,32.31,31.5,32.04,31.32,31.83 M30.25,33.31l-0.9-1.76
		c-0.04-0.07-0.12-0.1-0.2-0.07c-0.08,0.03-0.11,0.12-0.08,0.2l0.84,1.94c-0.03,0.39-0.36,0.7-0.75,0.7c-0.14,0-0.27-0.04-0.38-0.1
		l-0.36-1.96c-0.01-0.08-0.09-0.14-0.17-0.12c-0.08,0.01-0.14,0.08-0.13,0.16l0.22,2.04c-0.12,0.22-0.35,0.36-0.61,0.38
		c-0.26-0.02-0.49-0.16-0.61-0.38l0.22-2.04c0.01-0.08-0.05-0.15-0.13-0.16c-0.08-0.01-0.16,0.04-0.17,0.12l-0.36,1.96
		c-0.11,0.06-0.24,0.1-0.38,0.1c-0.4,0-0.72-0.31-0.75-0.7l0.84-1.94c0.03-0.08,0-0.16-0.08-0.2c-0.07-0.03-0.16,0-0.2,0.07
		l-0.9,1.76c-0.42,0-0.76-0.34-0.76-0.76c0-0.16,0.01-0.29,0.1-0.41l1.44-1.72v-0.78c0-0.09,0.06-0.16,0.15-0.16h0.72l0.62-0.63
		c0.07-0.07,0.16-0.11,0.26-0.11c0.09,0,0.19,0.04,0.25,0.11l0.63,0.63h0.72c0.09,0,0.15,0.07,0.15,0.16v0.78l1.43,1.72
		c0.08,0.11,0.1,0.25,0.1,0.41C31.01,32.98,30.67,33.31,30.25,33.31"/>
	<path d="M31.32,49.36c-0.29-0.34-1.32-1.59-1.34-1.61v-0.67c0-0.32-0.25-0.58-0.57-0.58h-0.59c-0.07-0.06-0.54-0.53-0.54-0.54
		c-0.15-0.15-0.35-0.24-0.56-0.24c-0.21,0-0.41,0.08-0.56,0.24c0,0.01-0.47,0.47-0.54,0.54h-0.59c-0.32,0-0.57,0.26-0.57,0.58v0.67
		c-0.02,0.02-1.05,1.27-1.34,1.61c-0.18,0.21-0.29,0.48-0.29,0.77c0,0.65,0.52,1.17,1.16,1.19c0.06,0.6,0.57,1.07,1.18,1.07
		c0.2,0,0.38-0.05,0.55-0.14c0.21,0.33,0.58,0.55,1,0.55c0.42,0,0.78-0.22,0.99-0.55c0.17,0.09,0.35,0.14,0.55,0.14
		c0.61,0,1.12-0.47,1.18-1.07c0.64-0.01,1.16-0.54,1.16-1.19C31.61,49.83,31.5,49.56,31.32,49.36 M30.25,50.84l-0.9-1.76
		c-0.04-0.07-0.12-0.1-0.2-0.07c-0.08,0.03-0.11,0.12-0.08,0.2l0.84,1.94c-0.03,0.39-0.36,0.7-0.75,0.7c-0.14,0-0.27-0.04-0.38-0.1
		l-0.36-1.96c-0.01-0.08-0.09-0.13-0.17-0.12c-0.08,0.01-0.14,0.08-0.13,0.16l0.22,2.04c-0.12,0.22-0.35,0.36-0.61,0.38
		c-0.26-0.02-0.49-0.16-0.61-0.38l0.22-2.04c0.01-0.08-0.05-0.15-0.13-0.16c-0.08-0.01-0.16,0.04-0.17,0.12l-0.36,1.96
		c-0.11,0.06-0.24,0.1-0.38,0.1c-0.4,0-0.72-0.31-0.75-0.7l0.84-1.94c0.03-0.08,0-0.17-0.08-0.2c-0.07-0.03-0.16,0-0.2,0.07
		l-0.9,1.76c-0.42,0-0.76-0.34-0.76-0.76c0-0.16,0.01-0.29,0.1-0.41l1.44-1.72v-0.78c0-0.09,0.06-0.16,0.15-0.16h0.72l0.62-0.63
		c0.07-0.07,0.16-0.1,0.26-0.1c0.09,0,0.19,0.04,0.25,0.1l0.63,0.63h0.72c0.09,0,0.15,0.07,0.15,0.16v0.78l1.43,1.72
		c0.08,0.11,0.1,0.25,0.1,0.41C31.01,50.5,30.67,50.84,30.25,50.84"/>
	<path d="M46.89,31.83c-0.29-0.35-1.32-1.59-1.34-1.61v-0.67c0-0.32-0.25-0.58-0.57-0.58h-0.59c-0.07-0.06-0.53-0.53-0.54-0.54
		c-0.15-0.15-0.35-0.23-0.56-0.23c-0.21,0-0.41,0.08-0.56,0.23c-0.01,0.01-0.47,0.47-0.54,0.54H41.6c-0.32,0-0.57,0.26-0.57,0.58
		v0.67c-0.02,0.02-1.05,1.26-1.34,1.61c-0.18,0.21-0.29,0.48-0.29,0.77c0,0.65,0.52,1.17,1.16,1.19c0.06,0.6,0.57,1.06,1.18,1.06
		c0.2,0,0.38-0.05,0.55-0.14c0.21,0.33,0.58,0.55,1,0.55c0.42,0,0.79-0.22,1-0.55c0.17,0.09,0.35,0.14,0.55,0.14
		c0.61,0,1.12-0.47,1.18-1.06c0.64-0.01,1.16-0.54,1.16-1.19C47.18,32.31,47.07,32.04,46.89,31.83 M45.82,33.31l-0.9-1.76
		c-0.04-0.07-0.12-0.1-0.2-0.07c-0.08,0.03-0.11,0.12-0.08,0.2l0.84,1.94c-0.03,0.39-0.36,0.7-0.75,0.7c-0.14,0-0.26-0.04-0.38-0.1
		l-0.36-1.96c-0.01-0.08-0.09-0.14-0.17-0.12c-0.08,0.01-0.14,0.08-0.13,0.16l0.22,2.04c-0.12,0.22-0.35,0.36-0.61,0.38
		c-0.26-0.02-0.49-0.16-0.61-0.38l0.22-2.04c0.01-0.08-0.05-0.15-0.13-0.16c-0.08-0.01-0.16,0.04-0.17,0.12l-0.36,1.96
		c-0.11,0.06-0.24,0.1-0.38,0.1c-0.4,0-0.72-0.31-0.75-0.7l0.84-1.94c0.03-0.08,0-0.16-0.08-0.2c-0.07-0.03-0.16,0-0.2,0.07
		l-0.9,1.76c-0.42,0-0.76-0.34-0.76-0.76c0-0.16,0.01-0.29,0.1-0.41l1.44-1.72v-0.78c0-0.09,0.06-0.16,0.15-0.16h0.72l0.63-0.63
		c0.07-0.07,0.16-0.11,0.26-0.11c0.1,0,0.19,0.04,0.26,0.11l0.62,0.63h0.72c0.09,0,0.15,0.07,0.15,0.16v0.78l1.44,1.72
		c0.08,0.11,0.1,0.25,0.1,0.41C46.58,32.98,46.24,33.31,45.82,33.31"/>
	<path d="M15.74,31.83c-0.29-0.35-1.32-1.59-1.34-1.61v-0.67c0-0.32-0.25-0.58-0.57-0.58h-0.59c-0.07-0.06-0.54-0.53-0.54-0.54
		c-0.15-0.15-0.35-0.23-0.56-0.23c-0.21,0-0.41,0.08-0.56,0.23c0,0.01-0.47,0.47-0.54,0.54h-0.59c-0.32,0-0.57,0.26-0.57,0.58v0.67
		c-0.02,0.02-1.05,1.26-1.34,1.61c-0.18,0.21-0.29,0.48-0.29,0.77c0,0.65,0.52,1.17,1.16,1.19c0.06,0.6,0.56,1.06,1.18,1.06
		c0.2,0,0.38-0.05,0.55-0.14c0.21,0.33,0.58,0.55,1,0.55c0.42,0,0.79-0.22,1-0.55c0.17,0.09,0.35,0.14,0.55,0.14
		c0.61,0,1.12-0.47,1.18-1.06c0.64-0.01,1.16-0.54,1.16-1.19C16.03,32.31,15.92,32.04,15.74,31.83 M14.67,33.31l-0.9-1.76
		c-0.04-0.07-0.12-0.1-0.2-0.07c-0.08,0.03-0.11,0.12-0.08,0.2l0.84,1.94c-0.03,0.39-0.36,0.7-0.75,0.7c-0.14,0-0.26-0.04-0.38-0.1
		l-0.36-1.96c-0.02-0.08-0.09-0.14-0.17-0.12c-0.08,0.01-0.14,0.08-0.13,0.16l0.22,2.04c-0.12,0.22-0.35,0.36-0.61,0.38
		c-0.26-0.02-0.49-0.16-0.61-0.38l0.22-2.04c0.01-0.08-0.05-0.15-0.13-0.16c-0.08-0.01-0.16,0.04-0.17,0.12l-0.36,1.96
		c-0.11,0.06-0.24,0.1-0.38,0.1c-0.4,0-0.72-0.31-0.75-0.7l0.84-1.94c0.03-0.08,0-0.16-0.08-0.2c-0.07-0.03-0.16,0-0.2,0.07
		l-0.9,1.76c-0.42,0-0.76-0.34-0.76-0.76c0-0.16,0.01-0.29,0.1-0.41l1.44-1.72v-0.78c0-0.09,0.06-0.16,0.15-0.16h0.72l0.62-0.63
		c0.07-0.07,0.16-0.11,0.26-0.11c0.09,0,0.19,0.04,0.26,0.11l0.62,0.63h0.72c0.09,0,0.15,0.07,0.15,0.16v0.78l1.43,1.72
		c0.08,0.11,0.1,0.25,0.1,0.41C15.43,32.98,15.09,33.31,14.67,33.31"/>
</g>
</svg>
