<?xml version="1.0" encoding="UTF-8" standalone="no"?>
<!-- Created with Inkscape (http://www.inkscape.org/) -->

<svg
   xmlns:dc="http://purl.org/dc/elements/1.1/"
   xmlns:cc="http://creativecommons.org/ns#"
   xmlns:rdf="http://www.w3.org/1999/02/22-rdf-syntax-ns#"
   xmlns:svg="http://www.w3.org/2000/svg"
   xmlns="http://www.w3.org/2000/svg"
   xmlns:sodipodi="http://sodipodi.sourceforge.net/DTD/sodipodi-0.dtd"
   xmlns:inkscape="http://www.inkscape.org/namespaces/inkscape"
   width="48"
   height="48"
   viewBox="0 0 12.7 12.7"
   version="1.1"
   id="svg8"
   inkscape:version="0.92.4 (5da689c313, 2019-01-14)"
   sodipodi:docname="e0.svg">
  <defs
     id="defs2" />
  <sodipodi:namedview
     id="base"
     pagecolor="#ffffff"
     bordercolor="#666666"
     borderopacity="1.0"
     inkscape:pageopacity="0.0"
     inkscape:pageshadow="2"
     inkscape:zoom="2.8"
     inkscape:cx="16.73825"
     inkscape:cy="70.494563"
     inkscape:document-units="mm"
     inkscape:current-layer="text817"
     showgrid="false"
     units="px"
     inkscape:window-width="1920"
     inkscape:window-height="1136"
     inkscape:window-x="0"
     inkscape:window-y="27"
     inkscape:window-maximized="1" />
  <metadata
     id="metadata5">
    <rdf:RDF>
      <cc:Work
         rdf:about="">
        <dc:format>image/svg+xml</dc:format>
        <dc:type
           rdf:resource="http://purl.org/dc/dcmitype/StillImage" />
        <dc:title />
      </cc:Work>
    </rdf:RDF>
  </metadata>
  <g
     inkscape:label="Layer 1"
     inkscape:groupmode="layer"
     id="layer1"
     transform="translate(0,-284.3)">
    <g
       aria-label="E0"
       transform="scale(1.0473381,0.95480149)"
       style="font-style:normal;font-weight:normal;font-size:8.83826447px;line-height:1.25;font-family:sans-serif;letter-spacing:0px;word-spacing:0px;fill:#000000;fill-opacity:1;stroke:none;stroke-width:0.22095659"
       id="text817">
      <path
         d="m 3.1545417,302.25775 v 5.30296 c 0,0.36237 -0.4419133,0.0796 -0.4861046,0.33586 0.00884,0.053 0.00884,0.0707 0.044191,0.10605 h 3.7651007 l 0.4949428,-1.00756 c -0.044191,-0.0884 -0.1237357,-0.15909 -0.2209566,-0.15909 -0.3888836,0 -0.132574,0.9457 -2.5542584,0.9457 -0.3358541,0 -0.3712071,-0.0265 -0.3800454,-0.22096 v -2.48355 h 1.2992249 c 0.1944418,0 0.2121183,0.0442 0.2209566,0.28282 v 0.31818 c 0.026515,0.0265 0.079544,0.0442 0.1148974,0.0442 0.035353,0 0.070706,-0.0177 0.1060592,-0.0442 v -1.5467 c -0.026515,-0.0265 -0.070706,-0.0442 -0.1060592,-0.0442 -0.044191,0 -0.079544,0.009 -0.1148974,0.0442 v 0.28283 c 0,0.24747 -0.044191,0.3005 -0.2209566,0.31818 H 3.8174115 v -2.47472 c 0,-0.19444 0.097221,-0.22095 0.2386331,-0.22095 h 0.1414123 c 2.2714339,0 1.9709329,0.94569 2.3774931,0.94569 0.097221,0 0.1767653,-0.0707 0.2209566,-0.15909 L 6.3009638,301.81584 H 2.7126284 c -0.035353,0.0353 -0.035353,0.0707 -0.044191,0.10606 0.044191,0.25631 0.4861046,-0.0442 0.4861046,0.33585 z"
         style="font-style:normal;font-variant:normal;font-weight:normal;font-stretch:normal;font-family:'Accanthis ADF Std No2';-inkscape-font-specification:'Accanthis ADF Std No2';stroke-width:0.22095659"
         id="path823" />
      <path
         d="m 8.3689797,305.44837 c 0.7468333,0 0.8617308,0.80428 0.8617308,1.40528 0,0.38446 -0.1590888,1.10478 -0.6584507,1.10478 -0.7026421,0 -0.86615,-0.83079 -0.86615,-1.40086 0,-0.37563 0.1811845,-1.1092 0.6628699,-1.1092 z m 0.092802,-0.0972 c -0.7556716,0 -1.1268787,0.68496 -1.1268787,1.34783 0,0.66287 0.3844645,1.34784 1.1268787,1.34784 0.7556717,0 1.1312979,-0.68055 1.1312979,-1.34784 0,-0.66729 -0.3888836,-1.34783 -1.1312979,-1.34783 z"
         style="font-style:normal;font-variant:normal;font-weight:normal;font-stretch:normal;font-size:4.41913223px;font-family:'Accanthis ADF Std No2';-inkscape-font-specification:'Accanthis ADF Std No2';stroke-width:0.22095659"
         id="path825" />
    </g>
  </g>
</svg>
