<?xml version="1.0" encoding="utf-8"?>
<!-- Generator: Adobe Illustrator 23.0.6, SVG Export Plug-In . SVG Version: 6.00 Build 0)  -->
<svg version="1.1" id="ulaval-logo-footer" xmlns="http://www.w3.org/2000/svg" xmlns:xlink="http://www.w3.org/1999/xlink" x="0px" y="0px"
	 width="262px" height="107.9px" viewBox="0 0 262 107.9" style="enable-background:new 0 0 262 107.9;" xml:space="preserve">
<style type="text/css">
	#ulaval-logo-footer .st0{fill:#FFFFFF;}
	#ulaval-logo-footer .st1{fill:#EB1A21;}
	#ulaval-logo-footer .st2{fill:#FFC40A;}
	#ulaval-logo-footer .st3{fill:#00A4ED;}
	#ulaval-logo-footer .st4{fill:#D7D8DA;}
</style>
<g>
	<g>
		<path class="st0" d="M115.1,13.9h2.7V27c0,3.3-2.5,6.8-7.8,6.8c-5,0-7.8-2.5-7.8-6.6V13.9h3v12.8c0,3.3,1.7,5,5.1,5
			c3.5,0,5-2.5,5-5V13.9H115.1z"/>
		<path class="st0" d="M126.1,13.9h-2.5v19.6h2.5V18.5l11.6,14.9h2.7V13.9h-2.5v15.1L126.1,13.9z"/>
		<path class="st0" d="M149.6,13.9v19.6h-3V13.9H149.6z"/>
		<path class="st0" d="M153.8,13.9h3l4.8,14.6l5.3-14.6h2.5l-7.5,19.6h-1.5L153.8,13.9z"/>
		<path class="st0" d="M184.9,13.9v2h-8.6v6.3h7v2h-7v7h8.6v2h-11.6V13.9H184.9z"/>
		<path class="st0" d="M197.9,24.1l0.3-0.2c1.5-0.5,3.6-2.8,3.6-5.3c0-2.3-2.2-4.8-7-4.8h-5.3v19.6h3V15.7h2.2
			c3.2,0,4.3,1.8,4.3,3.3c0,1.7-1.3,4-4.3,4c0,0-0.5,0-0.7,0l6.6,10.3h3.5L197.9,24.1z"/>
		<path class="st0" d="M216,28.8c0-1.8-1.7-2.8-3.8-4.1l-0.7-0.3c-2.2-1.3-4.6-3-4.6-5.8s2.5-5,5.8-5c2.8,0,4.5,0.7,5.1,1
			c0,0.2-0.7,1.8-0.8,2c-0.7-0.3-2-0.8-3.8-0.8c-2.2,0-3.5,1-3.5,2.3c0,1.8,1.5,2.7,3.3,3.8l0.8,0.5h0.2c2,1.2,4.8,3.2,4.8,5.8
			c0,3.3-3.5,5.6-6.8,5.6c-3.2,0-5-0.8-5.8-1.3c0-0.2,0.8-1.7,0.8-1.8l0,0c0.8,0.3,2.5,1.2,5,1.2C214.3,31.6,216,30.3,216,28.8z"/>
		<path class="st0" d="M226.9,13.9v19.6h-3V13.9H226.9z"/>
		<path class="st0" d="M246.5,13.9v2h-6.3v17.4h-3V15.8h-6.5v-2L246.5,13.9L246.5,13.9z"/>
		<g>
			<path class="st0" d="M253.3,15.8v6.3h7v2h-7v7c0,0,8.5,0,8.6,0v2h-11.6V13.9h11.6v2L253.3,15.8L253.3,15.8z"/>
			<path class="st0" d="M259.1,7.4l1.2,1.7l-5,2.8l-0.7-1L259.1,7.4z"/>
		</g>
	</g>
	<g>
		<path class="st0" d="M188.8,41.1v0.2c4.1,1.7,1.8,7,0,11.4l-9.1,23.1l-13.3-34.8h-9v0.2c2.7,2,4,6,5.3,9.1l12.8,33h6.5l16.9-42.3
			L188.8,41.1L188.8,41.1z"/>
		<path class="st0" d="M261.9,77c-2.5,1.2-5.1,1.7-8.1,1.7h-9.1V41.1h-10v0.2c3.2,1,3,6,3,9v33c-3.3-1.7-5-5.5-6.5-9.1l-13.9-33
			h-10.6v0.2c3.2,1,2,3.6,1,6l-11.3,26.9c-1.5,3.6-3.2,7.5-6.5,9.1v0.2h8.5l4.3-11.1h20.6l4.5,11.1h34.3L261.9,77L261.9,77z
			 M204.3,67.4l8.5-20.9l8.5,20.9C221.3,67.4,204.3,67.4,204.3,67.4z"/>
		<path class="st0" d="M161.1,74.1l-13.9-33h-10.6v0.2c3.2,1,2,3.6,1,6l0,0l0,0l-11.3,26.9c-0.5,1.3-1.2,2.7-1.8,4
			c-1.7,0.5-3.3,0.7-5.1,0.7h-9.1V41.1h-10v0.2c3.2,1,3,6,3,8.8v33.2H128l4.3-11.1h20.6l0,0l4.5,11.1h10.1V83
			C164.2,81.4,162.5,77.7,161.1,74.1z M134.2,67.4l8.5-20.9l8.5,20.9C151.1,67.4,134.2,67.4,134.2,67.4z"/>
	</g>
	<path class="st0" d="M0,0.1v84.3c0,7.3,5.6,12.9,12.8,12.9h20.1c2.7,0,6.1,1.8,8,6.8l1,2.8c0.2,0.7,0.5,1,1,1c0.3,0,0.7-0.3,1-1
		l1-2.8c1.8-5.1,5.3-6.8,8-6.8h20.1c7.1,0,12.8-5.6,12.8-12.9V0.1H0z"/>
	<g>
		<rect x="2.2" y="2.1" class="st1" width="33" height="39"/>
		<path class="st1" d="M2.2,56.1v28.2c0,6.3,5,10.9,10.6,10.9h20.1c0.7,0,1.5,0.2,2.3,0.3V56.1H2.2z"/>
		<rect x="50.3" y="2.1" class="st1" width="33" height="39"/>
		<path class="st1" d="M50.3,95.5c0.8-0.2,1.5-0.3,2.3-0.3h20.1c5.8,0,10.6-4.6,10.6-10.9V56h-33V95.5z"/>
	</g>
	<path class="st2" d="M50.3,41.1v-39H35.2v39h-33v15.1h33v39.3c2.8,0.8,6,3.2,7.6,8c1.7-4.8,4.6-7.1,7.6-8V56.1h32.8V41.1
		C83.3,41.1,50.3,41.1,50.3,41.1z"/>
	<g>
		<path d="M14.3,18.2c0,0.2-0.2,0.5-0.3,0.5c-0.3,0.2-1.3,0.2-1.7,0.2c0,0-0.5,0.8-1.2,0.8c-0.7,0-1.2-0.8-1.2-0.8
			c-0.3,0.2-1.3,0-1.7-0.2C8.1,18.5,8,18.3,8,18.2c0.2-0.8,0.8-3.3,1.2-4.3l-1.3,0.5c-0.2,1-1,2.7-2.2,2.8c-0.2,0-0.5,0-0.3-0.2
			c0.2-1.3,1-7.6,1.2-8.3c0.2-0.7,0.3-0.8,0.7-1c0.3-0.2,0.7,0,1.2,0.3c0.3,0.3,1.5,1.5,1.5,1.5s0.2-1,0.2-1.3c-0.2,0-0.3,0-0.3,0
			C9.5,8.2,9.3,8,9.3,7.9l0.2-1.3c0-0.2,0-0.2,0.2-0.3c0,0,0.5-0.3,1-0.5c0.5-0.2,0.8-0.2,0.8-0.2c0.3,0,0.7,0.2,0.8,0.3
			c0.3,0.2,0.3,0.5,0.5,0.8l0.3,2.7c0,0,1.2-1.2,1.5-1.5c0.5-0.3,0.8-0.5,1.2-0.3c0.5,0.2,0.7,0.3,0.7,1c0.2,0.7,1,7,1.2,8.3
			c0,0.2-0.2,0.2-0.3,0.2c-1.2-0.2-2-1.8-2.2-2.8l-1.3-0.5C13.4,14.7,14.1,17.3,14.3,18.2z"/>
		<path d="M29.4,18.2c0,0.2-0.2,0.5-0.3,0.5c-0.3,0.2-1.3,0.2-1.7,0.2c0,0-0.5,0.8-1.2,0.8c-0.7,0-1.2-0.8-1.2-0.8
			c-0.3,0.2-1.3,0-1.7-0.2c-0.2-0.2-0.3-0.3-0.3-0.5c0.2-0.8,0.8-3.3,1.2-4.3l-1.3,0.5c-0.2,1-1,2.7-2.2,2.8c-0.2,0-0.5,0-0.3-0.2
			c0.2-1.3,1-7.6,1.2-8.3c0.2-0.7,0.3-0.8,0.7-1c0.3-0.2,0.7,0,1.2,0.3c0.3,0.3,1.5,1.5,1.5,1.5s0.2-1,0.2-1.3c-0.2,0-0.3,0-0.3,0
			c-0.2,0-0.3-0.2-0.3-0.3l0.2-1.3c0-0.2,0-0.2,0.2-0.3c0,0,0.5-0.3,1-0.5c0.5-0.2,0.8-0.2,0.8-0.2c0.3,0,0.7,0.2,0.8,0.3
			c0.3,0.2,0.3,0.5,0.5,0.8l0.3,2.7c0,0,1.2-1.2,1.5-1.5c0.5-0.3,0.7-0.5,1.2-0.3c0.5,0.2,0.7,0.3,0.7,1c0.2,0.7,1,7,1.2,8.3
			c0,0.2-0.2,0.2-0.3,0.2c-1.2-0.2-2-1.8-2.2-2.8l-1.3-0.5C28.5,14.7,29.2,17.3,29.4,18.2z"/>
		<path d="M14.3,35.9c0,0.2-0.2,0.5-0.3,0.5c-0.3,0.2-1.3,0.2-1.7,0.2c0,0-0.5,0.8-1.2,0.8c-0.7,0-1.2-0.8-1.2-0.8
			c-0.3,0.2-1.3,0-1.7-0.2C8.1,36.2,8,36.1,8,35.9c0.2-0.8,0.8-3.3,1.2-4.3l-1.3,0.5c-0.2,1-1,2.7-2.2,2.8c-0.2,0-0.5,0-0.3-0.2
			c0.2-1.3,1-7.6,1.2-8.3c0.2-0.7,0.3-0.8,0.7-1c0.3-0.2,0.7,0,1.2,0.3c0.3,0.3,1.5,1.5,1.5,1.5s0.2-1,0.2-1.3c-0.2,0-0.3,0-0.3,0
			c-0.2,0-0.3-0.2-0.3-0.3l0.2-1.3c0-0.2,0-0.2,0.2-0.3c0,0,0.5-0.3,1-0.5c0.5-0.2,0.8-0.2,0.8-0.2c0.3,0,0.7,0.2,0.8,0.3
			c0.3,0.2,0.3,0.5,0.5,0.8l0.3,2.7c0,0,1.2-1.2,1.5-1.5c0.5-0.3,0.7-0.5,1.2-0.3c0.5,0.2,0.7,0.5,0.7,1c0.2,0.7,1,7,1.2,8.3
			c0,0.2-0.2,0.2-0.3,0.2c-1.2-0.2-2-1.8-2.2-2.8l-1.3-0.5C13.4,32.6,14.1,35.3,14.3,35.9z"/>
		<path d="M29.4,35.9c0,0.2-0.2,0.5-0.3,0.5c-0.3,0.2-1.3,0.2-1.7,0.2c0,0-0.5,0.8-1.2,0.8c-0.7,0-1.2-0.8-1.2-0.8
			c-0.3,0.2-1.3,0-1.7-0.2c-0.2-0.2-0.3-0.3-0.3-0.5c0.2-0.8,0.8-3.3,1.2-4.3l-1.3,0.5c-0.2,1-1,2.7-2.2,2.8c-0.2,0-0.5,0-0.3-0.2
			c0.2-1.3,1-7.6,1.2-8.3c0.2-0.7,0.3-0.8,0.7-1c0.3-0.2,0.7,0,1.2,0.3c0.3,0.3,1.5,1.5,1.5,1.5s0.2-1,0.2-1.3c-0.2,0-0.3,0-0.3,0
			c-0.2,0-0.3-0.2-0.3-0.3l0.2-1.3c0-0.2,0-0.2,0.2-0.3c0,0,0.5-0.3,1-0.5c0.5-0.2,0.8-0.2,0.8-0.2c0.3,0,0.7,0.2,0.8,0.3
			c0.3,0.2,0.3,0.5,0.5,0.8l0.3,2.7c0,0,1.2-1.2,1.5-1.5c0.5-0.3,0.7-0.5,1.2-0.3c0.5,0.2,0.7,0.5,0.7,1c0.2,0.7,1,7,1.2,8.3
			c0,0.2-0.2,0.2-0.3,0.2c-1.2-0.2-2-1.8-2.2-2.8l-1.3-0.5C28.5,32.6,29.2,35.3,29.4,35.9z"/>
		<path d="M62.4,18.2c0,0.2-0.2,0.5-0.3,0.5c-0.3,0.2-1.3,0.2-1.7,0.2c0,0-0.5,0.8-1.2,0.8s-1.2-0.8-1.2-0.8c-0.3,0.2-1.3,0-1.7-0.2
			c-0.2-0.2-0.3-0.3-0.3-0.5c0.2-0.8,0.8-3.3,1.2-4.3l-1.3,0.5c-0.2,1-1,2.7-2.2,2.8c-0.2,0-0.5,0-0.3-0.2c0.2-1.3,1-7.6,1.2-8.3
			s0.3-0.8,0.7-1c0.3-0.2,0.7,0,1.2,0.3c0.3,0.3,1.5,1.5,1.5,1.5s0.2-1,0.2-1.3c-0.2,0-0.3,0-0.3,0c-0.2,0-0.3-0.2-0.3-0.3l0.2-1.3
			c0-0.2,0-0.2,0.2-0.3c0,0,0.5-0.3,1-0.5c0.5-0.2,0.8-0.2,0.8-0.2c0.3,0,0.7,0.2,0.8,0.3c0.3,0.2,0.3,0.5,0.5,0.8l0.3,2.7
			c0,0,1.2-1.2,1.5-1.5c0.5-0.3,0.7-0.5,1.2-0.3c0.5,0.2,0.7,0.3,0.7,1c0.2,0.7,1,7,1.2,8.3c0,0.2-0.2,0.2-0.3,0.2
			c-1.2-0.2-2-1.8-2.2-2.8l-1.3-0.5C61.5,14.7,62.2,17.3,62.4,18.2z"/>
		<path d="M77.5,18.2c0,0.2-0.2,0.5-0.3,0.5c-0.3,0.2-1.3,0.2-1.7,0.2c0,0-0.5,0.8-1.2,0.8c-0.7,0-1.2-0.8-1.2-0.8
			c-0.3,0.2-1.3,0-1.7-0.2c-0.2-0.2-0.3-0.3-0.3-0.5c0.2-0.8,0.8-3.3,1.2-4.3L71,14.4c-0.2,1-1,2.7-2.2,2.8c-0.2,0-0.5,0-0.3-0.2
			c0.2-1.3,1-7.6,1.2-8.3c0.2-0.7,0.3-0.8,0.7-1c0.3-0.2,0.7,0,1.2,0.3C71.8,8.4,73,9.5,73,9.5s0.2-1,0.2-1.3c-0.2,0-0.3,0-0.3,0
			c-0.2,0-0.3-0.2-0.3-0.3l0.2-1.3c0-0.2,0-0.2,0.2-0.3c0,0,0.5-0.3,1-0.5c0.5-0.2,0.8-0.2,0.8-0.2c0.3,0,0.7,0.2,0.8,0.3
			c0.3,0.2,0.3,0.5,0.5,0.8l0.3,2.7c0,0,1.2-1.2,1.5-1.5c0.5-0.3,0.7-0.5,1.2-0.3c0.5,0.2,0.7,0.3,0.7,1c0.2,0.7,1,7,1.2,8.3
			c0,0.2-0.2,0.2-0.3,0.2c-1.2-0.2-2-1.8-2.2-2.8L77,13.7C76.6,14.7,77.3,17.3,77.5,18.2z"/>
		<path d="M62.4,35.9c0,0.2-0.2,0.5-0.3,0.5c-0.3,0.2-1.3,0.2-1.7,0.2c0,0-0.5,0.8-1.2,0.8s-1.2-0.8-1.2-0.8c-0.3,0.2-1.3,0-1.7-0.2
			c-0.2-0.2-0.3-0.3-0.3-0.5c0.2-0.8,0.8-3.3,1.2-4.3l-1.3,0.5c-0.2,1-1,2.7-2.2,2.8c-0.2,0-0.5,0-0.3-0.2c0.2-1.3,1-7.6,1.2-8.3
			s0.3-0.8,0.7-1c0.3-0.2,0.7,0,1.2,0.3c0.3,0.3,1.5,1.5,1.5,1.5s0.2-1,0.2-1.3c-0.2,0-0.3,0-0.3,0c-0.2,0-0.3-0.2-0.3-0.3l0.2-1.3
			c0-0.2,0-0.2,0.2-0.3c0,0,0.5-0.3,1-0.5c0.5-0.2,0.8-0.2,0.8-0.2c0.3,0,0.7,0.2,0.8,0.3c0.3,0.2,0.3,0.5,0.5,0.8l0.3,2.7
			c0,0,1.2-1.2,1.5-1.5c0.5-0.3,0.7-0.5,1.2-0.3c0.5,0.2,0.7,0.5,0.7,1c0.2,0.7,1,7,1.2,8.3c0,0.2-0.2,0.2-0.3,0.2
			c-1.2-0.2-2-1.8-2.2-2.8l-1.3-0.5C61.5,32.6,62.2,35.3,62.4,35.9z"/>
		<path d="M77.5,35.9c0,0.2-0.2,0.5-0.3,0.5c-0.3,0.2-1.3,0.2-1.7,0.2c0,0-0.5,0.8-1.2,0.8c-0.7,0-1.2-0.8-1.2-0.8
			c-0.3,0.2-1.3,0-1.7-0.2c-0.2-0.2-0.3-0.3-0.3-0.5c0.2-0.8,0.8-3.3,1.2-4.3L71,32.1c-0.2,1-1,2.7-2.2,2.8c-0.2,0-0.5,0-0.3-0.2
			c0.2-1.3,1-7.6,1.2-8.3s0.3-0.8,0.7-1c0.3-0.2,0.7,0,1.2,0.3c0.3,0.3,1.5,1.5,1.5,1.5s0.2-1,0.2-1.3c-0.2,0-0.3,0-0.3,0
			c-0.2,0-0.3-0.2-0.3-0.3l0.2-1.3c0-0.2,0-0.2,0.2-0.3c0,0,0.5-0.3,1-0.5c0.5-0.2,0.8-0.2,0.8-0.2c0.3,0,0.7,0.2,0.8,0.3
			c0.3,0.2,0.3,0.5,0.5,0.8l0.3,2.7c0,0,1.2-1.2,1.5-1.5c0.5-0.3,0.7-0.5,1.2-0.3c0.5,0.2,0.7,0.5,0.7,1c0.2,0.7,1,7,1.2,8.3
			c0,0.2-0.2,0.2-0.3,0.2c-1.2-0.2-2-1.8-2.2-2.8L77,31.4C76.6,32.6,77.3,35.3,77.5,35.9z"/>
		<path d="M14.3,72.2c0,0.2-0.2,0.5-0.3,0.5c-0.3,0.2-1.3,0.2-1.7,0.2c0,0-0.5,0.8-1.2,0.8c-0.7,0-1.3-0.8-1.3-0.8
			c-0.3,0.2-1.3,0-1.7-0.2c-0.2-0.2-0.3-0.3-0.3-0.5C8,71.4,8.6,68.9,9,67.9l-1.3,0.5c-0.3,1.2-1,2.7-2.3,2.8c-0.2,0-0.5,0-0.3-0.2
			c0.2-1.3,1-7.6,1.2-8.3c0.2-0.7,0.3-0.8,0.7-1c0.3-0.2,0.7,0,1.2,0.3c0.3,0.3,1.5,1.5,1.5,1.5s0.2-1,0.2-1.3c-0.2,0-0.3,0-0.3,0
			C9.1,62.3,9,62.1,9,62l0.2-1.3c0-0.2,0-0.2,0.2-0.3c0,0,0.5-0.3,1-0.5c0.5-0.2,0.8-0.2,0.8-0.2c0.3,0,0.7,0.2,0.8,0.3
			c0.3,0.2,0.3,0.5,0.5,0.8l0.3,2.7c0,0,1.2-1.2,1.5-1.5c0.5-0.3,0.7-0.5,1.2-0.3c0.5,0.2,0.7,0.3,0.7,1c0.2,0.7,1,7,1.2,8.3
			c0,0.2-0.2,0.2-0.3,0.2c-1.2-0.2-2-1.8-2.2-2.8l-1.7-0.3C13.4,68.9,14.1,71.6,14.3,72.2z"/>
		<path d="M29.4,72.2c0,0.2-0.2,0.5-0.3,0.5c-0.3,0.2-1.3,0.2-1.7,0.2c0,0-0.5,0.8-1.2,0.8c-0.7,0-1.2-0.8-1.2-0.8
			c-0.3,0.2-1.3,0-1.7-0.2c-0.2-0.2-0.3-0.3-0.3-0.5c0.2-0.8,0.8-3.3,1.2-4.3l-1.3,0.5c-0.2,1-1,2.7-2.2,2.8c-0.2,0-0.5,0-0.3-0.2
			c0.2-1.3,1-7.6,1.2-8.3c0.2-0.7,0.3-0.8,0.7-1c0.3-0.2,0.7,0,1.2,0.3c0.3,0.3,1.5,1.5,1.5,1.5s0.2-1,0.2-1.3c-0.2,0-0.3,0-0.3,0
			c-0.2,0-0.3-0.2-0.3-0.3l0.2-1.3c0-0.2,0-0.2,0.2-0.3c0,0,0.5-0.3,1-0.5c0.5-0.2,0.8-0.2,0.8-0.2c0.3,0,0.7,0.2,0.8,0.3
			c0.3,0.2,0.3,0.5,0.5,0.8l0.3,2.7c0,0,1.2-1.2,1.5-1.5c0.5-0.3,0.7-0.5,1.2-0.3c0.5,0.2,0.7,0.3,0.7,1c0.2,0.7,1,7,1.2,8.3
			c0,0.2-0.2,0.2-0.3,0.2c-1.2-0.2-2-1.8-2.2-2.8l-2-0.3C28.5,68.9,29.2,71.6,29.4,72.2z"/>
		<path d="M14.3,90.2c0,0.2-0.2,0.5-0.3,0.5c-0.3,0.2-1.3,0.2-1.7,0.2c0,0-0.5,0.8-1.2,0.8c-0.7,0-1.2-0.8-1.2-0.8
			c-0.3,0.2-1.3,0-1.7-0.2C8.1,90.5,8,90.3,8,90.2c0.2-0.8,0.8-3.3,1.2-4.3l-1.3,0.5c-0.2,1-1,2.7-2.2,2.8c-0.2,0-0.5,0-0.3-0.2
			c0.2-1.3,1-7.6,1.2-8.3c0.2-0.7,0.3-0.8,0.7-1s0.7,0,1.2,0.3c0.3,0.3,1.5,1.5,1.5,1.5s0.2-1,0.2-1.3c-0.2,0-0.3,0-0.3,0
			c-0.2,0-0.3-0.2-0.3-0.3l0.2-1.3c0-0.2,0-0.2,0.2-0.3c0,0,0.5-0.3,1-0.5c0.5-0.2,0.8-0.2,0.8-0.2c0.3,0,0.7,0.2,0.8,0.3
			c0.3,0.2,0.3,0.5,0.5,0.8l0.3,2.7c0,0,1.2-1.2,1.5-1.5c0.5-0.3,0.7-0.5,1.2-0.3c0.5,0.2,0.7,0.3,0.7,1c0.2,0.7,1,7,1.2,8.3
			c0,0.2-0.2,0.2-0.3,0.2c-1.2-0.2-2-1.8-2.2-2.8l-1.3-0.5C13.4,86.7,14.1,89.3,14.3,90.2z"/>
		<path d="M29.4,90.2c0,0.2-0.2,0.5-0.3,0.5c-0.3,0.2-1.3,0.2-1.7,0.2c0,0-0.5,0.8-1.2,0.8c-0.7,0-1.2-0.8-1.2-0.8
			c-0.3,0.2-1.3,0-1.7-0.2c-0.2-0.2-0.3-0.3-0.3-0.5c0.2-0.8,0.8-3.3,1.2-4.3l-1.3,0.5c-0.2,1-1,2.7-2.2,2.8c-0.2,0-0.5,0-0.3-0.2
			c0.2-1.3,1-7.6,1.2-8.3c0.2-0.7,0.3-0.8,0.7-1c0.3-0.2,0.7,0,1.2,0.3c0.3,0.3,1.5,1.5,1.5,1.5s0.2-1,0.2-1.3c-0.2,0-0.3,0-0.3,0
			c-0.2,0-0.3-0.2-0.3-0.3l0.2-1.3c0-0.2,0-0.2,0.2-0.3c0,0,0.5-0.3,1-0.5c0.5-0.2,0.8-0.2,0.8-0.2c0.3,0,0.7,0.2,0.8,0.3
			c0.3,0.2,0.3,0.5,0.5,0.8l0.3,2.7c0,0,1.2-1.2,1.5-1.5c0.5-0.3,0.7-0.5,1.2-0.3c0.5,0.2,0.7,0.3,0.7,1c0.2,0.7,1,7,1.2,8.3
			c0,0.2-0.2,0.2-0.3,0.2c-1.2-0.2-2-1.8-2.2-2.8l-1.3-0.5C28.5,86.7,29.2,89.3,29.4,90.2z"/>
		<path d="M62.4,72.2c0,0.2-0.2,0.5-0.3,0.5c-0.3,0.2-1.3,0.2-1.7,0.2c0,0-0.5,0.8-1.2,0.8s-1.2-0.8-1.2-0.8c-0.3,0.2-1.3,0-1.7-0.2
			c-0.2-0.2-0.3-0.3-0.3-0.5c0.2-0.8,0.8-3.3,1.2-4.3l-1.3,0.5c-0.5,1.2-1.2,2.7-2.5,2.8c-0.2,0-0.5,0-0.3-0.2
			c0.2-1.3,1-7.6,1.2-8.3c0.2-0.7,0.3-0.8,0.7-1c0.3-0.2,0.7,0,1.2,0.3c0.3,0.3,1.5,1.5,1.5,1.5s0.2-1,0.2-1.3c-0.2,0-0.3,0-0.3,0
			c-0.2,0-0.3-0.2-0.3-0.3l0.2-1.3c0-0.2,0-0.2,0.2-0.3c0,0,0.5-0.3,1-0.5c0.5-0.2,0.8-0.2,0.8-0.2c0.3,0,0.7,0.2,0.8,0.3
			c0.3,0.2,0.3,0.5,0.5,0.8l0.3,2.7c0,0,1.2-1.2,1.5-1.5c0.5-0.3,0.7-0.5,1.2-0.3s0.7,0.3,0.7,1c0.2,0.7,1,7,1.2,8.3
			c0,0.2-0.2,0.2-0.3,0.2c-1.2-0.2-2-1.8-2.2-2.8l-1.7-0.3C61.5,68.9,62.2,71.6,62.4,72.2z"/>
		<path d="M77.5,72.2c0,0.2-0.2,0.5-0.3,0.5c-0.3,0.2-1.3,0.2-1.7,0.2c0,0-0.5,0.8-1.2,0.8c-0.7,0-1.2-0.8-1.2-0.8
			c-0.3,0.2-1.3,0-1.7-0.2c-0.2-0.2-0.3-0.3-0.3-0.5c0.2-0.8,0.8-3.3,1.2-4.3L71,68.4c-0.2,1-1,2.7-2.2,2.8c-0.2,0-0.5,0-0.3-0.2
			c0.2-1.3,1-7.6,1.2-8.3s0.3-0.8,0.7-1c0.3-0.2,0.7,0,1.2,0.3c0.3,0.3,1.5,1.5,1.5,1.5s0.2-1,0.2-1.3c-0.2,0-0.3,0-0.3,0
			c-0.2,0-0.3-0.2-0.3-0.3l0.2-1.3c0-0.2,0-0.2,0.2-0.3c0,0,0.5-0.3,1-0.5s0.8-0.2,0.8-0.2c0.3,0,0.7,0.2,0.8,0.3
			c0.3,0.2,0.3,0.5,0.5,0.8l0.3,2.7c0,0,1.2-1.2,1.5-1.5c0.5-0.3,0.7-0.5,1.2-0.3s0.7,0.3,0.7,1c0.2,0.7,1,7,1.2,8.3
			c0,0.2-0.2,0.2-0.3,0.2c-1.2-0.2-2-1.8-2.2-2.8l-2-0.3C76.6,68.9,77.3,71.6,77.5,72.2z"/>
		<path d="M62.4,90.2c0,0.2-0.2,0.5-0.3,0.5c-0.3,0.2-1.3,0.2-1.7,0.2c0,0-0.5,0.8-1.2,0.8s-1.2-0.8-1.2-0.8c-0.3,0.2-1.3,0-1.7-0.2
			c-0.2-0.2-0.3-0.3-0.3-0.5c0.2-0.8,0.8-3.3,1.2-4.3l-1.3,0.5c-0.2,1-1,2.7-2.2,2.8c-0.2,0-0.5,0-0.3-0.2c0.2-1.3,1-7.6,1.2-8.3
			c0.2-0.7,0.3-0.8,0.7-1c0.3-0.2,0.7,0,1.2,0.3c0.3,0.3,1.5,1.5,1.5,1.5s0.2-1,0.2-1.3c-0.2,0-0.3,0-0.3,0c-0.2,0-0.3-0.2-0.3-0.3
			l0.2-1.3c0-0.2,0-0.2,0.2-0.3c0,0,0.5-0.3,1-0.5c0.5-0.2,0.8-0.2,0.8-0.2c0.3,0,0.7,0.2,0.8,0.3c0.3,0.2,0.3,0.5,0.5,0.8l0.3,2.7
			c0,0,1.2-1.2,1.5-1.5c0.5-0.3,0.7-0.5,1.2-0.3c0.5,0.2,0.7,0.3,0.7,1c0.2,0.7,1,7,1.2,8.3c0,0.2-0.2,0.2-0.3,0.2
			c-1.2-0.2-2-1.8-2.2-2.8l-1.3-0.5C61.5,86.7,62.2,89.3,62.4,90.2z"/>
		<path d="M77.5,90.2c0,0.2-0.2,0.5-0.3,0.5c-0.3,0.2-1.3,0.2-1.7,0.2c0,0-0.5,0.8-1.2,0.8c-0.7,0-1.2-0.8-1.2-0.8
			c-0.3,0.2-1.3,0-1.7-0.2c-0.2-0.2-0.3-0.3-0.3-0.5c0.2-0.8,0.8-3.3,1.2-4.3L71,86.3c-0.2,1-1,2.7-2.2,2.8c-0.2,0-0.5,0-0.3-0.2
			c0.2-1.3,1-7.6,1.2-8.3c0.2-0.7,0.3-0.8,0.7-1c0.3-0.2,0.7,0,1.2,0.3c0.3,0.3,1.5,1.5,1.5,1.5s0.2-1,0.2-1.3c-0.2,0-0.3,0-0.3,0
			c-0.2,0-0.3-0.2-0.3-0.3l0.2-1.3c0-0.2,0-0.2,0.2-0.3c0,0,0.5-0.3,1-0.5s0.8-0.2,0.8-0.2c0.3,0,0.7,0.2,0.8,0.3
			c0.3,0.2,0.3,0.5,0.5,0.8l0.3,2.7c0,0,1.2-1.2,1.5-1.5c0.5-0.3,0.7-0.5,1.2-0.3s0.7,0.3,0.7,1c0.2,0.7,1,7,1.2,8.3
			c0,0.2-0.2,0.2-0.3,0.2c-1.2-0.2-2-1.8-2.2-2.8L77,85.7C76.6,86.7,77.3,89.3,77.5,90.2z"/>
	</g>
	<g>
		<path d="M42.6,27.1c0.7,0,1.2-0.3,1.5-0.8c0.3,0.2,0.7,0.2,1,0.2c1,0,1.7-0.7,1.8-1.7c1,0,1.8-0.8,1.8-1.8c0-0.5-0.2-0.8-0.5-1.2
			c-0.5-0.5-2-2.5-2-2.5c0-0.2,0-1,0-1c0-0.5-0.3-0.8-0.8-0.8h-0.8c-0.3-0.2-1.2-1-1.2-1c-0.2-0.2-0.5-0.3-0.8-0.3
			c-0.3,0-0.7,0.2-0.8,0.3c0,0-0.7,0.7-0.8,0.8h-0.8c-0.5,0-0.8,0.3-0.8,0.8v1c0,0-1.7,2-2,2.5c-0.3,0.3-0.5,0.7-0.5,1.2
			c0,1,0.8,1.8,1.8,1.8c0.2,1,0.8,1.7,1.8,1.7c0.3,0,0.7,0,0.8-0.2C41.5,26.8,42,27.1,42.6,27.1z"/>
		<path d="M42.6,54.2c0.7,0,1.2-0.3,1.5-0.8c0.3,0.2,0.5,0.2,0.8,0.2c1,0,1.7-0.7,1.8-1.7c1,0,1.8-0.8,1.8-1.8
			c0-0.5-0.2-0.8-0.5-1.2c-0.5-0.5-2-2.5-2-2.5c0-0.2,0-1,0-1c0-0.5-0.3-0.8-0.8-0.8h-0.8c-0.2-0.2-0.8-0.8-0.8-0.8
			c-0.2-0.2-0.5-0.3-0.8-0.3c-0.3,0-0.7,0.2-0.8,0.3c0,0-0.7,0.7-0.8,0.8h-0.8c-0.5,0-0.8,0.3-0.8,0.8v1c0,0-1.7,2-2,2.5
			C37.2,49.2,37,49.5,37,50c0,1,0.8,1.8,1.8,1.8c0.2,1,0.8,1.7,1.8,1.7c0.3,0,0.7,0,0.8-0.2C41.5,53.8,42,54.2,42.6,54.2z"/>
		<path d="M18.6,54.2c0.7,0,1.2-0.3,1.5-0.8c0.3,0.2,0.5,0.2,0.8,0.2c1,0,1.7-0.7,1.8-1.7c1,0,1.8-0.8,1.8-1.8
			c0-0.5-0.2-0.8-0.5-1.2c-0.5-0.5-2-2.5-2-2.5c0-0.2,0-1,0-1c0-0.5-0.3-0.8-0.8-0.8h-0.8c-0.2-0.2-0.8-0.8-0.8-0.8
			c-0.2-0.2-0.5-0.3-0.8-0.3s-0.7,0.2-0.8,0.3c0,0-0.7,0.7-0.8,0.8h-0.8c-0.5,0-0.8,0.3-0.8,0.8v1c0,0-1.7,2-2,2.5
			c-0.3,0.3-0.5,0.7-0.5,1.2c0,1,0.8,1.8,1.8,1.8c0.2,1,0.8,1.7,1.8,1.7c0.3,0,0.7,0,0.8-0.2C17.4,53.8,17.9,54.2,18.6,54.2z"/>
		<path d="M66.7,54.2c0.7,0,1.2-0.3,1.5-0.8c0.3,0.2,0.5,0.2,0.8,0.2c1,0,1.7-0.7,1.8-1.7c1,0,1.8-0.8,1.8-1.8
			c0-0.5-0.2-0.8-0.5-1.2c-0.5-0.5-2-2.5-2-2.5c0-0.2,0-1,0-1c0-0.5-0.3-0.8-0.8-0.8h-0.8c-0.2-0.2-0.8-0.8-0.8-0.8
			c-0.2-0.2-0.5-0.3-0.8-0.3s-0.7,0.2-0.8,0.3c0,0-0.7,0.7-0.8,0.8h-0.8c-0.5,0-0.8,0.3-0.8,0.8v1c0,0-1.7,2-2,2.5
			C61.2,49.2,61,49.5,61,50c0,1,0.8,1.8,1.8,1.8c0.2,1,0.8,1.7,1.8,1.7c0.3,0,0.7,0,0.8-0.2C65.5,53.8,66,54.2,66.7,54.2z"/>
		<path d="M42.6,81.2c0.7,0,1.2-0.3,1.5-0.8c0.3,0.2,0.5,0.2,0.8,0.2c1,0,1.7-0.7,1.8-1.7c1,0,1.8-0.8,1.8-1.8
			c0-0.5-0.2-0.8-0.5-1.2c-0.5-0.5-2-2.5-2-2.5c0-0.2,0-1,0-1c0-0.5-0.3-0.8-0.8-0.8h-0.8c-0.2-0.2-0.8-0.8-0.8-0.8
			c-0.2-0.2-0.5-0.3-0.8-0.3c-0.3,0-0.7,0.2-0.8,0.3c0,0-0.7,0.7-0.8,0.8h-0.8c-0.5,0-0.8,0.3-0.8,0.8v1c0,0-1.7,2-2,2.5
			C37.2,76.2,37,76.6,37,77c0,1,0.8,1.8,1.8,1.8c0.2,1,0.8,1.7,1.8,1.7c0.3,0,0.7,0,0.8-0.2C41.5,80.9,42,81.2,42.6,81.2z"/>
	</g>
	<g>
		<path class="st3" d="M42.6,26.5c0.5,0,0.8-0.3,1-0.7l-0.3-3.3c0-0.2,0.2-0.2,0.2-0.3c0.2,0,0.3,0,0.3,0.2l0.7,3.2
			c0.2,0.2,0.3,0.2,0.7,0.2c0.7,0,1.2-0.5,1.2-1.2l-1.3-3.2c0-0.2,0-0.3,0.2-0.3s0.3,0,0.3,0.2l1.5,2.8l0,0c0.7,0,1.2-0.5,1.2-1.2
			c0-0.3,0-0.5-0.2-0.7l-2.3-2.8V18c0-0.2-0.2-0.3-0.2-0.3h-1.2l-1-1c-0.2-0.2-0.3-0.2-0.3-0.2c-0.2,0-0.3,0-0.3,0.2l-1,1h-1.2
			c-0.2,0-0.3,0.2-0.3,0.3v1.3l-2.3,2.8c-0.2,0.2-0.2,0.3-0.2,0.7c0,0.7,0.5,1.2,1.2,1.2l0,0l1.5-2.8c0-0.2,0.2-0.2,0.3-0.2
			c0.2,0,0.2,0.2,0.2,0.3l-1.7,3.5c0,0.7,0.7,1.2,1.2,1.2c0.2,0,0.5,0,0.7-0.2l0.7-3.2c0-0.2,0.2-0.2,0.3-0.2c0.2,0,0.2,0.2,0.2,0.3
			l-0.3,3.3C41.8,26.3,42.3,26.5,42.6,26.5z"/>
		<path class="st3" d="M42.6,53.7c0.5,0,0.8-0.3,1-0.7l-0.3-3.3c0-0.2,0.2-0.2,0.2-0.3c0.2,0,0.3,0,0.3,0.2l0.7,3.2
			c0.2,0.2,0.3,0.2,0.7,0.2c0.7,0,1.2-0.5,1.2-1.2l-1.3-3.2c0-0.2,0-0.3,0.2-0.3s0.3,0,0.3,0.2l1.3,3l0,0c0.7,0,1.2-0.5,1.2-1.2
			c0-0.3,0-0.5-0.2-0.7l-2.3-2.8v-1.3c0-0.2-0.2-0.3-0.2-0.3h-1.2l-1-1c-0.2-0.2-0.3-0.2-0.3-0.2c-0.2,0-0.3,0-0.3,0.2l-1,1h-1.2
			c-0.2,0-0.3,0.2-0.3,0.3v1.3l-2.3,2.8c-0.2,0.2-0.2,0.3-0.2,0.7c0,0.7,0.5,1.2,1.2,1.2l0,0l1.5-2.8c0-0.2,0.2-0.2,0.3-0.2
			c0.2,0,0.2,0.2,0.2,0.3l-1.3,3.2c0,0.7,0.7,1.2,1.2,1.2c0.2,0,0.5,0,0.7-0.2l0.7-3.2c0-0.2,0.2-0.2,0.3-0.2c0.2,0,0.2,0.2,0.2,0.3
			L42,53.2C41.8,53.3,42.3,53.5,42.6,53.7z"/>
		<path class="st3" d="M18.6,53.7c0.5,0,0.8-0.3,1-0.7l-0.3-3.3c0-0.2,0.2-0.2,0.2-0.3c0.2,0,0.3,0,0.3,0.2l0.7,3.2
			c0.2,0.2,0.3,0.2,0.7,0.2c0.7,0,1.2-0.5,1.2-1.2l-1.3-3.2c0-0.2,0-0.3,0.2-0.3c0.2,0,0.3,0,0.3,0.2l1.5,2.8l0,0
			c0.7,0,1.2-0.5,1.2-1.2c0-0.3,0-0.5-0.2-0.7l-2.3-2.8v-1.3c0-0.2-0.2-0.3-0.2-0.3h-1.2l-1-1c-0.2-0.2-0.3-0.2-0.3-0.2
			s-0.3,0-0.3,0.2l-1,1h-1.2c-0.2,0-0.2,0.2-0.2,0.3v1.3l-2.3,2.8c-0.2,0.2-0.2,0.3-0.2,0.7c0,0.7,0.5,1.2,1.2,1.2l0,0l1.5-2.8
			c0-0.2,0.2-0.2,0.3-0.2c0.2,0,0.2,0.2,0.2,0.3l-1.3,3.2c0,0.7,0.7,1.2,1.2,1.2c0.2,0,0.5,0,0.7-0.2l0.7-3.2c0-0.2,0.2-0.2,0.3-0.2
			c0.2,0,0.2,0.2,0.2,0.3L18.2,53C17.7,53.3,18.1,53.5,18.6,53.7z"/>
		<path class="st3" d="M66.7,53.7c0.5,0,0.8-0.3,1-0.7l-0.3-3.3c0-0.2,0.2-0.2,0.2-0.3c0.2,0,0.3,0,0.3,0.2l0.7,3.2
			c0.2,0.2,0.3,0.2,0.7,0.2c0.7,0,1.2-0.5,1.2-1.2L69,48.5c0-0.2,0-0.3,0.2-0.3s0.3,0,0.3,0.2l1.5,2.8l0,0c0.7,0,1.2-0.5,1.2-1.2
			c0-0.3,0-0.5-0.2-0.7l-2.3-2.8v-1.3c0-0.2-0.2-0.3-0.2-0.3h-1.2l-1-1c-0.2-0.2-0.3-0.2-0.3-0.2c-0.2,0-0.3,0-0.3,0.2l-1,1h-1.2
			c-0.2,0-0.3,0.2-0.3,0.3v1.3l-2.3,2.8c-0.2,0.2-0.2,0.3-0.2,0.7c0,0.7,0.5,1.2,1.2,1.2l0,0l1.5-2.8c0-0.2,0.2-0.2,0.3-0.2
			c0.2,0,0.2,0.2,0.2,0.3l-1.3,3.2c0,0.7,0.7,1.2,1.2,1.2c0.2,0,0.5,0,0.7-0.2l0.7-3.2c0-0.2,0.2-0.2,0.3-0.2c0.2,0,0.2,0.2,0.2,0.3
			L66.2,53C65.8,53.3,66.3,53.5,66.7,53.7z"/>
		<path class="st3" d="M42.6,80.7c0.5,0,0.8-0.3,1-0.7l-0.3-3.3c0-0.2,0.2-0.2,0.2-0.3c0.2,0,0.3,0,0.3,0.2l0.7,3.2
			c0.2,0.2,0.3,0.2,0.7,0.2c0.7,0,1.2-0.5,1.2-1.2l-1.3-3.2c0-0.2,0-0.3,0.2-0.3s0.3,0,0.3,0.2l1.5,2.8l0,0c0.7,0,1.2-0.5,1.2-1.2
			c0-0.3,0-0.5-0.2-0.7l-2.3-2.8v-1.3c0-0.2-0.2-0.3-0.2-0.3h-1.2l-1-1c-0.2-0.2-0.3-0.2-0.3-0.2c-0.2,0-0.3,0-0.3,0.2l-1,1h-1.2
			c-0.2,0-0.3,0.2-0.3,0.3v1.3l-2.3,2.8c-0.2,0.2-0.2,0.3-0.2,0.7c0,0.7,0.5,1.2,1.2,1.2l0,0l1.5-2.8c0-0.2,0.2-0.2,0.3-0.2
			c0.2,0,0.2,0.2,0.2,0.3l-1.3,3.2c0,0.7,0.7,1.2,1.2,1.2c0.2,0,0.5,0,0.7-0.2l0.7-3.2c0-0.2,0.2-0.2,0.3-0.2c0.2,0,0.2,0.2,0.2,0.3
			L42.1,80C41.8,80.4,42.3,80.7,42.6,80.7z"/>
	</g>
	<g>
		<path class="st4" d="M13.6,18.2c-0.2,0.2-0.7,0.2-1,0.2h-0.2l0,0l-0.5-2.5c-0.2-0.5-0.5-0.3-0.3,0l0.3,2.5c0,0.2-0.5,0.7-0.8,0.7
			s-0.8-0.5-0.8-0.7l0.3-2.5c0-0.5-0.3-0.5-0.3,0l-0.7,2.3l0,0H9.5c-0.2,0-0.7,0-1-0.2c0.3-1.2,1-4,1.2-4.8c0-0.2,0-0.3-0.3-0.3
			c0,0,0,0-0.2,0C8.8,13,8,13.4,7.6,13.4l0.2-2c0-0.5-0.3-0.5-0.5-0.2C7,12.9,6.6,15.3,5.5,16c0.2-0.8,0.8-7,1-7.8
			c0-0.2,0-0.3,0.3-0.3c0.2,0,0.3,0,0.5,0.2l2,1.8C9.3,10,9.5,10,9.6,10c0.2,0,0.2-0.2,0.2-0.3l0.5-2c0-0.2,0-0.2,0-0.2l-0.2-0.2
			c0,0-0.2,0-0.3,0L10,6.7c0.2-0.2,0.8-0.3,1.2-0.5l0,0h0.2c0.2,0,0.3,0,0.5,0.2c0.2,0.2,0.2,0.2,0.2,0.3l0.3,3.3
			c0,0.2,0.2,0.2,0.2,0.3c0.2,0,0.3,0,0.3-0.2l2-1.8c0-0.2,0.2-0.2,0.3-0.2s0.2,0.2,0.3,0.3c0.2,0.8,1,7,1,7.8
			c-1.3-0.8-1.5-3.2-1.8-4.8c-0.2-0.5-0.5-0.3-0.5,0.2l0.2,2c-0.3-0.2-1.2-0.5-1.5-0.5h-0.2c-0.3,0-0.3,0.2-0.3,0.3
			C12.6,14.2,13.3,17,13.6,18.2z"/>
		<path class="st4" d="M28.7,18.2c-0.2,0.2-0.7,0.2-1,0.2h-0.2l0,0L27,16c-0.2-0.5-0.5-0.3-0.3,0l0.3,2.5c0,0.2-0.5,0.7-0.8,0.7
			s-0.7-0.7-0.8-0.7l0.3-2.5c0-0.5-0.3-0.5-0.3,0l-0.7,2.2l0,0h-0.2c-0.2,0-0.7,0-1-0.2c0.3-1.2,1-4,1.2-4.8c0-0.2,0-0.3-0.3-0.3
			c0,0,0,0-0.2,0c-0.3,0.2-1.2,0.5-1.5,0.5l0.2-2c0-0.5-0.3-0.5-0.5-0.2c-0.3,1.7-0.7,4.1-1.8,4.8c0.2-0.8,0.8-7,1-7.8
			c0.3,0.2,0.3,0,0.5,0c0.2,0,0.3,0,0.5,0.2l2,1.8c0,0.2,0.2,0.2,0.3,0.2c0.2,0,0.2-0.2,0.2-0.3l0.3-2.3c0-0.2,0-0.2,0-0.2l-0.2-0.2
			c0,0-0.2,0-0.3,0L25,6.7c0.2-0.2,0.8-0.3,1.2-0.5l0,0h0.2c0.2,0,0.3,0,0.5,0.2c-0.2,0,0,0.2,0,0.3l0.3,3.3c0,0.2,0.2,0.2,0.2,0.3
			c0.2,0,0.3,0,0.3-0.2l2-1.8c0.3-0.2,0.5-0.2,0.7-0.2c0.2,0,0.2,0.2,0.3,0.3c0.2,0.8,1,7,1,7.8c-1.3-0.8-1.5-3.2-1.8-4.8
			c-0.2-0.5-0.5-0.3-0.5,0.2l0.2,2c-0.3-0.2-1.2-0.5-1.5-0.5h-0.2c-0.3,0-0.3,0.2-0.3,0.3C27.7,14.2,28.4,17,28.7,18.2z"/>
		<path class="st4" d="M13.6,35.9c-0.2,0.2-0.7,0.2-1,0.2h-0.2l0,0l-0.5-2.5c-0.2-0.5-0.5-0.3-0.3,0.2l0.3,2.5
			c0,0.2-0.5,0.7-0.8,0.7s-0.8-0.7-0.8-0.7l0.3-2.5c0-0.5-0.3-0.5-0.3-0.2l-0.5,2.3l0,0H9.6c-0.2,0-0.7,0-1-0.2c0.3-1.2,1-4,1.2-4.8
			c0-0.2,0-0.3-0.3-0.3c0,0,0,0-0.2,0c-0.3,0.2-1.2,0.5-1.5,0.5l0.2-2c0-0.5-0.3-0.5-0.5-0.2c-0.3,1.7-0.7,4.1-1.8,4.8
			c0.2-0.8,0.8-7,1-7.8c0-0.2,0-0.3,0.3-0.3c0.2,0,0.3,0,0.5,0.2l2,1.8c0,0.2,0.2,0.2,0.3,0.2c0.2,0,0.2-0.2,0.2-0.3l0.3-2.3
			c0-0.2,0-0.2,0-0.2l-0.2-0.2c0,0-0.2,0-0.3,0l0.2-0.7c0.2-0.2,0.8-0.3,1.2-0.5l0,0h0.2c0.2,0,0.3,0,0.5,0.2
			c0.2,0.2,0.2,0.2,0.2,0.3l0.3,3.3c0,0.2,0.2,0.2,0.2,0.3c0.2,0,0.3,0,0.3-0.2l2-1.8c0.2-0.2,0.3-0.2,0.5-0.2
			c0.2,0,0.2,0.2,0.3,0.3c0.2,0.8,1,7,1,7.8c-1.3-0.8-1.5-3.2-1.8-4.8c-0.2-0.5-0.5-0.3-0.5,0.2l0.2,2c-0.3-0.2-1.2-0.5-1.5-0.5
			h-0.2c-0.3,0-0.3,0.2-0.3,0.3C12.6,32.1,13.3,34.8,13.6,35.9z"/>
		<path class="st4" d="M28.7,35.9c-0.2,0.2-0.7,0.2-1,0.2h-0.2l0,0L27,33.8c-0.2-0.5-0.5-0.3-0.3,0.2l0.3,2.5c0,0.2-0.5,0.7-0.8,0.7
			s-0.7-0.7-0.8-0.7l0.3-2.5c0-0.5-0.3-0.5-0.3-0.2l-0.5,2.3l0,0h-0.2c-0.2,0-0.7,0-1-0.2c0.3-1.2,1-4,1.2-4.8c0-0.2,0-0.3-0.3-0.3
			c0,0,0,0-0.2,0c-0.3,0.2-1.2,0.5-1.5,0.5l0.2-2c0-0.5-0.3-0.5-0.5-0.2c-0.3,1.7-0.7,4.1-1.8,4.8c0.2-0.8,0.8-7,1-7.8
			c0-0.2,0-0.3,0.3-0.3c0.2,0,0.3,0,0.5,0.2l2,1.8c0,0.2,0.2,0.2,0.3,0.2c0.2,0,0.2-0.2,0.2-0.3l0.3-2.3c0-0.2,0-0.2,0-0.2L25.2,25
			c0,0-0.2,0-0.3,0l0.2-0.7c0.2-0.2,0.8-0.3,1.2-0.5l0,0h0.2c0.2,0,0.3,0,0.5,0.2c0.2,0.2,0.2,0.2,0.2,0.3l0.3,3.3
			c0,0.2,0.2,0.2,0.2,0.3c0.2,0,0.3,0,0.3-0.2l2-1.8c0.2-0.2,0.3-0.2,0.5-0.2c0.2,0,0.2,0.2,0.3,0.3c0.2,0.8,1,7,1,7.8
			c-1.3-0.8-1.5-3.2-1.8-4.8c-0.2-0.5-0.5-0.3-0.5,0.2l0.2,2c-0.3-0.2-1.2-0.5-1.5-0.5h-0.2c-0.3,0-0.3,0.2-0.3,0.3
			C27.7,32.1,28.4,34.8,28.7,35.9z"/>
		<path class="st4" d="M61.7,18.2c-0.2,0.2-0.7,0.2-1,0.2h-0.2l0,0L60,15.8c-0.2-0.5-0.5-0.3-0.3,0l0.3,2.5c0,0.2-0.5,0.7-0.8,0.7
			c-0.3,0-0.7-0.7-0.8-0.7l0.3-2.5c0-0.5-0.3-0.5-0.3,0l-0.7,2.3l0,0h-0.2c-0.2,0-0.7,0-1-0.2c0.3-1.2,1-4,1.2-4.8
			c0-0.2,0-0.3-0.3-0.3c0,0,0,0-0.2,0c-0.3,0.2-1.2,0.5-1.5,0.5l0.2-2c0-0.5-0.3-0.5-0.5-0.2c-0.3,1.7-0.7,4.1-1.8,4.8
			c0.2-0.8,0.8-7,1-7.8c0-0.2,0-0.3,0.3-0.3c0.2,0,0.3,0,0.5,0.2l2,1.8c0,0.2,0.2,0.2,0.3,0.2c0.2,0,0.2-0.2,0.2-0.3l0.5-2
			c0-0.2,0-0.2,0-0.2c-0.2,0-0.2-0.2-0.3-0.2c0,0-0.2,0-0.3,0l0.2-0.7c0.2-0.2,0.8-0.3,1.2-0.5l0,0h0.2c0.2,0,0.3,0,0.5,0.2
			s0.2,0.2,0.2,0.3l0.3,3.3c0,0.2,0.2,0.2,0.2,0.3c0.2,0,0.3,0,0.3-0.2l2-1.8C63,8.2,63,8.2,63.2,8.2c0.2,0,0.2,0.2,0.3,0.3
			c0.2,0.8,1,7,1,7.8c-1.3-0.8-1.5-3.2-1.8-4.8c-0.2-0.5-0.5-0.3-0.5,0.2l0.2,2c-0.3-0.2-1.2-0.5-1.5-0.5h-0.2
			c-0.3,0-0.3,0.2-0.3,0.3C60.7,14.2,61.4,17,61.7,18.2z"/>
		<path class="st4" d="M76.8,18.2c-0.2,0.2-0.7,0.2-1,0.2h-0.2l0,0L75.1,16c-0.2-0.5-0.5-0.3-0.3,0l0.3,2.5c0,0.2-0.5,0.7-0.8,0.7
			c-0.3,0-0.7-0.7-0.8-0.7l0.3-2.5c0-0.5-0.3-0.5-0.3,0l-0.7,2.2l0,0h-0.2c-0.2,0-0.7,0-1-0.2c0.3-1.2,1-4,1.2-4.8
			c0-0.2,0-0.3-0.3-0.3c0,0,0,0-0.2,0c-0.3,0.2-1.2,0.5-1.5,0.5l0.2-2c0-0.5-0.3-0.5-0.5-0.2c-0.3,1.7-0.7,4.1-1.8,4.8
			c0.2-0.8,0.8-7,1-7.8c0.3,0.2,0.3,0,0.5,0c0.2,0,0.3,0,0.5,0.2l2,1.8c0,0.2,0.2,0.2,0.3,0.2s0.2-0.2,0.2-0.3l0.3-2.3
			c0-0.2,0-0.2,0-0.2l-0.2-0.2c0,0-0.2,0-0.3,0l0.2-0.7c0.2-0.2,0.8-0.3,1.2-0.5l0,0h0.2c0.2,0,0.3,0,0.5,0.2c-0.2,0,0,0.2,0,0.3
			l0.3,3.3c0,0.2,0.2,0.2,0.2,0.3c0.2,0,0.3,0,0.3-0.2l2-1.8c0.3-0.2,0.5-0.2,0.7-0.2s0.2,0.2,0.3,0.3c0.2,0.8,1,7,1,7.8
			c-1.3-0.8-1.5-3.2-1.8-4.8c-0.2-0.5-0.5-0.3-0.5,0.2l0.2,2c-0.3-0.2-1.2-0.5-1.5-0.5H76c-0.3,0-0.3,0.2-0.3,0.3
			C75.8,14.2,76.5,17,76.8,18.2z"/>
		<path class="st4" d="M61.7,35.9c-0.2,0.2-0.7,0.2-1,0.2h-0.2l0,0L60,33.6c-0.2-0.5-0.5-0.3-0.3,0.2l0.3,2.5c0,0.2-0.5,0.7-0.8,0.7
			c-0.3,0-0.7-0.7-0.8-0.7l0.3-2.5c0-0.5-0.3-0.5-0.3-0.2l-0.5,2.3l0,0h-0.2c-0.2,0-0.7,0-1-0.2c0.3-1.2,1-4,1.2-4.8
			c0-0.2,0-0.3-0.3-0.3c0,0,0,0-0.2,0c-0.3,0.2-1.2,0.5-1.5,0.5l0.2-2c0-0.5-0.3-0.5-0.5-0.2c-0.3,1.7-0.7,4.1-1.8,4.8
			c0.2-0.8,0.8-7,1-7.8c0-0.2,0-0.3,0.3-0.3c0.2,0,0.3,0,0.5,0.2l2,1.8c0,0.2,0.2,0.2,0.3,0.2c0.2,0,0.2-0.2,0.2-0.3l0.3-2.3
			c0-0.2,0-0.2,0-0.2l-0.2-0.2c0,0-0.2,0-0.3,0l0.2-0.7c0.2-0.2,0.8-0.3,1.2-0.5l0,0h0.2c0.2,0,0.3,0,0.5,0.2C60,24,60,24,60,24.1
			l0.3,3.3c0,0.2,0.2,0.2,0.2,0.3c0.2,0,0.3,0,0.3-0.2l2-1.8c0.2-0.2,0.3-0.2,0.5-0.2s0.2,0.2,0.3,0.3c0.2,0.8,1,7,1,7.8
			c-1.3-0.8-1.5-3.2-1.8-4.8c-0.2-0.5-0.5-0.3-0.5,0.2l0.2,2c-0.3-0.2-1.2-0.5-1.5-0.5h-0.2c-0.3,0-0.3,0.2-0.3,0.3
			C60.7,32.1,61.4,34.8,61.7,35.9z"/>
		<path class="st4" d="M76.8,35.9c-0.2,0.2-0.7,0.2-1,0.2h-0.2l0,0l-0.5-2.3c-0.2-0.5-0.5-0.3-0.3,0.2l0.3,2.5
			c0,0.2-0.5,0.7-0.8,0.7c-0.3,0-0.7-0.7-0.8-0.7l0.3-2.5c0-0.5-0.3-0.5-0.3-0.2L73,36.1l0,0h-0.2c-0.2,0-0.7,0-1-0.2
			c0.3-1.2,1-4,1.2-4.8c0-0.2,0-0.3-0.3-0.3c0,0,0,0-0.2,0c-0.3,0.2-1.2,0.5-1.5,0.5l0.2-2c0-0.5-0.3-0.5-0.5-0.2
			c-0.3,1.7-0.7,4.1-1.8,4.8c0.2-0.8,0.8-7,1-7.8c0-0.2,0-0.3,0.3-0.3c0.2,0,0.3,0,0.5,0.2l2,1.8c0,0.2,0.2,0.2,0.3,0.2
			c0.2,0,0.2-0.2,0.2-0.3l0.3-2.3c0-0.2,0-0.2,0-0.2L73.3,25c0,0-0.2,0-0.3,0l0.2-0.7c0.2-0.2,0.8-0.3,1.2-0.5l0,0h0.2
			c0.2,0,0.3,0,0.5,0.2c0.2,0.2,0.2,0.2,0.2,0.3l0.3,3.3c0,0.2,0.2,0.2,0.2,0.3c0.2,0,0.3,0,0.3-0.2l2-1.8c0.2-0.2,0.3-0.2,0.5-0.2
			s0.2,0.2,0.3,0.3c0.2,0.8,1,7,1,7.8c-1.3-0.8-1.5-3.2-1.8-4.8c-0.2-0.5-0.5-0.3-0.5,0.2l0.2,2c-0.3-0.2-1.2-0.5-1.5-0.5H76
			c-0.3,0-0.3,0.2-0.3,0.3C75.8,32.1,76.5,34.8,76.8,35.9z"/>
		<path class="st4" d="M13.6,72.2c-0.2,0.2-0.7,0.2-1,0.2h-0.2l0,0l-0.5-2.5c-0.2-0.5-0.5-0.3-0.3,0l0.3,2.5c0,0.2-0.5,0.7-0.8,0.7
			s-0.8-0.5-0.8-0.5l0.3-2.5c0-0.5-0.3-0.5-0.3,0l-0.5,2.3l0,0H9.6c-0.2,0-0.7,0-1-0.2c0.3-1.2,1-4,1.2-4.8c0-0.2,0-0.3-0.3-0.3
			c0,0,0,0-0.2,0c-0.3,0.2-1.2,0.5-1.5,0.5l0.2-2c0-0.5-0.3-0.5-0.5-0.2c-0.3,1.7-0.7,4.1-1.8,4.8c0.2-0.8,0.8-7,1-7.8
			c0-0.2,0-0.3,0.3-0.3c0.2,0,0.3,0,0.5,0.2l2,1.8c0,0.2,0.2,0.2,0.3,0.2c0.2,0,0.2-0.2,0.2-0.3l0.3-2.3c0-0.2,0-0.2,0-0.2l-0.2-0.2
			c0,0-0.2,0-0.3,0l0.2-0.7c0.2-0.2,0.8-0.3,1.2-0.5l0,0h0.2c0.2,0,0.3,0,0.5,0.2c0.2,0.2,0.2,0.2,0.2,0.3l0.3,3.3
			c0,0.2,0.2,0.2,0.2,0.3c0.2,0,0.3,0,0.3-0.2l2-1.8c0.2-0.2,0.3-0.2,0.5-0.2c0.2,0,0.2,0.2,0.3,0.3c0.2,0.8,1,7,1,7.8
			c-1.3-0.8-1.5-3.2-1.8-4.8c-0.2-0.5-0.5-0.3-0.5,0.2l0.2,2c-0.3-0.2-1.2-0.5-1.5-0.5h-0.2c-0.3,0-0.3,0.2-0.3,0.3
			C12.6,68.4,13.3,71.1,13.6,72.2z"/>
		<path class="st4" d="M28.7,72.2c-0.2,0.2-0.7,0.2-1,0.2h-0.2l0,0L27,70.1c-0.2-0.5-0.5-0.3-0.3,0l0.3,2.5c0,0.2-0.5,0.7-0.8,0.7
			s-0.7-0.7-0.8-0.7l0.3-2.5c0-0.5-0.3-0.5-0.3,0l-0.5,2.3l0,0h-0.2c-0.2,0-0.7,0-1-0.2c0.3-1.2,1-4,1.2-4.8c0-0.2,0-0.3-0.3-0.3
			c0,0,0,0-0.2,0c-0.3,0.2-1.2,0.5-1.5,0.5l0.2-2c0-0.5-0.3-0.5-0.5-0.2c-0.3,1.7-0.7,4.1-1.8,4.8c0.2-0.8,0.8-7,1-7.8
			c0-0.2,0-0.3,0.3-0.3c0.2,0,0.3,0,0.5,0.2l2,1.8c0,0.2,0.2,0.2,0.3,0.2c0.2,0,0.2-0.2,0.2-0.3l0.3-2.3c0-0.2,0-0.2,0-0.2l-0.2-0.2
			c0,0-0.2,0-0.3,0l0.2-0.7c0.2-0.2,0.8-0.3,1.2-0.5l0,0h0.2c0.2,0,0.3,0,0.5,0.2c0.2,0.2,0.2,0.2,0.2,0.3l0.3,3.3
			c0,0.2,0.2,0.2,0.2,0.3c0.2,0,0.3,0,0.3-0.2l2-1.8c0.2-0.2,0.3-0.2,0.5-0.2c0.2,0,0.2,0.2,0.3,0.3c0.2,0.8,1,7,1,7.8
			c-1.3-0.8-1.5-3.2-1.8-4.8c-0.2-0.5-0.5-0.3-0.5,0.2l0.2,2c-0.3-0.2-1.2-0.5-1.5-0.5h-0.2c-0.3,0-0.3,0.2-0.3,0.3
			C27.7,68.4,28.4,71.1,28.7,72.2z"/>
		<path class="st4" d="M13.6,90.2c-0.2,0.2-0.7,0.2-1,0.2h-0.2l0,0l-0.5-2.5c-0.2-0.5-0.5-0.3-0.3,0l0.3,2.5c0,0.2-0.5,0.7-0.8,0.7
			s-0.8-0.5-0.8-0.7l0.3-2.5c0-0.5-0.3-0.5-0.3,0l-0.5,2.3l0,0H9.6c-0.2,0-0.7,0-1-0.2c0.3-1.2,1-4,1.2-4.8c0-0.2,0-0.3-0.3-0.3
			c0,0,0,0-0.2,0C9,85,8.1,85.3,7.8,85.3l0.2-2c0-0.5-0.3-0.5-0.5-0.2c-0.3,1.7-0.7,4.1-1.8,4.8c0.2-0.8,0.8-7,1-7.8
			c0-0.2,0-0.3,0.3-0.3c0.2,0,0.3,0,0.5,0.2l2,1.8C9.5,82,9.6,82,9.8,82c0.2,0,0.2-0.2,0.2-0.3l0.3-2.3c0-0.2,0-0.2,0-0.2L10.1,79
			c0,0-0.2,0-0.3,0l0.2-0.7c0.2-0.2,0.8-0.3,1.2-0.5l0,0h0.2c0.2,0,0.3,0,0.5,0.2c0.2,0.2,0.2,0.2,0.2,0.3l0.3,3.3
			c0,0.2,0.2,0.2,0.2,0.3c0.2,0,0.3,0,0.3-0.2l2-1.8c0.2-0.2,0.3-0.2,0.5-0.2c0.2,0,0.2,0.2,0.3,0.3c0.2,0.8,1,7,1,7.8
			c-1.3-0.8-1.5-3.2-1.8-4.8c-0.2-0.5-0.5-0.3-0.5,0.2l0.2,2c-0.3-0.2-1.2-0.5-1.5-0.5h-0.2c-0.3,0-0.3,0.2-0.3,0.3
			C12.6,86.2,13.3,88.8,13.6,90.2z"/>
		<path class="st4" d="M28.7,90.2c-0.2,0.2-0.7,0.2-1,0.2h-0.2l0,0L27,87.8c-0.2-0.5-0.5-0.3-0.3,0l0.3,2.5c0,0.2-0.5,0.7-0.8,0.7
			s-0.7-0.7-0.8-0.7l0.3-2.5c0-0.5-0.3-0.5-0.3,0l-0.5,2.3l0,0h-0.2c-0.2,0-0.7,0-1-0.2c0.3-1.2,1-4,1.2-4.8c0-0.2,0-0.3-0.3-0.3
			c0,0,0,0-0.2,0c-0.3,0.2-1.2,0.5-1.5,0.5l0.2-2c0-0.5-0.3-0.5-0.5-0.2c-0.3,1.7-0.7,4.1-1.8,4.8c0.2-0.8,0.8-7,1-7.8
			c0-0.2,0-0.3,0.3-0.3c0.2,0,0.3,0,0.5,0.2l2,1.8c0,0.2,0.2,0.2,0.3,0.2c0.2,0,0.2-0.2,0.2-0.3l0.3-2.3c0-0.2,0-0.2,0-0.2L25.2,79
			c0,0-0.2,0-0.3,0l0.2-0.7c0.2-0.2,0.8-0.3,1.2-0.5l0,0h0.2c0.2,0,0.3,0,0.5,0.2c0.2,0.2,0.2,0.2,0.2,0.3l0.3,3.3
			c0,0.2,0.2,0.2,0.2,0.3c0.2,0,0.3,0,0.3-0.2l2-1.8c0.2-0.2,0.3-0.2,0.5-0.2c0.2,0,0.2,0.2,0.3,0.3c0.2,0.8,1,7,1,7.8
			c-1.3-0.8-1.5-3.2-1.8-4.8c-0.2-0.5-0.5-0.3-0.5,0.2l0.2,2c-0.3-0.2-1.2-0.5-1.5-0.5h-0.2c-0.3,0-0.3,0.2-0.3,0.3
			C27.7,86.2,28.4,88.8,28.7,90.2z"/>
		<path class="st4" d="M61.7,72.2c-0.2,0.2-0.7,0.2-1,0.2h-0.2l0,0L60,69.9c-0.2-0.5-0.5-0.3-0.3,0l0.3,2.5c0,0.2-0.5,0.7-0.8,0.7
			c-0.3,0-0.7-0.7-0.8-0.7l0.3-2.5c0-0.5-0.3-0.5-0.3,0l-0.5,2.3l0,0h-0.2c-0.2,0-0.7,0-1-0.2c0.3-1.2,1-4,1.2-4.8
			c0-0.2,0-0.3-0.3-0.3c0,0,0,0-0.2,0c-0.3,0.2-1.2,0.5-1.5,0.5l0.2-2c0-0.5-0.3-0.5-0.5-0.2c-0.3,1.7-0.7,4.1-1.8,4.8
			c0.2-0.8,0.8-7,1-7.8c0-0.2,0-0.3,0.3-0.3c0.2,0,0.3,0,0.5,0.2l2,1.8c0,0.2,0.2,0.2,0.3,0.2c0.2,0,0.2-0.2,0.2-0.3l0.3-2.3
			c0-0.2,0-0.2,0-0.2c-0.2,0-0.2-0.2-0.3-0.2c0,0-0.2,0-0.3,0l0.2-0.7c0.2-0.2,0.8-0.3,1.2-0.5l0,0h0.2c0.2,0,0.3,0,0.5,0.2
			c0.2,0.2,0.2,0.2,0.2,0.3l0.3,3.3c0,0.2,0.2,0.2,0.2,0.3c0.2,0,0.3,0,0.3-0.2l2-1.8C62.9,62,63,62,63.2,62c0.2,0,0.2,0.2,0.3,0.3
			c0.2,0.8,1,7,1,7.8c-1.3-0.8-1.5-3.2-1.8-4.8c-0.2-0.5-0.5-0.3-0.5,0.2l0.2,2c-0.3-0.2-1.2-0.5-1.5-0.5h-0.2
			c-0.3,0-0.3,0.2-0.3,0.3C60.7,68.4,61.4,71.1,61.7,72.2z"/>
		<path class="st4" d="M76.8,72.2c-0.2,0.2-0.7,0.2-1,0.2h-0.2l0,0l-0.5-2.3c-0.2-0.5-0.5-0.3-0.3,0l0.3,2.5c0,0.2-0.5,0.7-0.8,0.7
			c-0.3,0-0.7-0.7-0.8-0.7l0.3-2.5c0-0.5-0.3-0.5-0.3,0L73,72.4l0,0h-0.2c-0.2,0-0.7,0-1-0.2c0.3-1.2,1-4,1.2-4.8
			c0-0.2,0-0.3-0.3-0.3c0,0,0,0-0.2,0c-0.3,0.2-1.2,0.5-1.5,0.5l0.2-2c0-0.5-0.3-0.5-0.5-0.2c-0.3,1.7-0.7,4.1-1.8,4.8
			c0.2-0.8,0.8-7,1-7.8c0-0.2,0-0.3,0.3-0.3c0.2,0,0.3,0,0.5,0.2l2,1.8c0,0.2,0.2,0.2,0.3,0.2c0.2,0,0.2-0.2,0.2-0.3l0.3-2.3
			c0-0.2,0-0.2,0-0.2l-0.2-0.2c0,0-0.2,0-0.3,0l0.2-0.7c0.2-0.2,0.8-0.3,1.2-0.5l0,0h0.2c0.2,0,0.3,0,0.5,0.2s0.2,0.2,0.2,0.3
			l0.3,3.3c0,0.2,0.2,0.2,0.2,0.3c0.2,0,0.3,0,0.3-0.2l2-1.8c0.2-0.2,0.3-0.2,0.5-0.2s0.2,0.2,0.3,0.3c0.2,0.8,1,7,1,7.8
			c-1.3-0.8-1.5-3.2-1.8-4.8c-0.2-0.5-0.5-0.3-0.5,0.2l0.2,2c-0.3-0.2-1.2-0.5-1.5-0.5H76c-0.3,0-0.3,0.2-0.3,0.3
			C75.8,68.4,76.5,71.1,76.8,72.2z"/>
		<path class="st4" d="M61.7,90.2c-0.2,0.2-0.7,0.2-1,0.2h-0.2l0,0L60,87.8c-0.2-0.5-0.5-0.3-0.3,0l0.3,2.5c0,0.2-0.5,0.7-0.8,0.7
			c-0.3,0-0.7-0.7-0.8-0.7l0.3-2.5c0-0.5-0.3-0.5-0.3,0l-0.5,2.3l0,0h-0.2c-0.2,0-0.7,0-1-0.2c0.3-1.2,1-4,1.2-4.8
			c0-0.2,0-0.3-0.3-0.3c0,0,0,0-0.2,0c-0.3,0.2-1.2,0.5-1.5,0.5l0.2-2c0-0.5-0.3-0.5-0.5-0.2c-0.3,1.7-0.7,4.1-1.8,4.8
			c0.2-0.8,0.8-7,1-7.8c0-0.2,0-0.3,0.3-0.3c0.2,0,0.3,0,0.5,0.2l2,1.8c0,0.2,0.2,0.2,0.3,0.2c0.2,0,0.2-0.2,0.2-0.3l0.3-2.3
			c0-0.2,0-0.2,0-0.2L58.2,79c0,0-0.2,0-0.3,0l0.2-0.7c0.2-0.2,0.8-0.3,1.2-0.5l0,0h0.2c0.2,0,0.3,0,0.5,0.2
			c0.2,0.2,0.2,0.2,0.2,0.3l0.3,3.3c0,0.2,0.2,0.2,0.2,0.3c0.2,0,0.3,0,0.3-0.2l2-1.8c0.2-0.2,0.3-0.2,0.5-0.2s0.2,0.2,0.3,0.3
			c0.2,0.8,1,7,1,7.8c-1.3-0.8-1.5-3.2-1.8-4.8c-0.2-0.5-0.5-0.3-0.5,0.2l0.2,2c-0.3-0.2-1.2-0.5-1.5-0.5h-0.2
			c-0.3,0-0.3,0.2-0.3,0.3C60.7,86.2,61.4,88.8,61.7,90.2z"/>
		<path class="st4" d="M76.8,90.2c-0.2,0.2-0.7,0.2-1,0.2h-0.2l0,0l-0.5-2.5c-0.2-0.5-0.5-0.3-0.3,0l0.3,2.5c0,0.2-0.5,0.7-0.8,0.7
			c-0.3,0-0.7-0.7-0.8-0.7l0.3-2.5c0-0.5-0.3-0.5-0.3,0L73,90.2l0,0h-0.2c-0.2,0-0.7,0-1-0.2c0.3-1.2,1-4,1.2-4.8
			c0-0.2,0-0.3-0.3-0.3c0,0,0,0-0.2,0c-0.3,0.2-1.2,0.5-1.5,0.5l0.2-2c0-0.5-0.3-0.5-0.5-0.2c-0.3,1.7-0.7,4.1-1.8,4.8
			c0.2-0.8,0.8-7,1-7.8c0-0.2,0-0.3,0.3-0.3c0.2,0,0.3,0,0.5,0.2l2,1.8c0,0.2,0.2,0.2,0.3,0.2c0.2,0,0.2-0.2,0.2-0.3l0.3-2.3
			c0-0.2,0-0.2,0-0.2L73.3,79c0,0-0.2,0-0.3,0l0.2-0.7c0.2-0.2,0.8-0.3,1.2-0.5l0,0h0.2c0.2,0,0.3,0,0.5,0.2
			c0.2,0.2,0.2,0.2,0.2,0.3l0.3,3.3c0,0.2,0.2,0.2,0.2,0.3c0.2,0,0.3,0,0.3-0.2l2-1.8c0.2-0.2,0.3-0.2,0.5-0.2s0.2,0.2,0.3,0.3
			c0.2,0.8,1,7,1,7.8c-1.3-0.8-1.5-3.2-1.8-4.8c-0.2-0.5-0.5-0.3-0.5,0.2l0.2,2c-0.3-0.2-1.2-0.5-1.5-0.5H76c-0.3,0-0.3,0.2-0.3,0.3
			C75.8,86.2,76.5,88.8,76.8,90.2z"/>
	</g>
</g>
</svg>
