<?xml version="1.0" encoding="UTF-8" standalone="no"?>
<!-- Created with Inkscape (http://www.inkscape.org/) -->

<svg
   xmlns:dc="http://purl.org/dc/elements/1.1/"
   xmlns:cc="http://creativecommons.org/ns#"
   xmlns:rdf="http://www.w3.org/1999/02/22-rdf-syntax-ns#"
   xmlns:svg="http://www.w3.org/2000/svg"
   xmlns="http://www.w3.org/2000/svg"
   xmlns:sodipodi="http://sodipodi.sourceforge.net/DTD/sodipodi-0.dtd"
   xmlns:inkscape="http://www.inkscape.org/namespaces/inkscape"
   width="68.26667"
   height="68.26667"
   id="svg2985"
   version="1.1"
   inkscape:version="0.92.1 r15371"
   sodipodi:docname="mback_norm.svg">
  <defs
     id="defs2987" />
  <sodipodi:namedview
     id="base"
     pagecolor="#ffffff"
     bordercolor="#666666"
     borderopacity="1.0"
     inkscape:pageopacity="0.0"
     inkscape:pageshadow="2"
     inkscape:zoom="5.5"
     inkscape:cx="-41.871147"
     inkscape:cy="45.906669"
     inkscape:current-layer="text2993"
     showgrid="true"
     inkscape:document-units="px"
     inkscape:grid-bbox="true"
     inkscape:window-width="1920"
     inkscape:window-height="1171"
     inkscape:window-x="1920"
     inkscape:window-y="0"
     inkscape:window-maximized="1" />
  <metadata
     id="metadata2990">
    <rdf:RDF>
      <cc:Work
         rdf:about="">
        <dc:format>image/svg+xml</dc:format>
        <dc:type
           rdf:resource="http://purl.org/dc/dcmitype/StillImage" />
        <dc:title />
      </cc:Work>
    </rdf:RDF>
  </metadata>
  <g
     id="layer1"
     inkscape:label="Layer 1"
     inkscape:groupmode="layer">
    <g
       aria-label="mback norm"
       transform="scale(0.99101565,1.0090658)"
       style="font-style:normal;font-variant:normal;font-weight:normal;font-stretch:normal;font-size:12.80000019px;line-height:0%;font-family:Amiri;-inkscape-font-specification:Amiri;letter-spacing:0px;word-spacing:0px;fill:#000000;fill-opacity:1;stroke:none;stroke-width:1.06666672"
       id="text2993">
      <path
         d="m 9.3349408,9.0898458 q 1.1366722,0 1.8486532,0.487145 0.711982,0.4871452 0.999272,1.5863452 2.285835,-2.0734902 3.672325,-2.0734902 0.811908,0 1.373999,0.212346 0.56209,0.212345 0.924326,0.599563 0.362236,0.3872182 0.562091,1.0617262 0.212345,0.674509 0.28729,1.473926 0.07495,0.799418 0.07495,1.948581 v 2.747997 q 0,1.448945 0.124909,1.848654 0.04996,0.174872 0.624545,0.28729 0.587072,0.112418 0.949308,0.112418 0.07494,0.09993 0.07494,0.362236 0.01249,0.262309 -0.07494,0.362236 -2.560634,-0.124909 -2.673052,-0.124909 -0.437182,0 -0.849382,0.02498 -0.399708,0.01249 -0.924326,0.04996 -0.524618,0.03747 -0.874363,0.04996 -0.08744,-0.09993 -0.08744,-0.362236 0.01249,-0.262308 0.08744,-0.362236 0.362236,0 0.936817,-0.112418 0.587073,-0.112418 0.637036,-0.28729 0.124909,-0.399709 0.124909,-1.848654 v -2.673052 q 0,-0.799418 -0.04996,-1.361508 -0.04996,-0.56209 -0.199855,-1.074217 -0.1374,-0.524618 -0.399708,-0.8244 -0.249818,-0.299781 -0.674509,-0.474654 -0.424691,-0.187363 -1.024254,-0.187363 -0.549599,0 -1.161653,0.324763 -0.599564,0.324763 -0.949309,0.662018 -0.337254,0.324763 -0.337254,0.437181 0,0.01249 0.01249,0.162382 0.01249,0.1374 0.01249,0.162382 0.09993,0.637035 0.09993,1.773707 v 3.072761 q 0,1.448945 0.124909,1.848654 0.04996,0.174872 0.624545,0.28729 0.587072,0.112418 0.949308,0.112418 0.07495,0.09993 0.07495,0.362236 0.01249,0.262309 -0.07495,0.362236 -2.560634,-0.124909 -2.673052,-0.124909 -0.437182,0 -0.849381,0.02498 -0.399709,0.01249 -0.9243274,0.04996 -0.5246178,0.03747 -0.8743629,0.04996 -0.087436,-0.09993 -0.087436,-0.362236 0.012491,-0.262308 0.087436,-0.362236 0.362236,0 0.9368174,-0.112418 0.5870729,-0.112418 0.6370359,-0.28729 0.124909,-0.399709 0.124909,-1.848654 v -2.548143 q 0,-2.298325 -0.499636,-3.172688 -0.499636,-0.874363 -1.8486531,-0.874363 -0.7619449,0 -1.5488715,0.537108 -0.7744358,0.537109 -0.7744358,0.836891 v 5.221195 q 0,1.448945 0.124909,1.848654 0.049964,0.174872 0.624545,0.28729 0.5870722,0.112418 0.9493083,0.112418 0.074945,0.09993 0.074945,0.362236 0.012491,0.262309 -0.074945,0.362236 -2.5606343,-0.124909 -2.6730524,-0.124909 -0.4371815,0 -0.8493812,0.02498 -0.3997088,0.01249 -0.9243265,0.04996 -0.5246178,0.03747 -0.874363,0.04996 -0.087436,-0.09993 -0.087436,-0.362236 0.012491,-0.262308 0.087436,-0.362236 0.3622361,0 0.9368175,-0.112418 0.5870722,-0.112418 0.6370358,-0.28729 0.124909,-0.399709 0.124909,-1.848654 v -4.546687 q 0,-1.099199 -0.124909,-1.398981 -0.074953,-0.187336 -0.4746621,-0.299754 -0.3997088,-0.112418 -0.6745086,-0.124909 -0.2623089,-0.02498 -0.4746542,-0.02498 -0.049964,-0.04996 -0.062454,-0.299782 0,-0.249818 0.062454,-0.349745 2.1359438,-0.2872902 3.5723972,-1.0492352 0.087436,0 0.1748726,0.14989 0.099927,0.149891 0.099927,0.249818 -0.1498908,1.0492362 -0.1498908,1.2990542 0,0.09993 0.049964,0.09993 0.024982,0 0.074945,-0.04996 1.1616536,-0.9742912 1.8986167,-1.3365272 0.749454,-0.362236 1.3989807,-0.362236 z"
         style="font-size:25.58136177px;line-height:1.25;stroke-width:1.06666672"
         id="path3680"
         inkscape:connector-curvature="0" />
      <path
         d="m 26.372528,20.206747 q -0.537109,0 -1.848654,-0.374727 -0.06245,-0.01249 -0.262308,-0.07495 -0.199855,-0.06245 -0.287291,-0.07494 -0.07494,-0.02498 -0.249818,-0.04996 -0.174873,-0.03747 -0.287291,-0.03747 -0.09993,0 -0.249818,0.02498 -0.149891,0.01249 -0.28729,0.06245 -0.08744,0 -0.212346,-0.212345 -0.112418,-0.224837 -0.112418,-0.337255 0.299782,-0.662017 0.299782,-1.848653 V 6.0920298 q 0,-0.999271 -0.124909,-1.299053 -0.187364,-0.449672 -1.52389,-0.449672 -0.01249,0 -0.02498,-0.149891 -0.01249,-0.162382 -0.01249,-0.324764 0.01249,-0.162381 0.06245,-0.174872 1.723744,-0.174873 3.547415,-0.999272 0.08744,0 0.174873,0.1374 0.09993,0.124909 0.09993,0.262309 -0.2748,0.799417 -0.2748,2.173416 v 4.9214142 q 0,0.07495 0,0.112419 0,0.03747 0.01249,0.112418 0.02498,0.06245 0.04996,0.06245 0.02498,-0.01249 0.08744,-0.03747 0.512127,-0.374727 1.461435,-0.8618722 0.949309,-0.487145 1.561363,-0.487145 1.074217,0 1.961071,0.474654 0.899345,0.4746552 1.448944,1.2366002 0.562091,0.761944 0.861872,1.648798 0.299782,0.886854 0.299782,1.761217 0,1.211617 -0.474654,2.323307 -0.462164,1.099199 -1.274072,1.911108 -0.811909,0.799417 -1.973562,1.286563 -1.149163,0.474654 -2.448216,0.474654 z m 0.399708,-9.642975 q -0.449672,0 -1.049235,0.237328 -0.599563,0.237327 -0.799418,0.437181 -0.124909,0.124909 -0.124909,0.2748 v 6.070577 q 0,0.761945 0.724472,1.274072 0.724473,0.499636 1.598836,0.499636 0.874362,0 1.648798,-0.612055 0.774436,-0.624545 1.224108,-1.586344 0.449673,-0.97429 0.449673,-1.973562 0,-2.160925 -0.999272,-3.385034 -0.986781,-1.236599 -2.673053,-1.236599 z"
         style="font-size:25.58136177px;line-height:1.25;stroke-width:1.06666672"
         id="path3682"
         inkscape:connector-curvature="0" />
      <path
         d="m 38.201409,18.882711 q 0.612054,0 1.386489,-0.399708 0.786927,-0.4122 0.786927,-0.624545 v -3.397525 q -1.936089,0.574581 -2.323307,0.724472 -0.711981,0.2748 -1.124181,0.774436 -0.399709,0.487145 -0.399709,1.174144 0,0.699491 0.487145,1.224109 0.487145,0.524617 1.186636,0.524617 z m 1.349017,-9.7429012 q 1.086708,0 1.898616,0.9992722 0.8244,0.999272 0.8244,2.423234 v 5.146251 q 0,1.174144 0.774436,1.174144 0.112418,0 0.212345,-0.01249 0.112418,-0.02498 0.187363,-0.04996 0.07495,-0.03747 0.149891,-0.07495 0.08744,-0.04996 0.124909,-0.07494 0.04996,-0.03747 0.08744,-0.07494 0.04996,-0.03747 0.06245,-0.03747 0.09993,0 0.09993,0.199854 0,0.262309 -0.124909,0.474655 -0.287291,0.262308 -0.911836,0.612054 -0.612054,0.337254 -0.961799,0.337254 -0.524618,0 -0.961799,-0.499636 -0.437181,-0.512127 -0.56209,-1.124181 -0.362237,0.362236 -1.436454,1.024254 -1.061726,0.649526 -1.636308,0.649526 -1.236599,0 -2.08598,-0.824399 -0.83689,-0.83689 -0.83689,-2.048507 0,-0.711982 0.387218,-1.261581 0.399709,-0.562091 0.861872,-0.736963 0.412199,-0.149891 1.498908,-0.524618 1.086708,-0.374727 1.81118,-0.637036 0.736963,-0.262309 1.061727,-0.4122 0.187363,-0.07495 0.237327,-0.187363 0.06245,-0.112418 0.06245,-0.437182 v -0.674508 q 0,-0.886854 -0.637036,-1.636308 -0.624545,-0.761945 -1.511399,-0.761945 -0.624545,0 -0.936817,0.387218 -0.299782,0.374727 -0.437181,1.161654 -0.212346,1.199126 -1.174145,1.199126 -0.374727,0 -0.612054,-0.324763 -0.237327,-0.324764 -0.237327,-0.724472 0,-0.09993 0.04996,-0.299782 0.06245,-0.212345 0.124909,-0.299782 0.774436,-0.724472 2.048508,-1.3864892 1.286563,-0.662018 2.49818,-0.662018 z"
         style="font-size:25.58136177px;line-height:1.25;stroke-width:1.06666672"
         id="path3684"
         inkscape:connector-curvature="0" />
      <path
         d="m 53.864997,10.3889 q 0,0.612054 -0.287291,0.911835 -0.287291,0.287291 -0.662018,0.287291 -0.249818,0 -0.499636,-0.162382 -0.249818,-0.162381 -0.537108,-0.412199 -0.2748,-0.262309 -0.4122,-0.349745 -0.424691,-0.287291 -0.699491,-0.374727 -0.262308,-0.09993 -0.724472,-0.09993 -1.074217,0 -1.936089,1.161654 -0.861872,1.149163 -0.861872,3.010307 0,2.098471 1.124181,3.160197 1.136672,1.061727 2.92287,1.061727 0.899345,0 1.573854,-0.4122 0.686999,-0.4122 1.074217,-0.861872 0.01249,0 0.06245,0.04996 0.04996,0.03747 0.08744,0.124909 0.04996,0.08744 0.04996,0.174872 0,0.199855 -0.14989,0.449673 -0.199855,0.324763 -0.499636,0.649526 -0.299782,0.324764 -0.749454,0.674509 -0.449673,0.349745 -1.086709,0.574581 -0.624545,0.224836 -1.311544,0.224836 -1.461435,0 -2.63558,-0.724472 -1.174144,-0.724472 -1.798689,-1.861144 -0.612054,-1.149162 -0.612054,-2.460707 0,-1.049235 0.374727,-2.023526 0.387217,-0.97429 1.011762,-1.698762 0.637036,-0.724472 1.423963,-1.261581 0.786927,-0.5495992 1.623817,-0.8243992 0.849381,-0.287291 1.636308,-0.287291 1.349017,0 2.248362,0.599563 0.08744,0.08744 0.162381,0.3122732 0.08744,0.212345 0.08744,0.387218 z"
         style="font-size:25.58136177px;line-height:1.25;stroke-width:1.06666672"
         id="path3686"
         inkscape:connector-curvature="0" />
      <path
         d="m 59.0737,17.133985 q 0,1.448945 0.124909,1.848654 0.04996,0.174872 0.624545,0.28729 0.587072,0.112418 0.949309,0.112418 0.07494,0.09993 0.07494,0.362236 0.01249,0.262309 -0.07494,0.362236 -2.560635,-0.124909 -2.673053,-0.124909 -0.437181,0 -0.849381,0.02498 -0.399709,0.01249 -0.924327,0.04996 -0.524617,0.03747 -0.874363,0.04996 -0.08744,-0.09993 -0.08744,-0.362236 0.01249,-0.262308 0.08744,-0.362236 0.362237,0 0.936818,-0.112418 0.587072,-0.112418 0.637036,-0.28729 0.124909,-0.399709 0.124909,-1.848654 V 6.0920298 q 0,-0.999271 -0.124909,-1.299053 -0.187364,-0.449672 -1.52389,-0.449672 -0.01249,0 -0.02498,-0.149891 -0.01249,-0.162382 -0.01249,-0.324764 0.01249,-0.162381 0.06245,-0.174872 1.723744,-0.174873 3.547415,-0.999272 0.08744,0 0.174873,0.1374 0.09993,0.124909 0.09993,0.262309 -0.2748,0.799417 -0.2748,2.173416 v 8.8935202 q 0.449673,-0.162381 2.048508,-1.523889 0.312272,-0.262309 0.724472,-0.599563 0.4122,-0.349746 0.649527,-0.537109 0.249818,-0.199855 0.474654,-0.399709 0.237327,-0.212345 0.337254,-0.337254 0.112418,-0.124909 0.112418,-0.199855 0,-0.07495 -0.04996,-0.137399 -0.04996,-0.06245 -0.149891,-0.09993 -0.09993,-0.04996 -0.199855,-0.07494 -0.09993,-0.03747 -0.237327,-0.04996 -0.124909,-0.02498 -0.224836,-0.02498 -0.08744,-0.01249 -0.199854,-0.02498 -0.112418,-0.01249 -0.1374,-0.01249 -0.08744,-0.1374 -0.07495,-0.4122002 0.02498,-0.2748 0.124909,-0.312272 1.211618,0.124909 2.398253,0.124909 1.286563,0 2.198398,-0.124909 0.07495,0.112418 0.06245,0.387218 0,0.2623082 -0.06245,0.3372542 -0.337254,0 -0.961799,0.162382 -0.612054,0.162381 -0.961799,0.412199 -2.760489,2.011035 -4.047051,3.097743 0.711981,0.761945 1.786198,1.986053 1.086708,1.211617 1.761217,1.948581 0.686999,0.736963 0.949308,0.961799 0.449673,0.362236 1.086709,0.537108 0.649526,0.162382 1.211617,0.1374 0.03747,0.06245 0.04996,0.287291 0.02498,0.212345 -0.02498,0.312272 -0.349746,0.149891 -1.623817,0.149891 -0.999272,0 -1.861144,-0.362236 -0.861872,-0.362236 -1.211618,-0.736963 -2.148434,-2.323307 -3.572397,-3.872179 -0.03747,-0.04996 -0.1374,-0.09993 -0.09993,-0.07494 -0.174872,-0.09993 l -0.06245,-0.02498 z"
         style="font-size:25.58136177px;line-height:1.25;stroke-width:1.06666672"
         id="path3688"
         inkscape:connector-curvature="0" />
      <path
         d="m 9.4098862,41.066549 q 0.8119088,0 1.3739998,0.212345 0.56209,0.212345 0.924326,0.599563 0.362236,0.387218 0.562091,1.061726 0.212345,0.674509 0.28729,1.473927 0.07495,0.799417 0.07495,1.94858 v 2.747998 q 0,1.448944 0.124909,1.848653 0.04996,0.174872 0.624545,0.28729 0.587072,0.112419 0.949308,0.112419 0.07494,0.09993 0.07494,0.362236 0.01249,0.262308 -0.07494,0.362236 -2.560634,-0.124909 -2.673052,-0.124909 -0.437182,0 -0.849382,0.02498 -0.399708,0.01249 -0.9243266,0.04996 -0.5246178,0.03747 -0.874363,0.04996 -0.087436,-0.09993 -0.087436,-0.362236 0.012491,-0.262309 0.087436,-0.362236 0.3622361,0 0.9368175,-0.112419 0.5870731,-0.112418 0.6370361,-0.28729 0.124909,-0.399709 0.124909,-1.848653 v -2.49818 q 0,-2.36078 -0.512127,-3.222652 -0.4996361,-0.874363 -1.9360895,-0.874363 -0.4246906,0 -1.0117629,0.299781 -0.5745813,0.299782 -0.9742901,0.624545 -0.3872179,0.324764 -0.3872179,0.449673 v 5.221196 q 0,1.448944 0.124909,1.848653 0.049964,0.174872 0.624545,0.28729 0.5870722,0.112419 0.9493083,0.112419 0.074945,0.09993 0.074945,0.362236 0.012491,0.262308 -0.074945,0.362236 -2.5606343,-0.124909 -2.6730524,-0.124909 -0.4371815,0 -0.8493812,0.02498 -0.3997088,0.01249 -0.9243265,0.04996 -0.5246178,0.03747 -0.874363,0.04996 -0.087436,-0.09993 -0.087436,-0.362236 0.012491,-0.262309 0.087436,-0.362236 0.3622361,0 0.9368175,-0.112419 0.5870722,-0.112418 0.6370358,-0.28729 0.124909,-0.399709 0.124909,-1.848653 v -4.546688 q 0,-1.099199 -0.124909,-1.39898 Q 3.7640041,42.977638 3.364295,42.86522 2.9645862,42.752802 2.6897864,42.740311 q -0.2623089,-0.02498 -0.4746542,-0.02498 -0.049964,-0.04996 -0.062454,-0.299781 0,-0.249818 0.062454,-0.349746 2.1359438,-0.28729 3.5723972,-1.049235 0.087436,0 0.1748726,0.149891 0.099927,0.14989 0.099927,0.249818 -0.1498908,1.049235 -0.1498908,1.423962 0,0.09993 0.049964,0.09993 0.024982,0 0.074945,-0.04996 0.499636,-0.5496 1.5363806,-1.186636 1.0367447,-0.637035 1.8361622,-0.637035 z"
         style="font-size:25.58136177px;line-height:1.25;stroke-width:1.06666672"
         id="path3690"
         inkscape:connector-curvature="0" />
      <path
         d="m 20.71415,41.865966 q -1.011763,0 -1.686271,0.649527 -0.674509,0.649527 -0.949308,1.586344 -0.262309,0.936817 -0.262309,2.08598 0,1.261581 0.387218,2.423235 0.387217,1.149162 1.199126,1.94858 0.811908,0.799418 1.886126,0.799418 1.011763,0 1.686271,-0.649527 0.674509,-0.649527 0.936818,-1.573854 0.274799,-0.936817 0.274799,-2.073489 0,-1.24909 -0.399708,-2.410743 -0.387218,-1.174145 -1.199127,-1.973562 -0.811908,-0.811909 -1.873635,-0.811909 z m 0.2748,-0.824399 q 2.435725,0 3.88467,1.53638 1.461435,1.52389 1.461435,3.909652 0,2.423234 -1.52389,4.059542 -1.511399,1.636308 -3.772251,1.636308 -2.435726,0 -3.909652,-1.548872 -1.461435,-1.561362 -1.461435,-3.947124 0,-2.410743 1.52389,-4.022069 1.523889,-1.623817 3.797233,-1.623817 z"
         style="font-size:25.58136177px;line-height:1.25;stroke-width:1.06666672"
         id="path3692"
         inkscape:connector-curvature="0" />
      <path
         d="m 34.966265,41.09153 q 0.487145,0 0.911836,0.212346 0.437181,0.212345 0.612054,0.512126 0.09993,0.299782 0.09993,0.674509 0,0.612054 -0.287291,0.961799 -0.28729,0.337255 -0.537108,0.337255 -0.162382,0 -0.312273,-0.06245 -0.1374,-0.07494 -0.362236,-0.224836 -0.212345,-0.162382 -0.249818,-0.187364 -0.449672,-0.299781 -0.924326,-0.299781 -0.724473,0 -1.361508,0.861872 -0.637036,0.849381 -0.637036,1.38649 v 3.847197 q 0,1.448944 0.124909,1.848653 0.04996,0.174872 0.874363,0.28729 0.83689,0.112419 1.274071,0.112419 0.07495,0.09993 0.07495,0.362236 0.01249,0.262308 -0.07495,0.362236 -2.560634,-0.124909 -3.097743,-0.124909 -0.237327,0 -2.797961,0.124909 -0.08744,-0.09993 -0.08744,-0.362236 0.01249,-0.262309 0.08744,-0.362236 0.362236,0 0.936817,-0.112419 0.587073,-0.112418 0.637036,-0.28729 0.09993,-0.312273 0.124909,-1.848653 v -4.646615 q 0,-0.999272 -0.124909,-1.299053 -0.07494,-0.187364 -0.474654,-0.299782 -0.399709,-0.112418 -0.674509,-0.124909 -0.262308,-0.02498 -0.474654,-0.02498 -0.04996,-0.04996 -0.06245,-0.299781 0,-0.249818 0.06245,-0.349746 2.135944,-0.28729 3.572397,-1.049235 0.08744,0 0.174873,0.149891 0.09993,0.14989 0.09993,0.249818 -0.02498,0.14989 -0.09993,1.136672 -0.07494,0.97429 -0.07494,1.161653 0,0.04996 0.02498,0.07495 0.02498,0.01249 0.03747,0.01249 0.02498,-0.01249 0.03747,-0.03747 0.42469,-0.924327 1.299053,-1.79869 0.874363,-0.874363 1.648799,-0.874363 z"
         style="font-size:25.58136177px;line-height:1.25;stroke-width:1.06666672"
         id="path3694"
         inkscape:connector-curvature="0" />
      <path
         d="m 44.958988,41.066549 q 1.136671,0 1.848653,0.487145 0.711981,0.487145 0.999272,1.586344 2.285834,-2.073489 3.672324,-2.073489 0.811909,0 1.373999,0.212345 0.56209,0.212345 0.924327,0.599563 0.362236,0.387218 0.56209,1.061726 0.212345,0.674509 0.287291,1.473927 0.07494,0.799417 0.07494,1.94858 v 2.747998 q 0,1.448944 0.124909,1.848653 0.04996,0.174872 0.624545,0.28729 0.587072,0.112419 0.949308,0.112419 0.07495,0.09993 0.07495,0.362236 0.01249,0.262308 -0.07495,0.362236 -2.560634,-0.124909 -2.673052,-0.124909 -0.437182,0 -0.849381,0.02498 -0.399709,0.01249 -0.924327,0.04996 -0.524618,0.03747 -0.874363,0.04996 -0.08744,-0.09993 -0.08744,-0.362236 0.01249,-0.262309 0.08744,-0.362236 0.362236,0 0.936818,-0.112419 0.587072,-0.112418 0.637036,-0.28729 0.124909,-0.399709 0.124909,-1.848653 v -2.673044 q 0,-0.799417 -0.04996,-1.361508 -0.04996,-0.56209 -0.199854,-1.074217 -0.1374,-0.524618 -0.399709,-0.8244 -0.249818,-0.299781 -0.674509,-0.474654 -0.42469,-0.187363 -1.024253,-0.187363 -0.5496,0 -1.161654,0.324763 -0.599563,0.324764 -0.949308,0.662018 -0.337255,0.324763 -0.337255,0.437181 0,0.01249 0.01249,0.162382 0.01249,0.1374 0.01249,0.162382 0.09993,0.637036 0.09993,1.773707 v 3.072762 q 0,1.448944 0.124909,1.848653 0.04996,0.174872 0.624545,0.28729 0.587073,0.112419 0.949309,0.112419 0.07495,0.09993 0.07495,0.362236 0.01249,0.262308 -0.07495,0.362236 -2.560635,-0.124909 -2.673053,-0.124909 -0.437181,0 -0.849381,0.02498 -0.399709,0.01249 -0.924327,0.04996 -0.524617,0.03747 -0.874363,0.04996 -0.08744,-0.09993 -0.08744,-0.362236 0.01249,-0.262309 0.08744,-0.362236 0.362237,0 0.936818,-0.112419 0.587072,-0.112418 0.637036,-0.28729 0.124909,-0.399709 0.124909,-1.848653 v -2.548144 q 0,-2.298325 -0.499636,-3.172688 -0.499636,-0.874363 -1.848653,-0.874363 -0.761945,0 -1.548872,0.537108 -0.774436,0.537109 -0.774436,0.836891 v 5.221196 q 0,1.448944 0.124909,1.848653 0.04996,0.174872 0.624545,0.28729 0.587073,0.112419 0.949309,0.112419 0.07494,0.09993 0.07494,0.362236 0.01249,0.262308 -0.07494,0.362236 -2.560635,-0.124909 -2.673053,-0.124909 -0.437181,0 -0.849381,0.02498 -0.399709,0.01249 -0.924326,0.04996 -0.524618,0.03747 -0.874363,0.04996 -0.08744,-0.09993 -0.08744,-0.362236 0.01249,-0.262309 0.08744,-0.362236 0.362236,0 0.936817,-0.112419 0.587072,-0.112418 0.637036,-0.28729 0.124909,-0.399709 0.124909,-1.848653 v -4.546688 q 0,-1.099199 -0.124909,-1.39898 -0.07494,-0.187364 -0.474654,-0.299782 -0.399709,-0.112418 -0.674509,-0.124909 -0.262309,-0.02498 -0.474654,-0.02498 -0.04996,-0.04996 -0.06245,-0.299781 0,-0.249818 0.06245,-0.349746 2.135944,-0.28729 3.572397,-1.049235 0.08744,0 0.174873,0.149891 0.09993,0.14989 0.09993,0.249818 -0.149891,1.049235 -0.149891,1.299053 0,0.09993 0.04996,0.09993 0.02498,0 0.07494,-0.04996 1.161654,-0.97429 1.898617,-1.336526 0.749454,-0.362236 1.398981,-0.362236 z"
         style="font-size:25.58136177px;line-height:1.25;stroke-width:1.06666672"
         id="path3696"
         inkscape:connector-curvature="0" />
    </g>
  </g>
</svg>
