<svg xmlns="http://www.w3.org/2000/svg">
  <symbol id="download" clip-rule="evenodd" fill-rule="evenodd" viewBox="0 0 269 231"><g transform="translate(-1195.8 -629.039) scale(4.16667)"><clipPath id="a"><path clip-rule="nonzero" d="M297.885 200.351l-.332-23.102 43.384.38-.452 22.495-42.6.227z"/></clipPath><g clip-path="url(#a)" fill="none"><g transform="matrix(.48711 0 .08188 -.36517 295.061 188.653)"><clipPath id="b"><path clip-rule="nonzero" d="M11.182-32.035L-.133 31.23l89.239-1.041 9.427-61.6-87.351-.624z"/></clipPath><g clip-path="url(#b)"><path d="M8.39-34.783h94.214L90.931 34.659H-3.283L8.39-34.783z"/></g></g></g></g><path stroke-width="8" stroke="#000" fill="none" d="M28.295 211.805l-1.68-96.258 219.267 1.583-2.286 93.725"/><g transform="matrix(6.8352 0 0 4.85175 -2042.917 -738.04)"><clipPath id="c"><path clip-rule="nonzero" d="M310.037 150.969l18.798.211-.39 34.76-18.798-.211z"/></clipPath><g clip-path="url(#c)"><path stroke-width="4" stroke="#000" fill="none" d="M319.246 152.095v17.92"/><path fill-rule="nonzero" d="M310.846 168.015l8.4 16.8 8.4-16.8z"/></g></g><path d="M0 221.756h270.59z" stroke="#000" stroke-width="25.326"/>
  </symbol>
  <symbol id="menu" viewBox="0 0 20 20">
    <line x1="0" y1="3" x2="20" y2="3" style="stroke:white ;stroke-width:2.3" />
    <line x1="0" y1="10" x2="20" y2="10" style="stroke:white ;stroke-width:2.3" />
    <line x1="0" y1="17" x2="20" y2="17" style="stroke:white ;stroke-width:2.3" />
  </symbol>
</svg>