<svg xmlns="http://www.w3.org/2000/svg" viewBox="-1670 -3699.157 18.25 21.788"><defs><style>.a,.b,.c{fill:#e56400;}.a,.b{stroke:#e56400;}.a{stroke-width:0.5px;}.b{stroke-width:0.25px;}</style></defs><g transform="translate(-1669.99 -3699.147)"><path class="a" d="M-323.21-1581.4a4.744,4.744,0,0,1,4.753-4.726,4.744,4.744,0,0,1,4.726,4.753,4.744,4.744,0,0,1-4.753,4.726A4.744,4.744,0,0,1-323.21-1581.4Zm9.083,0a4.348,4.348,0,0,0-4.33-4.357,4.348,4.348,0,0,0-4.357,4.33,4.348,4.348,0,0,0,4.33,4.357A4.348,4.348,0,0,0-314.127-1581.4Z" transform="translate(331.721 1598.178)"/><path class="b" d="M-319.57-1580.017a.193.193,0,0,1,.055-.138.194.194,0,0,1,.138-.058.194.194,0,0,1,.138.058l1.041,1.05,1.05-1.041a.194.194,0,0,1,.138-.058.194.194,0,0,1,.138.058.194.194,0,0,1,.058.138.193.193,0,0,1-.058.138l-1.188,1.179a.193.193,0,0,1-.138.058.194.194,0,0,1-.138-.058l-1.179-1.188a.193.193,0,0,1-.055-.138Z" transform="translate(331.434 1597.712)"/><path class="b" d="M-318.29-1579.119v-4.348a.193.193,0,0,1,.06-.14.193.193,0,0,1,.143-.053.194.194,0,0,1,.14.06.194.194,0,0,1,.053.143v4.348a.193.193,0,0,1-.06.14.193.193,0,0,1-.143.053.194.194,0,0,1-.14-.06.193.193,0,0,1-.053-.143Z" transform="translate(331.333 1597.984)"/><path class="c" d="M-317.18-1586.323v-6.632a.414.414,0,0,1,.415-.415.415.415,0,0,1,.415.415v6.66" transform="translate(331.246 1598.749)"/><path class="c" d="M-322.64-1579.341h-8.972a.848.848,0,0,1-.848-.848v-18.184a.848.848,0,0,1,.848-.848h8.291a.414.414,0,0,1,.415.415.414.414,0,0,1-.415.414h-8.291v18.2h8.7" transform="translate(332.45 1599.21)"/><path class="c" d="M-317.217-1593h-5.389a.414.414,0,0,1-.415-.414v-5.38a.414.414,0,0,1,.258-.387.414.414,0,0,1,.451.092l5.334,5.334a.414.414,0,0,1,.175.341.414.414,0,0,1-.415.415Zm-4.974-.829h3.97l-3.97-3.97Z" transform="translate(331.706 1599.21)"/></g></svg>