<svg xmlns="http://www.w3.org/2000/svg" viewBox="-1528.733 -3767.156 19.898 19.887"><defs><style>.a,.b{fill:#E56400;}.a{stroke:#E56400;stroke-width:1px;}</style></defs><g transform="translate(-2607 -4300)"><g transform="translate(1078.767 533.344)"><path class="a" d="M-1424.638,1454.667a9.386,9.386,0,0,1-6.686-2.772,9.458,9.458,0,0,1,0-13.342,9.385,9.385,0,0,1,6.687-2.772,9.385,9.385,0,0,1,6.686,2.772,9.384,9.384,0,0,1,2.772,6.686,9.385,9.385,0,0,1-2.772,6.686,9.384,9.384,0,0,1-6.686,2.742Zm0-17.656a7.765,7.765,0,0,0-5.8,2.427,8.1,8.1,0,0,0,0,11.766,7.609,7.609,0,0,0,5.8,2.247,7.724,7.724,0,0,0,5.849-2.247,8.11,8.11,0,0,0,2.394-5.966,8,8,0,0,0-2.233-5.975,8.086,8.086,0,0,0-6.009-2.252Z" transform="translate(1434.078 -1435.78)"/><path class="b" d="M-1427.233,1448.181c-.413,0-.747-.179-.747-.4v-6.3c0-.221.334-.4.747-.4s.747.179.747.4v6.3C-1426.486,1448-1426.82,1448.181-1427.233,1448.181Z" transform="translate(1436.623 -1433.223)"/><path class="b" d="M-1426.467,1442.385h-1.729a.621.621,0,0,1-.584-.652.62.62,0,0,1,.583-.653h1.73a.621.621,0,0,1,.584.653A.621.621,0,0,1-1426.467,1442.385Z" transform="translate(1436.02 -1433.223)"/><path class="b" d="M-1425.964,1446.432h-2.407c-.226,0-.409-.247-.409-.551s.183-.551.409-.551h2.407c.226,0,.409.246.409.551S-1425.738,1446.432-1425.964,1446.432Z" transform="translate(1436.566 -1430.727)"/><path class="b" d="M-1427.324,1440.772a1.186,1.186,0,0,1-1.186-1.186,1.186,1.186,0,0,1,1.186-1.186,1.187,1.187,0,0,1,1.186,1.186,1.186,1.186,0,0,1-1.186,1.186Z" transform="translate(1436.764 -1434.516)"/></g></g></svg>
