<svg xmlns="http://www.w3.org/2000/svg" viewBox="-1613.185 -3692 12.995 13"><defs><style>.a{fill:#777;}</style></defs>

<g transform="translate(-1613.185 -3692)">
	<path class="a" d="M1187.28-415a.679.679,0,0,1-.487-.2l-5.015-5.015a.678.678,0,0,1-.2-.486.678.678,0,0,1,.2-.486l6.615-6.443a1.417,1.417,0,0,1,.9-.371h4.6a.685.685,0,0,1,.685.685v4.6a1.421,1.421,0,0,1-.371.9l-6.437,6.61a.685.685,0,0,1-.486.209Zm2.013-12.315a.9.9,0,0,0-.523.214l-6.321,6.2a.141.141,0,0,0-.036.1.147.147,0,0,0,.042.1,65.764,65.764,0,0,0,4.826,4.79.146.146,0,0,0,.1.042c.039,0,3.7-3.617,3.727-3.645l2.631-2.86a.9.9,0,0,0,.214-.523v-4.419a.146.146,0,0,0-.146-.146Z" transform="translate(-1181.58 428)"/>
	<path class="a" d="M1200.408-422.973a1.218,1.218,0,0,1-1.219-1.218,1.218,1.218,0,0,1,1.219-1.218,1.218,1.218,0,0,1,1.218,1.218A1.218,1.218,0,0,1,1200.408-422.973Zm0-1.893a.68.68,0,0,0-.675.675.68.68,0,0,0,.675.675.68.68,0,0,0,.674-.675A.68.68,0,0,0,1200.408-424.866Z" transform="translate(-1189.981 426.764)"/>

</g>

</svg>
