<?xml version="1.0" standalone="no"?>
<!DOCTYPE svg PUBLIC "-//W3C//DTD SVG 20010904//EN"
 "http://www.w3.org/TR/2001/REC-SVG-20010904/DTD/svg10.dtd">
<svg version="1.0" xmlns="http://www.w3.org/2000/svg"
 width="700.000000pt" height="700.000000pt" viewBox="0 0 700.000000 700.000000"
 preserveAspectRatio="xMidYMid meet">
<metadata>
Created by potrace 1.11, written by Peter Selinger 2001-2013
</metadata>
<g transform="translate(0.000000,700.000000) scale(0.100000,-0.100000)"
fill="#000000" stroke="none">
<path d="M3299 6436 c-2 -2 -35 -6 -74 -10 -78 -7 -137 -14 -175 -21 -14 -3
-41 -7 -60 -10 -27 -4 -117 -22 -150 -30 -3 -1 -21 -5 -40 -9 -235 -53 -560
-187 -805 -331 -428 -251 -832 -667 -1060 -1090 -21 -38 -48 -88 -60 -110 -84
-154 -204 -491 -246 -690 -7 -33 -13 -62 -14 -65 0 -3 -4 -26 -8 -51 -4 -25
-10 -59 -13 -75 -20 -107 -31 -295 -29 -489 1 -121 5 -231 8 -245 4 -14 9 -50
12 -80 15 -150 74 -407 131 -575 58 -172 168 -409 262 -565 85 -140 142 -220
279 -392 43 -53 300 -309 353 -351 234 -184 371 -274 580 -377 246 -123 588
-236 800 -265 25 -3 52 -8 60 -10 8 -2 35 -6 60 -9 25 -3 72 -9 105 -13 96
-12 500 -9 615 5 746 89 1417 447 1908 1016 42 49 42 49 64 30 36 -31 55 -55
94 -121 35 -61 55 -75 70 -52 6 10 34 159 50 269 3 19 7 42 10 51 2 9 7 34 9
55 3 22 10 62 15 89 10 50 74 417 84 486 4 25 1 41 -8 48 -15 12 -29 2 -231
-167 -55 -46 -109 -92 -120 -101 -218 -180 -436 -365 -441 -373 -12 -19 11
-27 83 -29 98 -3 106 -9 63 -56 -86 -93 -223 -221 -315 -294 -55 -44 -107 -86
-116 -93 -9 -7 -20 -15 -25 -17 -5 -2 -40 -25 -79 -50 -274 -182 -621 -319
-965 -384 -14 -3 -36 -7 -50 -10 -26 -5 -58 -9 -170 -22 -131 -15 -504 -8
-620 11 -14 3 -41 7 -60 10 -109 16 -336 72 -430 105 -519 185 -902 459 -1258
899 -247 306 -457 794 -518 1202 -3 19 -7 46 -9 60 -26 171 -26 591 -1 715 2
11 7 42 10 69 36 262 158 611 313 891 180 325 511 683 818 884 39 25 72 49 73
54 2 4 8 7 13 7 5 0 38 18 73 39 68 42 231 123 331 164 212 88 487 157 740
184 137 15 511 8 625 -11 14 -3 42 -7 63 -10 456 -68 935 -290 1305 -604 119
-100 295 -286 385 -406 31 -41 35 -51 25 -69 -6 -12 -16 -42 -23 -67 -37 -144
37 -296 177 -363 46 -22 64 -26 138 -24 66 2 95 8 128 25 66 35 119 88 149
150 23 48 28 70 28 137 0 69 -4 88 -29 138 -53 103 -143 165 -257 176 l-67 6
-58 75 c-318 413 -751 737 -1244 933 -226 90 -497 160 -709 183 -30 3 -64 8
-75 11 -23 5 -492 14 -497 9z"/>
<path d="M2800 4900 l0 -700 251 0 251 0 -296 -296 c-163 -163 -296 -299 -295
-303 0 -3 250 -130 555 -281 304 -151 554 -277 554 -279 0 -1 -117 -120 -259
-262 l-259 -259 -251 0 -251 0 347 -695 c192 -382 350 -695 353 -695 3 0 161
313 353 695 l347 695 -245 0 c-135 0 -245 3 -245 8 0 4 131 137 290 296 160
160 290 292 290 295 -1 3 -250 130 -555 281 -305 151 -555 277 -555 280 0 3
116 121 258 263 l259 257 251 0 252 0 0 700 0 700 -700 0 -700 0 0 -700z"/>
</g>
</svg>
