<?xml version="1.0" encoding="UTF-8" standalone="no"?>
<svg
   xmlns:dc="http://purl.org/dc/elements/1.1/"
   xmlns:cc="http://creativecommons.org/ns#"
   xmlns:rdf="http://www.w3.org/1999/02/22-rdf-syntax-ns#"
   xmlns:svg="http://www.w3.org/2000/svg"
   xmlns="http://www.w3.org/2000/svg"
   xmlns:sodipodi="http://sodipodi.sourceforge.net/DTD/sodipodi-0.dtd"
   xmlns:inkscape="http://www.inkscape.org/namespaces/inkscape"
   viewBox="0 0 13.528551 11.053934"
   version="1.1"
   id="svg11"
   sodipodi:docname="sigma-lower.svg"
   width="13.528551"
   height="11.053934"
   inkscape:version="0.92.5 (2060ec1f9f, 2020-04-08)">
  <metadata
     id="metadata15">
    <rdf:RDF>
      <cc:Work
         rdf:about="">
        <dc:format>image/svg+xml</dc:format>
        <dc:type
           rdf:resource="http://purl.org/dc/dcmitype/StillImage" />
      </cc:Work>
    </rdf:RDF>
  </metadata>
  <sodipodi:namedview
     pagecolor="#ffffff"
     bordercolor="#666666"
     borderopacity="1"
     objecttolerance="10"
     gridtolerance="10"
     guidetolerance="10"
     inkscape:pageopacity="0"
     inkscape:pageshadow="2"
     inkscape:window-width="1848"
     inkscape:window-height="1016"
     id="namedview13"
     showgrid="false"
     inkscape:zoom="26.700352"
     inkscape:cx="8.2736893"
     inkscape:cy="-0.1264626"
     inkscape:window-x="72"
     inkscape:window-y="147"
     inkscape:window-maximized="1"
     inkscape:current-layer="svg11" />
    <style
     id="style-sigma-lower-logo">
.sigma-lower-logo-fill {
      fill: #000000;
}
  </style>
  <title
     id="title6">sigma</title>
  <g
     id="rulers"
     transform="translate(-18.622976,-22.0176)"
     style="fill:#000000">
    <path
       class="sigma-lower-logo-fill"
       d="m 22.45,33.0684 a 3.6166,3.6166 0 0 1 -2.7749,-1.125 3.9782,3.9782 0 0 1 -1.05,-2.8252 6.8346,6.8346 0 0 1 0.625,-2.75 8.2388,8.2388 0 0 1 1.7251,-2.45 6.95,6.95 0 0 1 2.375,-1.55 4.6984,4.6984 0 0 1 1.35,-0.3252 q 0.0242,-0.0249 3.5,-0.0254 h 3.45 a 0.8713,0.8713 0 0 1 0.5,0.75 0.9991,0.9991 0 0 1 -0.7749,1.0254 12.22,12.22 0 0 1 -1.625,0.05 h -1.5 l 0.125,0.25 a 4.9,4.9 0 0 1 0.45,2.125 6.7573,6.7573 0 0 1 -2.1253,4.9246 6.4486,6.4486 0 0 1 -3.2251,1.8008 4.9114,4.9114 0 0 1 -1.0249,0.125 z m 4.4248,-7.2256 q 0,-2 -2.125,-2 A 3.3787,3.3787 0 0 0 22.2,24.918 a 7.2316,7.2316 0 0 0 -1.5,3.4248 7.4767,7.4767 0 0 0 -0.2,1.5254 2.43,2.43 0 0 0 0.5376,1.6621 1.9028,1.9028 0 0 0 1.5127,0.6123 3.3729,3.3729 0 0 0 2.4746,-1.1748 7.2516,7.2516 0 0 0 1.5752,-3.3 8.6272,8.6272 0 0 0 0.2749,-1.825 z"
       id="path8"
       inkscape:connector-curvature="0"
    />
  </g>
</svg>
