<!DOCTYPE svg PUBLIC "-//W3C//DTD SVG 1.1//EN"
 "http://www.w3.org/Graphics/SVG/1.1/DTD/svg11.dtd">
<svg version="1.1"
 width="1200px" height="392px"
 viewBox="0 0 1200 392"
 xmlns="http://www.w3.org/2000/svg" shape-rendering="crispEdges"
 stroke-width="1" text-rendering="geometricPrecision">
<polygon fill="white" points="191,7 407,7 407,16 191,16"/>
<text x="300" y="16" textLength="214" font-family="Helvetica" font-size="12" fill="black" text-anchor="middle">

BEAT Infrastructure (language agnostic)
</text>
<polygon fill="white" points="845,7 953,7 953,16 845,16"/>
<text x="900" y="16" textLength="107" font-family="Helvetica" font-size="12" fill="black" text-anchor="middle">

Execute (user code)
</text>
<line x1="300" y1="22" x2="300" y2="50" stroke="black"/>
<line x1="900" y1="22" x2="900" y2="50" stroke="black"/>
<line x1="900" y1="33" x2="300" y2="33" stroke="black"/>
<line x1="300" y1="33" x2="310" y2="39" stroke="black"/>
<polygon fill="white" points="568,23 631,23 631,32 568,32"/>
<text x="569" y="32" textLength="61" font-family="Helvetica" font-size="12" fill="black">
nxt channel
</text>
<line x1="300" y1="50" x2="300" y2="78" stroke="black"/>
<line x1="900" y1="50" x2="900" y2="78" stroke="black"/>
<line x1="300" y1="61" x2="900" y2="61" stroke="black"/>
<line x1="900" y1="61" x2="890" y2="67" stroke="black"/>
<polygon fill="white" points="515,51 684,51 684,60 515,60"/>
<text x="516" y="60" textLength="167" font-family="Helvetica" font-size="12" fill="black">
2 name1 &lt;bin1&gt; name2 &lt;bin2&gt;
</text>
<line x1="300" y1="78" x2="300" y2="106" stroke="black"/>
<line x1="900" y1="78" x2="900" y2="106" stroke="black"/>
<line x1="900" y1="89" x2="300" y2="89" stroke="black"/>
<line x1="300" y1="89" x2="310" y2="95" stroke="black"/>
<polygon fill="white" points="547,79 651,79 651,88 547,88"/>
<text x="548" y="88" textLength="102" font-family="Helvetica" font-size="12" fill="black">
hmd channel name
</text>
<line x1="300" y1="106" x2="300" y2="134" stroke="black"/>
<line x1="900" y1="106" x2="900" y2="134" stroke="black"/>
<line x1="300" y1="117" x2="900" y2="117" stroke="black"/>
<line x1="900" y1="117" x2="890" y2="123" stroke="black"/>
<polygon fill="white" points="591,107 607,107 607,116 591,116"/>
<text x="592" y="116" textLength="14" font-family="Helvetica" font-size="12" fill="black">
tru
</text>
<line x1="300" y1="134" x2="300" y2="162" stroke="black"/>
<line x1="900" y1="134" x2="900" y2="162" stroke="black"/>
<line x1="900" y1="145" x2="300" y2="145" stroke="black"/>
<line x1="300" y1="145" x2="310" y2="151" stroke="black"/>
<polygon fill="white" points="574,135 625,135 625,144 574,144"/>
<text x="575" y="144" textLength="49" font-family="Helvetica" font-size="12" fill="black">
oic name
</text>
<line x1="300" y1="162" x2="300" y2="190" stroke="black"/>
<line x1="900" y1="162" x2="900" y2="190" stroke="black"/>
<line x1="300" y1="173" x2="900" y2="173" stroke="black"/>
<line x1="900" y1="173" x2="890" y2="179" stroke="black"/>
<polygon fill="white" points="591,163 607,163 607,172 591,172"/>
<text x="592" y="172" textLength="14" font-family="Helvetica" font-size="12" fill="black">
tru
</text>
<line x1="300" y1="190" x2="300" y2="218" stroke="black"/>
<line x1="900" y1="190" x2="900" y2="218" stroke="black"/>
<line x1="900" y1="201" x2="300" y2="201" stroke="black"/>
<line x1="300" y1="201" x2="310" y2="207" stroke="black"/>
<polygon fill="white" points="556,191 643,191 643,200 556,200"/>
<text x="557" y="200" textLength="85" font-family="Helvetica" font-size="12" fill="black">
wrt out sz &lt;bin&gt;
</text>
<line x1="300" y1="218" x2="300" y2="246" stroke="black"/>
<line x1="900" y1="218" x2="900" y2="246" stroke="black"/>
<line x1="300" y1="229" x2="900" y2="229" stroke="black"/>
<line x1="900" y1="229" x2="890" y2="235" stroke="black"/>
<polygon fill="white" points="589,219 610,219 610,228 589,228"/>
<text x="590" y="228" textLength="19" font-family="Helvetica" font-size="12" fill="black">
ack
</text>
<line x1="300" y1="246" x2="300" y2="263" stroke="black" stroke-dasharray="2,2"/>
<line x1="900" y1="246" x2="900" y2="263" stroke="black" stroke-dasharray="2,2"/>
<line x1="300" y1="263" x2="300" y2="291" stroke="black"/>
<line x1="900" y1="263" x2="900" y2="291" stroke="black"/>
<line x1="900" y1="274" x2="300" y2="274" stroke="black"/>
<line x1="300" y1="274" x2="310" y2="280" stroke="black"/>
<polygon fill="white" points="547,264 651,264 651,273 547,273"/>
<text x="548" y="273" textLength="102" font-family="Helvetica" font-size="12" fill="black">
hmd channel name
</text>
<line x1="300" y1="291" x2="300" y2="319" stroke="black"/>
<line x1="900" y1="291" x2="900" y2="319" stroke="black"/>
<line x1="300" y1="302" x2="900" y2="302" stroke="black"/>
<line x1="900" y1="302" x2="890" y2="308" stroke="black"/>
<polygon fill="white" points="592,292 607,292 607,301 592,301"/>
<text x="593" y="301" textLength="13" font-family="Helvetica" font-size="12" fill="black">
fal
</text>
<line x1="300" y1="319" x2="300" y2="347" stroke="black"/>
<line x1="900" y1="319" x2="900" y2="347" stroke="black"/>
<line x1="900" y1="330" x2="300" y2="330" stroke="black"/>
<line x1="300" y1="330" x2="310" y2="336" stroke="black"/>
<polygon fill="white" points="588,320 610,320 610,329 588,329"/>
<text x="589" y="329" textLength="20" font-family="Helvetica" font-size="12" fill="black">
don
</text>
<line x1="300" y1="347" x2="300" y2="364" stroke="black" stroke-dasharray="2,2"/>
<line x1="900" y1="347" x2="900" y2="364" stroke="black" stroke-dasharray="2,2"/>
<line x1="300" y1="364" x2="300" y2="392" stroke="black"/>
<line x1="900" y1="364" x2="900" y2="392" stroke="black"/>
<line x1="300" y1="375" x2="900" y2="375" stroke="black"/>
<line x1="900" y1="375" x2="890" y2="381" stroke="black"/>
<polygon fill="white" points="589,365 610,365 610,374 589,374"/>
<text x="590" y="374" textLength="19" font-family="Helvetica" font-size="12" fill="black">
ack
</text>
<line x1="300" y1="386" x2="300" y2="392" stroke="black"/>
<line x1="900" y1="386" x2="900" y2="392" stroke="black"/>
</svg>
