<?xml version="1.0" encoding="utf-8"?>
<!-- Generator: Adobe Illustrator 22.1.0, SVG Export Plug-In . SVG Version: 6.00 Build 0)  -->
<svg version="1.1" id="GMAT_x5F_LOGO_x5F_POS_x5F_CMYK"
	 xmlns="http://www.w3.org/2000/svg" xmlns:xlink="http://www.w3.org/1999/xlink" x="0px" y="0px" viewBox="0 0 336.8 144.7"
	 style="enable-background:new 0 0 336.8 144.7;" xml:space="preserve">
<style type="text/css">
	.st0{fill:#16211F;}
	.st1{fill:#FFCD03;}
</style>
<g>
	<g>
		<path class="st0" d="M88.8,55.9H60.2v12.9h14.5v8.4c-3.9,2.1-8.2,3.3-12,3.3c-11.5,0-20.4-8.7-20.4-19.8
			c0-11.1,8.9-19.7,20.4-19.7c5.9,0,12,2.4,16.4,6.5l2,1.8l9-11.7L88.4,36c-6.7-5.9-16.3-9.4-25.7-9.4c-20.2,0-36,14.9-36,34
			c0,19.2,15.5,34.2,35.4,34.2c8.9,0,18.8-3.3,25.8-8.6l1-0.7V55.9z"/>
	</g>
	<path class="st0" d="M220.1,55.9h-12.9l-27.5,62.2h15.1l5.5-13h26.1l5.5,13h15.3L220.1,55.9z M205.9,91.9l7.5-17.6l7.5,17.6H205.9z
		"/>
	<polygon class="st0" points="247.3,55.9 247.3,69.2 265.6,69.2 265.6,118.1 279.8,118.1 279.8,69.2 298.1,69.2 298.1,55.9 	"/>
	<polygon class="st0" points="153.9,55.9 136.4,91.4 118.7,55.9 103.5,55.9 103.5,118.1 117.2,118.1 117.2,82.5 131.7,112.1 
		140.9,112.1 155.5,82.4 155.5,118.1 169,118.1 169,55.9 	"/>
	<rect x="29.8" y="104.8" class="st1" width="59.1" height="13.3"/>
	<g>
		<path class="st0" d="M303.3,39.8v0.9h-1.7v4.5h-1.1v-4.5h-1.7v-0.9H303.3z M309.1,45.2l-0.2-3.2c0-0.4,0-0.9,0-1.5h-0.1
			c-0.1,0.5-0.3,1.1-0.5,1.6l-1,3h-1.1l-1-3.1c-0.1-0.4-0.3-1.1-0.4-1.5h-0.1c0,0.5,0,1,0,1.5l-0.2,3.2h-1l0.4-5.4h1.6l0.9,2.7
			c0.1,0.4,0.2,0.8,0.4,1.4h0c0.1-0.5,0.3-1,0.4-1.4l0.9-2.7h1.6l0.4,5.4H309.1z"/>
	</g>
</g>
</svg>
