<?xml version="1.0" standalone="no"?>
<!DOCTYPE svg PUBLIC "-//W3C//DTD SVG 20010904//EN"
 "http://www.w3.org/TR/2001/REC-SVG-20010904/DTD/svg10.dtd">
<svg version="1.0" xmlns="http://www.w3.org/2000/svg"
 width="700.000000pt" height="700.000000pt" viewBox="0 0 700.000000 700.000000"
 preserveAspectRatio="xMidYMid meet">
<metadata>
Created by potrace 1.11, written by Peter Selinger 2001-2013
</metadata>
<g transform="translate(0.000000,700.000000) scale(0.100000,-0.100000)"
fill="#000000" stroke="none">
<path d="M1047 5595 l-347 -695 700 0 700 0 -347 695 c-192 382 -350 695 -353
695 -3 0 -161 -313 -353 -695z"/>
<path d="M2629 5765 c-7 -56 -2 -335 6 -336 33 -4 3835 -3 3836 1 1 3 2 80 3
173 1 107 -2 167 -9 168 -5 1 -871 2 -1922 3 -1272 1 -1913 -2 -1914 -9z"/>
<path d="M700 3500 l0 -700 700 0 700 0 0 700 0 700 -700 0 -700 0 0 -700z"/>
<path d="M2631 3670 c-5 -4 -7 -293 -2 -335 1 -7 644 -10 1919 -9 1054 1 1919
2 1922 3 10 2 5 341 -5 342 -33 4 -3828 3 -3834 -1z"/>
<path d="M1225 2076 c-208 -58 -356 -177 -449 -363 -49 -98 -67 -171 -72 -288
-6 -158 25 -271 111 -405 95 -147 234 -249 407 -295 74 -20 107 -23 201 -20
158 4 263 40 388 131 135 99 222 227 270 399 23 83 18 275 -9 360 -55 169
-145 292 -282 385 -119 81 -220 112 -370 115 -93 2 -130 -1 -195 -19z"/>
<path d="M2637 1570 c-10 -4 -12 -46 -11 -170 1 -91 2 -167 3 -170 1 -4 3824
-5 3841 -1 5 1 5 301 1 336 -1 10 -3809 15 -3834 5z"/>
</g>
</svg>
