<?xml version="1.0" encoding="UTF-8" standalone="no"?>
<!-- Created with Inkscape (http://www.inkscape.org/) -->

<svg
   xmlns:dc="http://purl.org/dc/elements/1.1/"
   xmlns:cc="http://creativecommons.org/ns#"
   xmlns:rdf="http://www.w3.org/1999/02/22-rdf-syntax-ns#"
   xmlns:svg="http://www.w3.org/2000/svg"
   xmlns="http://www.w3.org/2000/svg"
   xmlns:sodipodi="http://sodipodi.sourceforge.net/DTD/sodipodi-0.dtd"
   xmlns:inkscape="http://www.inkscape.org/namespaces/inkscape"
   width="6mm"
   height="6mm"
   viewBox="0 0 6 6"
   version="1.1"
   id="svg841"
   inkscape:version="0.92.4 (f8dce91, 2019-08-02)"
   sodipodi:docname="icon.svg"
   inkscape:export-filename="/home/mari/code/kinetics/iocbio/kinetics/app/icon.png"
   inkscape:export-xdpi="2167.4666"
   inkscape:export-ydpi="2167.4666">
  <defs
     id="defs835">
    <inkscape:path-effect
       effect="spiro"
       id="path-effect2483"
       is_visible="true" />
    <inkscape:path-effect
       effect="spiro"
       id="path-effect2417"
       is_visible="true" />
    <inkscape:path-effect
       effect="spiro"
       id="path-effect2413"
       is_visible="true" />
    <inkscape:path-effect
       effect="spiro"
       id="path-effect2409"
       is_visible="true" />
    <inkscape:path-effect
       effect="spiro"
       id="path-effect2405"
       is_visible="true" />
    <inkscape:path-effect
       effect="spiro"
       id="path-effect2401"
       is_visible="true" />
    <inkscape:path-effect
       effect="spiro"
       id="path-effect2397"
       is_visible="true" />
    <inkscape:path-effect
       effect="spiro"
       id="path-effect2393"
       is_visible="true" />
    <marker
       inkscape:stockid="Arrow1Send"
       orient="auto"
       refY="0"
       refX="0"
       id="Arrow1Send"
       style="overflow:visible"
       inkscape:isstock="true">
      <path
         id="path1407"
         d="M 0,0 5,-5 -12.5,0 5,5 Z"
         style="fill:#000000;fill-opacity:1;fill-rule:evenodd;stroke:#000000;stroke-width:1.00000003pt;stroke-opacity:1"
         transform="matrix(-0.2,0,0,-0.2,-1.2,0)"
         inkscape:connector-curvature="0" />
    </marker>
    <marker
       inkscape:stockid="Arrow1Sstart"
       orient="auto"
       refY="0"
       refX="0"
       id="Arrow1Sstart"
       style="overflow:visible"
       inkscape:isstock="true">
      <path
         id="path1404"
         d="M 0,0 5,-5 -12.5,0 5,5 Z"
         style="fill:#000000;fill-opacity:1;fill-rule:evenodd;stroke:#000000;stroke-width:1.00000003pt;stroke-opacity:1"
         transform="matrix(0.2,0,0,0.2,1.2,0)"
         inkscape:connector-curvature="0" />
    </marker>
    <marker
       inkscape:isstock="true"
       style="overflow:visible"
       id="marker1897"
       refX="0"
       refY="0"
       orient="auto"
       inkscape:stockid="Arrow2Mend">
      <path
         transform="scale(-0.6)"
         d="M 8.7185878,4.0337352 -2.2072895,0.01601326 8.7185884,-4.0017078 c -1.7454984,2.3720609 -1.7354408,5.6174519 -6e-7,8.035443 z"
         style="fill:#000000;fill-opacity:1;fill-rule:evenodd;stroke:#000000;stroke-width:0.625;stroke-linejoin:round;stroke-opacity:1"
         id="path1895"
         inkscape:connector-curvature="0" />
    </marker>
    <marker
       inkscape:isstock="true"
       style="overflow:visible"
       id="marker1839"
       refX="0"
       refY="0"
       orient="auto"
       inkscape:stockid="Arrow2Mstart">
      <path
         transform="scale(0.6)"
         d="M 8.7185878,4.0337352 -2.2072895,0.01601326 8.7185884,-4.0017078 c -1.7454984,2.3720609 -1.7354408,5.6174519 -6e-7,8.035443 z"
         style="fill:#000000;fill-opacity:1;fill-rule:evenodd;stroke:#000000;stroke-width:0.625;stroke-linejoin:round;stroke-opacity:1"
         id="path1837"
         inkscape:connector-curvature="0" />
    </marker>
    <inkscape:path-effect
       effect="spiro"
       id="path-effect1823"
       is_visible="true" />
    <inkscape:path-effect
       effect="spiro"
       id="path-effect1790"
       is_visible="true" />
    <inkscape:path-effect
       effect="spiro"
       id="path-effect1786"
       is_visible="true" />
    <marker
       inkscape:stockid="Arrow1Mend"
       orient="auto"
       refY="0"
       refX="0"
       id="Arrow1Mend"
       style="overflow:visible"
       inkscape:isstock="true">
      <path
         id="path1401"
         d="M 0,0 5,-5 -12.5,0 5,5 Z"
         style="fill:#000000;fill-opacity:1;fill-rule:evenodd;stroke:#000000;stroke-width:1.00000003pt;stroke-opacity:1"
         transform="matrix(-0.4,0,0,-0.4,-4,0)"
         inkscape:connector-curvature="0" />
    </marker>
    <marker
       inkscape:stockid="Arrow1Lstart"
       orient="auto"
       refY="0"
       refX="0"
       id="Arrow1Lstart"
       style="overflow:visible"
       inkscape:isstock="true">
      <path
         id="path1392"
         d="M 0,0 5,-5 -12.5,0 5,5 Z"
         style="fill:#000000;fill-opacity:1;fill-rule:evenodd;stroke:#000000;stroke-width:1.00000003pt;stroke-opacity:1"
         transform="matrix(0.8,0,0,0.8,10,0)"
         inkscape:connector-curvature="0" />
    </marker>
  </defs>
  <sodipodi:namedview
     id="base"
     pagecolor="#ffffff"
     bordercolor="#666666"
     borderopacity="1.0"
     inkscape:pageopacity="0.0"
     inkscape:pageshadow="2"
     inkscape:zoom="53.798611"
     inkscape:cx="4.442493"
     inkscape:cy="11.041177"
     inkscape:document-units="mm"
     inkscape:current-layer="layer1"
     showgrid="false"
     inkscape:snap-grids="false"
     inkscape:snap-to-guides="false"
     inkscape:lockguides="true"
     inkscape:window-width="2560"
     inkscape:window-height="1385"
     inkscape:window-x="0"
     inkscape:window-y="27"
     inkscape:window-maximized="1"
     fit-margin-top="0"
     fit-margin-left="0"
     fit-margin-right="0"
     fit-margin-bottom="0" />
  <metadata
     id="metadata838">
    <rdf:RDF>
      <cc:Work
         rdf:about="">
        <dc:format>image/svg+xml</dc:format>
        <dc:type
           rdf:resource="http://purl.org/dc/dcmitype/StillImage" />
        <dc:title />
      </cc:Work>
    </rdf:RDF>
  </metadata>
  <g
     inkscape:label="Layer 1"
     inkscape:groupmode="layer"
     id="layer1"
     transform="translate(-39.631149,-5.4918037)">
    <rect
       style="opacity:1;fill:#c235a4;fill-opacity:0.76271189;stroke:#100000;stroke-width:0.012;stroke-miterlimit:4;stroke-dasharray:none;stroke-dashoffset:0;stroke-opacity:1"
       id="rect2419-3"
       width="0.37741858"
       height="4.0131006"
       x="44.174446"
       y="6.4778171" />
    <rect
       style="opacity:1;fill:#fffefe;fill-opacity:1;stroke:#100000;stroke-width:0.09513853;stroke-miterlimit:4;stroke-dasharray:none;stroke-dashoffset:0;stroke-opacity:1"
       id="rect1827"
       width="5.9048615"
       height="5.9048615"
       x="39.678719"
       y="5.5393729" />
    <rect
       style="opacity:1;fill:#a9cc14;fill-opacity:0.75706213;stroke:#100000;stroke-width:0.012;stroke-miterlimit:4;stroke-dasharray:none;stroke-dashoffset:0;stroke-opacity:1"
       id="rect2419"
       width="0.4381806"
       height="3.998162"
       x="41.513374"
       y="6.4872446" />
    <rect
       style="opacity:1;fill:#a9cce5;fill-opacity:0.78531075;stroke:#100000;stroke-width:0.012;stroke-miterlimit:4;stroke-dasharray:none;stroke-dashoffset:0;stroke-opacity:1"
       id="rect2419-7"
       width="0.59180468"
       height="3.9981623"
       x="42.351021"
       y="6.4855275" />
    <rect
       style="opacity:1;fill:#eccce5;fill-opacity:0.82485878;stroke:#100000;stroke-width:0.012;stroke-miterlimit:4;stroke-dasharray:none;stroke-dashoffset:0;stroke-opacity:1"
       id="rect2419-73"
       width="0.50152105"
       height="4.0040469"
       x="43.276474"
       y="6.4931989" />
    <path
       style="fill:none;stroke:#db1212;stroke-width:0.2;stroke-linecap:butt;stroke-linejoin:miter;stroke-miterlimit:4;stroke-dasharray:none;stroke-opacity:1"
       d="m 40.608895,9.9044571 c 0.0913,-0.00188 0.18256,-0.00558 0.273712,-0.011097 0.02834,-0.00171 0.05668,-0.00361 0.08507,-0.0037 0.0286,-9.48e-5 0.0579,0.00154 0.08507,-0.0074 0.02604,-0.00857 0.0483,-0.026453 0.06565,-0.047684 0.01734,-0.02123 0.03014,-0.045779 0.04162,-0.070677 0.0401,-0.08701 0.06561,-0.1816075 0.06658,-0.2774085 2.25e-4,-0.022194 -8.59e-4,-0.0444 0,-0.066578 0.0029,-0.074815 0.02776,-0.1472602 0.03329,-0.2219269 0.0012,-0.016036 0.0015,-0.032158 0.0037,-0.048084 0.0059,-0.042591 0.02527,-0.081917 0.04069,-0.1220596 0.01023,-0.02663 0.01882,-0.053936 0.03093,-0.079766 0.01211,-0.02583 0.02808,-0.050471 0.05044,-0.068185 0.02136,-0.01692 0.04752,-0.026726 0.07397,-0.033289 0.1,-0.024815 0.204873,-0.00624 0.306999,0.0074 0.05278,0.00705 0.106577,0.012732 0.159049,0.0037 0.04457,-0.00767 0.08756,-0.026234 0.122058,-0.055482 0.03277,-0.027783 0.05716,-0.064437 0.07506,-0.1034934 0.01789,-0.039056 0.02959,-0.080639 0.03996,-0.1223256 0.02076,-0.083374 0.0378,-0.1707997 0.08841,-0.2402271 0.01033,-0.014175 0.02218,-0.027594 0.03699,-0.036988 0.01824,-0.011563 0.03993,-0.016382 0.06138,-0.018937 0.02144,-0.00256 0.04315,-0.00306 0.06438,-0.00696 0.03918,-0.00719 0.07556,-0.0257 0.114663,-0.033289 0.0607,-0.01178 0.123102,0.00344 0.184938,0.0037 0.02097,8.7e-5 0.04197,-0.00155 0.06288,0 0.02004,0.00149 0.03976,0.0059 0.05918,0.011097 0.0282,0.00755 0.05611,0.016827 0.08508,0.020515 0.02896,0.00369 0.0597,0.00135 0.08507,-0.013115 0.01868,-0.01065 0.03349,-0.027411 0.04357,-0.046402 0.01008,-0.018991 0.01562,-0.040159 0.01819,-0.061507 0.0051,-0.042697 -0.0013,-0.085827 -0.0026,-0.1288129 -4.64e-4,-0.016023 -2e-4,-0.032056 0,-0.048084 5.1e-4,-0.040961 6.66e-4,-0.082444 0.01109,-0.1220597 0.01591,-0.060468 0.05437,-0.1119729 0.08507,-0.1664451 0.01354,-0.024025 0.02632,-0.04965 0.04809,-0.066578 0.01389,-0.010802 0.03079,-0.01739 0.04813,-0.02038 0.01734,-0.00299 0.03515,-0.00249 0.05258,-9.4e-5 0.03487,0.0048 0.06825,0.017052 0.102721,0.024174 0.09682,0.020008 0.197152,-0.00114 0.295902,0.0037 0.02191,0.00107 0.0438,0.00343 0.06573,0.00293 0.02193,-5.052e-4 0.0442,-0.00402 0.06373,-0.014026 0.02308,-0.011825 0.04108,-0.032227 0.05292,-0.055296 0.01185,-0.023069 0.01788,-0.048745 0.02093,-0.074496 0.0061,-0.051504 6.98e-4,-0.1042291 0.01122,-0.1550139 0.0072,-0.034921 0.02179,-0.067837 0.03241,-0.1018817 0.01062,-0.034044 0.01728,-0.070742 0.0083,-0.10525 -0.004,-0.015347 -0.01103,-0.029908 -0.01349,-0.045576 -0.0012,-0.00783 -0.0013,-0.015946 7.8e-4,-0.023603 0.0021,-0.00766 0.0064,-0.014845 0.01271,-0.019592 0.0043,-0.00322 0.0094,-0.00524 0.01472,-0.0063 0.0053,-0.00106 0.0107,-0.00118 0.01608,-8.523e-4 0.01074,6.631e-4 0.02133,0.00313 0.03209,0.00346 0.02376,7.242e-4 0.04676,-0.00906 0.06658,-0.022193 0.02589,-0.017153 0.04743,-0.039941 0.07029,-0.060956 0.02286,-0.021015 0.048,-0.040825 0.07767,-0.050007 0.02968,-0.00919 0.06158,-0.00704 0.09247,-0.0037 0.08531,0.00923 0.169644,0.026915 0.255217,0.033289 0.048,0.00358 0.09626,0.00358 0.144251,0"
       id="path2415"
       inkscape:connector-curvature="0"
       inkscape:path-effect="#path-effect2417"
       inkscape:original-d="m 40.608895,9.9044571 c 0.08981,-0.011319 0.184208,0.011279 0.273712,-0.011097 0.02726,-0.00681 0.05913,0.00495 0.08507,-0.0037 0.02482,-0.00827 0.0612,0.00454 0.08507,-0.0074 0.03775,-0.018875 0.07025,-0.081343 0.107265,-0.1183608 0.08209,-0.082086 0.06658,-0.1670251 0.06658,-0.2774085 0,-0.020368 -0.0049,-0.04712 0,-0.066578 0.01378,-0.055152 0.01371,-0.1827506 0.03329,-0.2219269 0.0065,-0.013028 -0.0029,-0.034964 0.0037,-0.048084 0.0086,-0.017182 0.03535,-0.1007234 0.04069,-0.1220596 0.0088,-0.035004 0.05175,-0.1331426 0.08137,-0.1479511 0.02421,-0.01211 0.04946,-0.021034 0.07397,-0.033289 0.01995,-0.00997 0.280189,0.00357 0.306999,0.0074 0.02273,0.00325 0.138573,0.013936 0.159049,0.0037 0.03823,-0.019116 0.08519,-0.037049 0.122058,-0.055482 0.152058,-0.076028 0.07174,-0.3672779 0.203433,-0.4660461 0.01302,-0.00975 0.02156,-0.029275 0.03699,-0.036988 0.03273,-0.016364 0.08829,-0.022146 0.125759,-0.025892 0.03478,-0.00348 0.08414,-0.018029 0.114663,-0.033289 0.02302,-0.011512 0.154771,-0.00132 0.184938,0.0037 0.01701,0.00283 0.04791,-0.00749 0.06288,0 0.01654,0.00826 0.04099,0.00503 0.05918,0.011097 0.05314,0.017714 0.114834,0.04427 0.170142,0.0074 0.0753,-0.050198 0.04708,-0.1641057 0.05918,-0.2367219 0.0011,-0.00647 -0.0054,-0.042684 0,-0.048084 0.02289,-0.022889 -0.0042,-0.091526 0.01109,-0.1220597 0.02697,-0.053936 0.03845,-0.1120539 0.08507,-0.1664451 0.01513,-0.017656 0.02657,-0.055819 0.04809,-0.066578 0.02711,-0.013557 0.171534,5.027e-4 0.203433,0.0037 0.09713,0.00971 0.198077,0.0037 0.295902,0.0037 0.04268,0 0.09252,0.013528 0.129458,-0.011097 0.108079,-0.072053 0.06978,-0.177754 0.08507,-0.284806 0.0099,-0.069063 0.02716,-0.1395097 0.04069,-0.2071317 0.0032,-0.016023 -0.01148,-0.077298 0,-0.088771 0.0067,-0.00669 0.05426,-0.00274 0.06288,-0.0037 0.02101,-0.00233 0.04808,-0.013562 0.06658,-0.022193 0.05361,-0.025016 0.122211,-0.059484 0.147952,-0.1109633 0.0067,-0.013354 0.07796,-7.23e-5 0.09247,-0.0037 0.07467,-0.018666 0.180652,0.018375 0.255217,0.033289 0.04421,0.00884 0.09936,0 0.144251,0"
       transform="translate(0,0.52916667)" />
    <path
       style="fill:none;stroke:#2b40e6;stroke-width:0.2;stroke-linecap:butt;stroke-linejoin:miter;stroke-miterlimit:4;stroke-dasharray:none;stroke-opacity:1"
       d="m 40.612594,6.8825546 c 0.09976,0.00532 0.199741,0.00655 0.299604,0.0037 0.01973,-5.635e-4 0.03949,-0.00129 0.05918,0 0.0389,0.00254 0.07681,0.012853 0.114662,0.022193 0.03901,0.00963 0.07838,0.018287 0.118362,0.022193 0.02574,0.00251 0.05171,0.00306 0.07719,0.00744 0.02548,0.00438 0.05092,0.012953 0.07075,0.029546 0.02373,0.01985 0.03718,0.049031 0.05548,0.073975 0.04332,0.05906 0.112207,0.092644 0.17754,0.1257586 0.08604,0.04361 0.171995,0.090724 0.266311,0.1109633 0.01676,0.0036 0.03373,0.00633 0.05022,0.011018 0.01649,0.00469 0.03265,0.011465 0.04595,0.022271 0.01845,0.014981 0.03009,0.036501 0.04439,0.055482 0.04569,0.060655 0.117541,0.094466 0.184938,0.1294572 0.104646,0.054331 0.206961,0.117496 0.321795,0.1442524 0.0099,0.00231 0.01989,0.00434 0.02959,0.0074 0.03547,0.011188 0.06536,0.035567 0.09071,0.062781 0.02535,0.027214 0.04701,0.05766 0.07203,0.08517 0.06298,0.069233 0.145302,0.1178206 0.229325,0.1590474 0.02746,0.013475 0.05582,0.026671 0.07767,0.048084 0.01189,0.011656 0.02148,0.025403 0.03163,0.038608 0.01014,0.013205 0.02111,0.02612 0.03495,0.035368 0.01162,0.00776 0.02488,0.012676 0.03714,0.019374 0.0061,0.00335 0.01205,0.00717 0.0172,0.011891 0.0052,0.00472 0.0095,0.010374 0.01223,0.016819 0.0049,0.011626 0.004,0.024857 0.0074,0.036988 0.0042,0.01492 0.0146,0.027172 0.0222,0.040687 0.0174,0.03097 0.01981,0.068065 0.0185,0.1035658 -0.0011,0.031178 -0.0048,0.062251 -0.005,0.09345 -1.47e-4,0.031199 0.0034,0.062976 0.01608,0.091489 0.01328,0.029891 0.03593,0.054759 0.06104,0.075716 0.02511,0.020957 0.05288,0.038455 0.07951,0.057439 0.0614,0.043765 0.117423,0.096178 0.159047,0.1590477 0.02037,0.030765 0.03713,0.063768 0.05678,0.095 0.01965,0.031232 0.04263,0.061122 0.07268,0.082542 0.03332,0.023756 0.07331,0.03577 0.110964,0.051783 0.05075,0.021582 0.09791,0.050789 0.14795,0.073976 0.02764,0.012809 0.05613,0.023761 0.08507,0.033289 0.03867,0.012731 0.0782,0.022937 0.118359,0.02959 0.05213,0.00864 0.105133,0.011264 0.157195,0.020314 0.05206,0.00905 0.104221,0.025143 0.146107,0.05736 0.0339,0.026073 0.05954,0.06149 0.09247,0.088771 0.01865,0.015447 0.03941,0.028102 0.0591,0.042207 0.01968,0.014105 0.0386,0.030005 0.05187,0.050262 0.01888,0.02882 0.02482,0.063938 0.03699,0.096168 0.02245,0.059447 0.06806,0.1102429 0.125759,0.1368549 0.03865,0.017828 0.0813,0.024722 0.12206,0.036988 0.05005,0.015062 0.09745,0.038296 0.14795,0.051783 0.02341,0.00625 0.04744,0.010394 0.07028,0.018494 0.06314,0.022392 0.114206,0.076296 0.133154,0.1405538"
       id="path2481"
       inkscape:connector-curvature="0"
       inkscape:path-effect="#path-effect2483"
       inkscape:original-d="m 40.612594,6.8825546 c 0.0998,0.00344 0.199588,0.0037 0.299604,0.0037 0.01712,0 0.04324,-0.00532 0.05918,0 0.03596,0.011986 0.07707,0.015928 0.114662,0.022193 0.02771,0.00462 0.100664,0.0045 0.118362,0.022193 0.0046,0.00457 0.119179,0.022603 0.147949,0.036988 0.02133,0.010663 0.03316,0.056119 0.05548,0.073975 0.05637,0.045094 0.113641,0.090259 0.17754,0.1257586 0.08112,0.045064 0.182068,0.073522 0.266311,0.1109633 0.0299,0.01329 0.06864,0.012639 0.09617,0.033289 0.01775,0.013306 0.02661,0.037711 0.04439,0.055482 0.05168,0.051682 0.117991,0.095983 0.184938,0.1294572 0.104349,0.052174 0.215625,0.098751 0.321795,0.1442524 0.0075,0.00322 0.02556,0.00336 0.02959,0.0074 0.04581,0.045813 0.102071,0.1075016 0.162745,0.1479513 0.07695,0.051297 0.159324,0.099048 0.229325,0.1590474 0.02172,0.018629 0.05409,0.029217 0.07767,0.048084 0.02625,0.020997 0.03905,0.05195 0.06658,0.073976 0.01688,0.013496 0.05635,0.027615 0.06658,0.048084 0.0048,0.00953 0.0038,0.026321 0.0074,0.036988 0.0047,0.013991 0.01918,0.025585 0.0222,0.040687 0.0067,0.033705 0.01421,0.069226 0.0185,0.1035658 0.0049,0.039142 -0.0036,0.155498 0.01109,0.184939 0.01371,0.027399 0.111855,0.1085578 0.140554,0.1331558 0.05617,0.048149 0.106924,0.1069232 0.159047,0.1590477 0.06035,0.060351 0.04828,0.1288375 0.129457,0.1775415 0.0351,0.021061 0.0748,0.0337 0.110964,0.051783 0.0486,0.024299 0.09776,0.052464 0.14795,0.073976 0.03007,0.012888 0.05947,0.016219 0.08507,0.033289 0.02162,0.014417 0.08933,0.021296 0.118359,0.02959 0.03158,0.00902 0.294846,0.069221 0.303302,0.077674 0.02535,0.02535 0.06028,0.063738 0.09247,0.088771 0.03772,0.029342 0.08067,0.054601 0.110964,0.092469 0.02659,0.033233 0.02498,0.060161 0.03699,0.096168 0.01889,0.0567 0.07727,0.1045308 0.125759,0.1368549 0.03909,0.026059 0.07977,0.028529 0.12206,0.036988 0.05114,0.010229 0.103032,0.029323 0.14795,0.051783 0.01664,0.00832 0.05803,0.00624 0.07028,0.018494 0.04057,0.040567 0.104256,0.082757 0.133154,0.1405538"
       transform="translate(0,0.52916667)" />
    <path
       style="fill:none;stroke:#000000;stroke-width:0.36500001;stroke-linecap:butt;stroke-linejoin:miter;stroke-miterlimit:4;stroke-dasharray:none;stroke-opacity:1;marker-start:url(#Arrow1Sstart);marker-end:url(#Arrow1Send)"
       d="m 40.479119,6.8987641 c 0,3.7042349 0,3.7042349 0,3.7042349 h 4.378399"
       id="path2109"
       inkscape:connector-curvature="0" />
  </g>
</svg>
